<svg id="svg" version="1.1" xmlns="http://www.w3.org/2000/svg" xmlns:xlink="http://www.w3.org/1999/xlink" width="400" height="400" viewBox="0, 0, 400,400"><g id="svgg"><path id="path0" d="M67.495 0.277 C 67.107 0.378,66.893 0.627,67.019 0.830 C 67.144 1.034,66.898 1.200,66.472 1.200 C 65.992 1.200,65.512 1.646,65.212 2.371 C 64.945 3.015,64.473 3.640,64.163 3.759 C 63.115 4.161,63.341 395.642,64.390 396.591 C 64.824 396.984,65.286 397.642,65.417 398.053 C 65.547 398.464,66.012 398.800,66.451 398.800 C 66.952 398.800,67.141 398.972,66.961 399.263 C 66.765 399.580,66.947 399.655,67.538 399.500 C 68.013 399.376,68.300 399.438,68.177 399.637 C 67.929 400.038,330.804 400.149,332.296 399.749 C 332.788 399.617,333.092 399.350,332.972 399.155 C 332.851 398.960,333.258 398.786,333.876 398.768 C 334.494 398.751,334.768 398.644,334.484 398.530 C 334.109 398.379,334.197 398.123,334.800 397.600 C 335.403 397.077,335.491 396.821,335.116 396.670 C 334.823 396.553,334.945 396.450,335.400 396.432 C 336.578 396.385,336.678 4.242,335.500 3.153 C 335.115 2.797,334.800 2.212,334.800 1.853 C 334.800 1.432,334.462 1.200,333.849 1.200 C 333.326 1.200,332.674 0.930,332.400 0.600 C 331.920 0.022,69.699 -0.298,67.495 0.277 M320.800 200.000 L 320.800 384.800 219.013 384.800 C 126.150 384.800,117.247 384.744,117.469 384.164 C 117.631 383.742,118.040 383.591,118.688 383.715 C 119.312 383.834,119.745 383.689,119.889 383.312 C 120.051 382.890,120.468 382.791,121.358 382.961 C 122.115 383.106,122.392 383.065,122.066 382.855 C 121.471 382.472,122.274 382.002,123.533 381.998 C 123.900 381.996,124.724 381.722,125.365 381.388 C 126.005 381.054,126.950 380.745,127.465 380.703 C 127.979 380.660,128.400 380.485,128.400 380.313 C 128.400 380.141,128.850 380.000,129.400 380.000 C 129.950 380.000,130.400 379.820,130.400 379.600 C 130.400 379.380,130.850 379.200,131.400 379.200 C 132.056 379.200,132.400 378.977,132.400 378.550 C 132.400 378.036,132.660 377.952,133.642 378.148 C 134.561 378.332,134.833 378.263,134.688 377.884 C 134.544 377.509,134.872 377.416,135.908 377.537 C 137.123 377.678,137.287 377.603,137.058 377.007 C 136.830 376.413,136.993 376.335,138.176 376.473 C 139.227 376.596,139.464 376.518,139.159 376.150 C 138.858 375.788,139.023 375.695,139.811 375.781 C 140.413 375.848,140.953 375.668,141.070 375.362 C 141.187 375.056,141.816 374.847,142.538 374.874 C 144.198 374.934,145.675 374.446,145.362 373.939 C 145.214 373.699,145.496 373.589,146.056 373.667 C 146.587 373.742,146.965 373.607,146.920 373.359 C 146.872 373.097,147.236 372.994,147.820 373.106 C 148.359 373.209,148.800 373.131,148.800 372.932 C 148.800 372.733,149.385 372.526,150.100 372.472 C 150.815 372.419,151.460 372.200,151.533 371.987 C 151.607 371.774,152.282 371.600,153.033 371.600 C 153.785 371.600,154.400 371.464,154.400 371.298 C 154.400 370.993,155.412 370.519,158.000 369.610 C 158.770 369.339,160.120 368.799,161.000 368.409 C 164.012 367.076,164.839 366.800,165.819 366.800 C 166.358 366.800,166.800 366.620,166.800 366.400 C 166.800 366.180,167.156 366.000,167.590 366.000 C 168.025 366.000,168.970 365.641,169.690 365.201 C 170.411 364.762,171.416 364.402,171.924 364.401 C 172.437 364.401,172.737 364.222,172.600 364.000 C 172.453 363.762,172.929 363.600,173.776 363.600 C 174.559 363.600,175.200 363.420,175.200 363.200 C 175.200 362.980,175.560 362.800,176.000 362.800 C 176.472 362.800,176.800 362.533,176.800 362.150 C 176.800 361.639,177.060 361.552,178.020 361.744 C 178.776 361.895,179.147 361.838,178.996 361.594 C 178.854 361.364,179.344 361.200,180.176 361.200 C 181.193 361.200,181.600 361.024,181.600 360.582 C 181.600 360.216,181.885 360.013,182.300 360.082 C 182.726 360.154,182.954 359.982,182.882 359.645 C 182.791 359.221,183.099 359.144,184.182 359.320 C 184.962 359.446,185.600 359.381,185.600 359.175 C 185.600 358.969,186.140 358.800,186.800 358.800 C 187.460 358.800,188.000 358.599,188.000 358.353 C 188.000 358.095,188.413 357.986,188.980 358.094 C 189.564 358.206,189.928 358.103,189.880 357.841 C 189.835 357.593,190.213 357.458,190.744 357.533 C 191.343 357.617,191.590 357.507,191.420 357.233 C 191.190 356.861,192.560 356.573,193.700 356.753 C 193.865 356.779,194.000 356.620,194.000 356.400 C 194.000 356.180,194.456 356.000,195.013 356.000 C 195.569 356.000,196.127 355.734,196.252 355.409 C 196.388 355.055,197.269 354.712,198.440 354.557 C 199.518 354.414,200.400 354.140,200.400 353.948 C 200.400 353.757,200.760 353.600,201.200 353.600 C 201.640 353.600,202.014 353.375,202.032 353.100 C 202.056 352.715,202.108 352.712,202.261 353.088 C 202.473 353.613,202.411 353.650,204.729 351.600 C 205.351 351.050,206.233 350.349,206.689 350.041 C 207.330 349.609,207.504 349.097,207.459 347.779 C 207.426 346.842,207.536 346.160,207.703 346.263 C 207.986 346.439,207.880 51.963,207.597 50.922 C 207.525 50.659,207.362 50.474,207.233 50.511 C 206.856 50.619,204.212 47.833,204.328 47.450 C 204.386 47.258,203.965 47.190,203.393 47.299 C 202.707 47.430,202.414 47.341,202.531 47.035 C 202.652 46.720,202.255 46.624,201.292 46.737 C 200.137 46.872,199.919 46.787,200.114 46.280 C 200.310 45.768,200.109 45.698,198.976 45.881 C 198.088 46.026,197.600 45.944,197.600 45.652 C 197.600 45.404,197.240 45.200,196.800 45.200 C 196.360 45.200,196.045 44.975,196.100 44.700 C 196.156 44.419,195.719 44.145,195.100 44.073 C 194.495 44.004,194.000 43.783,194.000 43.583 C 194.000 43.384,193.460 43.328,192.800 43.460 C 191.868 43.646,191.600 43.557,191.600 43.063 C 191.600 42.662,191.378 42.510,191.003 42.654 C 190.675 42.780,190.306 42.621,190.183 42.301 C 190.041 41.930,189.605 41.787,188.980 41.906 C 188.441 42.009,188.000 41.923,188.000 41.716 C 188.000 41.508,187.460 41.418,186.800 41.515 C 185.890 41.648,185.600 41.535,185.600 41.045 C 185.600 40.595,185.238 40.400,184.400 40.400 C 183.740 40.400,183.200 40.208,183.200 39.973 C 183.200 39.737,182.863 39.653,182.447 39.785 C 181.972 39.936,181.608 39.798,181.460 39.412 C 181.331 39.075,180.780 38.800,180.236 38.800 C 179.692 38.800,179.136 38.620,179.000 38.400 C 178.864 38.180,178.223 38.000,177.576 38.000 C 176.929 38.000,176.400 37.820,176.400 37.600 C 176.400 37.380,176.130 37.200,175.800 37.200 C 175.470 37.200,175.200 37.058,175.200 36.884 C 175.200 36.711,174.705 36.576,174.100 36.584 C 173.427 36.594,173.039 36.406,173.100 36.100 C 173.162 35.791,172.751 35.600,172.024 35.600 C 171.377 35.600,170.736 35.420,170.600 35.200 C 170.464 34.980,170.003 34.800,169.576 34.800 C 169.149 34.800,168.800 34.620,168.800 34.400 C 168.800 34.180,168.350 34.000,167.800 34.000 C 167.250 34.000,166.800 33.840,166.800 33.644 C 166.800 33.295,164.857 32.834,162.733 32.678 C 162.147 32.635,161.697 32.420,161.733 32.200 C 161.770 31.980,161.485 31.853,161.100 31.918 C 160.685 31.987,160.400 31.784,160.400 31.418 C 160.400 31.029,160.037 30.800,159.424 30.800 C 158.887 30.800,158.336 30.620,158.200 30.400 C 158.064 30.180,157.601 30.000,157.171 30.000 C 156.741 30.000,156.077 29.841,155.695 29.647 C 153.826 28.696,150.690 27.572,149.698 27.497 C 149.234 27.462,148.944 27.291,149.051 27.117 C 149.159 26.943,148.787 26.800,148.224 26.800 C 147.661 26.800,147.200 26.620,147.200 26.400 C 147.200 26.180,146.876 26.000,146.480 26.000 C 146.084 26.000,145.565 25.805,145.327 25.567 C 145.088 25.328,144.076 25.133,143.077 25.133 C 141.878 25.133,141.186 24.940,141.043 24.567 C 140.923 24.255,140.449 24.000,139.989 24.000 C 139.529 24.000,139.240 23.858,139.348 23.685 C 139.455 23.512,139.070 23.331,138.494 23.283 C 137.917 23.235,137.345 23.058,137.222 22.889 C 137.100 22.721,136.370 22.524,135.600 22.451 C 134.830 22.379,134.110 22.203,134.000 22.060 C 133.659 21.617,131.102 20.813,130.741 21.036 C 130.554 21.152,130.400 20.967,130.400 20.624 C 130.400 20.225,130.039 20.000,129.400 20.000 C 128.850 20.000,128.400 19.820,128.400 19.600 C 128.400 19.380,127.871 19.200,127.224 19.200 C 126.577 19.200,125.934 19.017,125.796 18.793 C 125.658 18.570,125.376 18.491,125.170 18.619 C 124.963 18.746,124.697 18.596,124.577 18.285 C 124.445 17.939,123.996 17.788,123.427 17.897 C 122.914 17.995,122.372 17.878,122.223 17.638 C 122.075 17.397,121.513 17.200,120.976 17.200 C 120.439 17.200,120.000 17.009,120.000 16.776 C 120.000 16.543,119.820 16.464,119.600 16.600 C 119.380 16.736,119.200 16.657,119.200 16.424 C 119.200 16.191,118.851 16.000,118.424 16.000 C 117.997 16.000,117.536 15.820,117.400 15.600 C 117.235 15.334,151.196 15.200,218.976 15.200 L 320.800 15.200 320.800 200.000 M80.945 19.113 C 81.512 19.004,81.893 19.049,81.792 19.213 C 81.595 19.531,85.118 20.800,86.199 20.800 C 86.555 20.800,86.736 20.980,86.600 21.200 C 86.464 21.420,86.726 21.600,87.182 21.600 C 87.638 21.600,88.323 21.759,88.705 21.953 C 90.823 23.031,91.608 23.282,92.173 23.066 C 92.563 22.916,92.800 23.042,92.800 23.400 C 92.800 23.769,93.035 23.885,93.458 23.722 C 93.857 23.569,94.322 23.752,94.640 24.186 C 94.969 24.637,95.467 24.823,95.982 24.689 C 96.433 24.571,96.712 24.619,96.602 24.796 C 96.493 24.973,96.988 25.091,97.702 25.059 C 98.535 25.021,98.965 25.175,98.904 25.489 C 98.837 25.828,99.174 25.905,100.004 25.739 C 100.915 25.557,101.200 25.646,101.200 26.113 C 101.200 26.528,101.457 26.658,102.000 26.516 C 102.556 26.370,102.800 26.504,102.800 26.953 C 102.800 27.405,103.162 27.600,104.000 27.600 C 104.660 27.600,105.200 27.776,105.200 27.990 C 105.200 28.206,105.711 28.278,106.342 28.152 C 107.168 27.986,107.553 28.100,107.730 28.562 C 107.865 28.913,108.261 29.200,108.611 29.200 C 108.961 29.200,109.159 29.343,109.051 29.517 C 108.944 29.691,109.425 29.877,110.121 29.931 C 110.817 29.984,111.561 30.201,111.773 30.413 C 111.986 30.626,112.709 30.803,113.380 30.806 C 114.315 30.811,114.460 30.903,114.000 31.200 C 113.543 31.495,113.705 31.589,114.676 31.594 C 115.378 31.597,116.059 31.772,116.189 31.983 C 116.319 32.193,116.690 32.264,117.013 32.140 C 117.377 32.000,117.600 32.155,117.600 32.547 C 117.600 33.037,117.871 33.126,118.800 32.940 C 119.733 32.753,120.000 32.842,120.000 33.340 C 120.000 33.831,120.267 33.927,121.142 33.752 C 121.968 33.586,122.353 33.700,122.530 34.162 C 122.665 34.513,123.141 34.800,123.587 34.800 C 124.034 34.800,124.400 34.955,124.400 35.145 C 124.400 35.334,124.877 35.398,125.459 35.287 C 126.191 35.147,126.431 35.226,126.236 35.542 C 126.047 35.848,126.362 36.000,127.189 36.000 C 127.919 36.000,128.519 36.246,128.655 36.600 C 128.782 36.930,129.221 37.200,129.631 37.200 C 130.040 37.200,131.017 37.560,131.800 38.000 C 132.583 38.440,133.579 38.800,134.012 38.800 C 134.445 38.800,134.800 38.976,134.800 39.190 C 134.800 39.410,135.323 39.475,136.000 39.340 C 136.764 39.187,137.200 39.263,137.200 39.550 C 137.200 39.798,137.650 40.000,138.200 40.000 C 138.772 40.000,139.157 40.208,139.100 40.485 C 139.038 40.786,139.884 41.127,141.333 41.385 C 142.616 41.614,143.531 41.935,143.366 42.100 C 143.202 42.265,143.637 42.400,144.333 42.400 C 145.030 42.400,145.600 42.580,145.600 42.800 C 145.600 43.020,145.960 43.200,146.400 43.200 C 146.840 43.200,147.200 43.341,147.200 43.513 C 147.200 43.685,147.687 43.866,148.282 43.915 C 148.878 43.964,149.544 44.184,149.762 44.402 C 149.981 44.621,150.574 44.800,151.080 44.800 C 151.586 44.800,152.000 44.980,152.000 45.200 C 152.000 45.420,152.360 45.600,152.800 45.600 C 153.240 45.600,153.600 45.769,153.600 45.975 C 153.600 46.183,154.252 46.244,155.067 46.112 C 156.290 45.913,156.494 45.978,156.294 46.501 C 156.098 47.010,156.494 47.179,158.400 47.400 C 160.186 47.607,160.695 47.807,160.531 48.236 C 160.388 48.608,160.593 48.800,161.134 48.800 C 161.584 48.800,162.064 48.980,162.200 49.200 C 162.336 49.420,162.876 49.600,163.400 49.600 C 163.924 49.600,164.464 49.780,164.600 50.000 C 164.736 50.220,165.287 50.400,165.824 50.400 C 166.361 50.400,166.800 50.592,166.800 50.827 C 166.800 51.072,167.141 51.146,167.600 51.000 C 168.168 50.820,168.400 50.928,168.400 51.373 C 168.400 51.803,168.777 52.000,169.600 52.000 C 170.260 52.000,170.800 52.180,170.800 52.400 C 170.800 52.620,170.935 52.779,171.100 52.753 C 172.373 52.552,174.009 52.862,173.764 53.258 C 173.569 53.574,173.807 53.654,174.528 53.516 C 175.104 53.406,175.480 53.470,175.364 53.659 C 175.098 54.089,177.148 54.957,178.133 54.832 C 178.537 54.780,179.094 55.049,179.371 55.428 C 179.712 55.895,180.217 56.052,180.937 55.914 C 181.700 55.768,182.000 55.878,182.000 56.302 C 182.000 56.697,182.266 56.824,182.801 56.684 C 183.285 56.557,183.740 56.721,183.950 57.097 C 184.170 57.490,184.613 57.638,185.150 57.497 C 185.618 57.375,185.900 57.438,185.777 57.637 C 185.654 57.837,186.159 58.000,186.901 58.000 C 187.670 58.000,188.598 58.325,189.061 58.757 C 189.602 59.260,190.229 59.445,190.937 59.310 L 192.000 59.107 192.000 199.753 L 192.000 340.400 190.800 340.400 C 189.964 340.400,189.600 340.595,189.600 341.043 C 189.600 341.444,189.379 341.601,189.013 341.460 C 188.690 341.336,188.319 341.407,188.189 341.617 C 188.059 341.828,187.524 342.000,187.000 342.000 C 186.476 342.000,185.925 342.197,185.776 342.438 C 185.627 342.680,184.987 342.801,184.353 342.708 C 183.553 342.590,183.200 342.709,183.200 343.096 C 183.200 343.492,182.940 343.571,182.303 343.369 C 181.525 343.122,181.475 343.167,181.923 343.707 C 182.270 344.125,182.302 344.414,182.019 344.588 C 181.789 344.731,181.600 344.657,181.600 344.424 C 181.600 344.191,181.150 344.000,180.600 344.000 C 179.738 344.000,179.453 344.319,179.521 345.205 C 179.530 345.318,178.921 345.382,178.168 345.347 C 177.416 345.311,176.800 345.452,176.800 345.659 C 176.800 345.866,176.485 345.982,176.100 345.918 C 175.677 345.847,175.446 346.018,175.517 346.350 C 175.599 346.740,175.337 346.843,174.617 346.705 C 174.057 346.598,173.600 346.666,173.600 346.855 C 173.600 347.045,173.297 347.200,172.927 347.200 C 172.074 347.200,167.526 348.776,167.020 349.247 C 166.811 349.441,166.226 349.600,165.720 349.600 C 165.214 349.600,164.800 349.780,164.800 350.000 C 164.800 350.220,164.361 350.400,163.824 350.400 C 163.287 350.400,162.736 350.580,162.600 350.800 C 162.464 351.020,161.903 351.200,161.353 351.200 C 160.788 351.200,160.460 351.374,160.600 351.600 C 160.740 351.826,160.412 352.000,159.847 352.000 C 159.297 352.000,158.736 352.180,158.600 352.400 C 158.464 352.620,157.813 352.800,157.153 352.800 C 156.455 352.800,156.056 352.967,156.200 353.200 C 156.347 353.438,155.871 353.600,155.024 353.600 C 154.241 353.600,153.600 353.751,153.600 353.936 C 153.600 354.379,151.770 355.200,150.781 355.200 C 150.091 355.200,149.823 355.605,149.942 356.469 C 149.963 356.617,149.446 356.585,148.795 356.399 C 148.099 356.199,147.516 356.212,147.382 356.429 C 147.256 356.633,146.809 356.800,146.389 356.800 C 145.926 356.800,145.704 357.005,145.825 357.321 C 145.973 357.706,145.655 357.799,144.608 357.677 C 143.514 357.549,143.240 357.639,143.406 358.072 C 143.552 358.451,143.326 358.635,142.711 358.640 C 139.908 358.660,138.809 358.840,138.900 359.264 C 138.955 359.518,138.248 359.923,137.328 360.164 C 136.408 360.404,135.523 360.735,135.361 360.900 C 135.199 361.065,134.647 361.200,134.133 361.200 C 133.620 361.200,133.200 361.380,133.200 361.600 C 133.200 361.820,132.750 362.000,132.200 362.000 C 131.650 362.000,131.200 362.180,131.200 362.400 C 131.200 362.620,130.649 362.800,129.976 362.800 C 129.303 362.800,128.857 362.969,128.985 363.175 C 129.112 363.382,128.538 363.607,127.708 363.675 C 126.713 363.758,126.237 363.980,126.310 364.330 C 126.380 364.669,126.093 364.821,125.510 364.753 C 125.009 364.694,124.024 364.950,123.320 365.323 C 122.616 365.695,121.581 366.000,121.020 366.000 C 120.345 366.000,120.000 366.220,120.000 366.650 C 120.000 367.159,119.739 367.248,118.800 367.060 C 117.871 366.874,117.600 366.963,117.600 367.453 C 117.600 367.858,117.379 368.001,116.985 367.850 C 116.630 367.713,116.270 367.873,116.134 368.229 C 115.986 368.614,115.506 368.800,114.849 368.726 C 114.229 368.657,113.835 368.795,113.886 369.063 C 113.938 369.337,113.644 369.432,113.145 369.302 C 112.667 369.176,112.169 369.320,111.965 369.643 C 111.670 370.108,111.610 370.101,111.600 369.600 C 111.591 369.152,111.508 369.126,111.271 369.498 C 111.098 369.772,110.483 370.035,109.906 370.083 C 109.330 370.131,108.932 370.291,109.024 370.438 C 109.115 370.586,108.652 370.908,107.995 371.154 C 107.338 371.399,106.291 371.789,105.670 372.020 C 105.048 372.250,104.148 372.469,103.670 372.505 C 103.191 372.541,102.800 372.668,102.800 372.787 C 102.800 373.022,101.156 373.766,99.700 374.191 C 99.205 374.336,98.800 374.633,98.800 374.853 C 98.800 375.072,98.305 375.213,97.700 375.165 C 95.358 374.982,94.495 375.193,94.284 376.000 C 94.169 376.440,93.833 376.797,93.537 376.794 C 93.129 376.789,93.144 376.694,93.600 376.400 C 94.113 376.069,94.098 376.011,93.500 376.006 C 93.115 376.003,92.800 376.245,92.800 376.545 C 92.800 376.910,92.471 377.026,91.800 376.898 C 90.962 376.738,90.799 376.860,90.794 377.653 C 90.789 378.395,90.707 378.472,90.415 378.010 C 89.993 377.343,86.525 378.337,86.676 379.081 C 86.717 379.286,86.244 379.380,85.623 379.289 C 85.002 379.198,84.373 379.320,84.224 379.562 C 84.075 379.803,83.524 380.000,83.000 380.000 C 82.476 380.000,81.936 380.180,81.800 380.400 C 81.664 380.620,81.023 380.800,80.376 380.800 L 79.200 380.800 79.206 199.500 C 79.210 95.221,79.362 18.436,79.564 18.755 C 79.778 19.093,80.317 19.233,80.945 19.113 M165.173 175.239 C 163.321 175.694,162.400 176.095,162.400 176.447 C 162.400 176.641,162.040 176.800,161.600 176.800 C 161.160 176.800,160.800 176.950,160.800 177.132 C 160.800 177.315,160.344 177.709,159.786 178.007 C 159.201 178.320,158.861 178.781,158.981 179.096 C 159.097 179.396,159.013 179.532,158.795 179.397 C 158.578 179.263,158.400 179.463,158.400 179.843 C 158.400 180.223,158.291 180.424,158.158 180.291 C 157.750 179.883,156.067 181.843,156.135 182.646 C 156.171 183.061,155.975 183.355,155.700 183.300 C 155.425 183.245,155.200 183.470,155.200 183.800 C 155.200 184.130,155.020 184.400,154.800 184.400 C 154.580 184.400,154.400 184.670,154.400 185.000 C 154.400 185.330,154.259 185.600,154.087 185.600 C 153.915 185.600,153.734 186.095,153.684 186.700 C 153.634 187.305,153.415 187.860,153.197 187.933 C 152.978 188.007,152.800 188.412,152.800 188.833 C 152.800 189.255,152.620 189.600,152.400 189.600 C 152.180 189.600,152.000 190.464,152.000 191.520 C 152.000 192.576,151.815 193.625,151.589 193.851 C 151.043 194.397,151.246 206.226,151.800 206.133 C 152.032 206.094,152.174 206.976,152.137 208.233 C 152.103 209.425,152.238 210.400,152.437 210.400 C 152.637 210.400,152.800 210.745,152.800 211.167 C 152.800 211.588,152.978 211.993,153.197 212.067 C 153.415 212.140,153.634 212.699,153.685 213.309 C 153.745 214.046,153.955 214.349,154.309 214.214 C 154.602 214.101,154.740 214.174,154.616 214.375 C 154.267 214.939,155.257 216.800,155.907 216.800 C 156.264 216.800,156.395 217.036,156.249 217.418 C 156.098 217.809,156.522 218.504,157.406 219.315 C 158.173 220.019,158.800 220.840,158.800 221.140 C 158.800 221.469,159.047 221.591,159.421 221.447 C 159.777 221.311,159.937 221.378,159.797 221.605 C 159.663 221.822,159.844 222.000,160.200 222.000 C 160.556 222.000,160.736 222.180,160.600 222.400 C 160.367 222.777,160.511 222.836,162.000 222.980 C 162.330 223.011,162.561 223.235,162.514 223.478 C 162.462 223.740,162.771 223.828,163.276 223.696 C 163.829 223.552,164.031 223.626,163.856 223.909 C 163.120 225.100,174.951 225.428,175.820 224.241 C 176.077 223.888,176.594 223.600,176.968 223.600 C 177.341 223.600,177.547 223.438,177.424 223.239 C 177.172 222.832,179.403 221.936,179.766 222.299 C 179.895 222.428,180.000 222.277,180.000 221.963 C 180.000 221.649,180.626 220.854,181.391 220.196 C 182.191 219.509,182.786 218.623,182.791 218.113 C 182.798 217.449,182.969 217.290,183.469 217.482 C 183.973 217.675,184.076 217.576,183.887 217.082 C 183.748 216.721,183.835 216.302,184.079 216.151 C 184.348 215.985,184.411 216.059,184.238 216.338 C 184.081 216.592,184.132 216.800,184.352 216.800 C 184.571 216.800,184.871 216.003,185.017 215.028 C 185.202 213.791,185.442 213.318,185.812 213.460 C 186.172 213.598,186.278 213.420,186.143 212.904 C 186.034 212.486,186.227 211.910,186.572 211.623 C 186.917 211.337,187.200 210.584,187.200 209.951 C 187.200 209.318,187.380 208.800,187.600 208.800 C 187.820 208.800,188.000 208.069,188.000 207.176 C 188.000 206.261,188.165 205.655,188.377 205.786 C 188.607 205.928,188.754 203.668,188.754 200.000 C 188.754 196.332,188.607 194.072,188.377 194.214 C 188.164 194.346,188.000 193.730,188.000 192.800 C 188.000 191.804,187.842 191.250,187.600 191.400 C 187.358 191.549,187.200 191.000,187.200 190.011 C 187.200 188.912,186.999 188.298,186.588 188.140 C 186.202 187.992,186.064 187.628,186.215 187.153 C 186.382 186.625,186.258 186.400,185.800 186.400 C 185.313 186.400,185.216 186.181,185.419 185.539 C 185.628 184.883,185.553 184.732,185.105 184.904 C 184.679 185.068,184.546 184.877,184.619 184.211 C 184.688 183.582,184.409 183.126,183.734 182.765 C 183.085 182.417,182.813 181.992,182.938 181.517 C 183.072 181.004,182.841 180.725,182.134 180.548 C 181.588 180.411,180.975 179.861,180.772 179.325 C 180.568 178.790,180.217 178.466,179.991 178.606 C 179.765 178.745,179.630 178.621,179.690 178.330 C 179.756 178.014,179.452 177.811,178.940 177.827 C 178.347 177.846,178.150 177.675,178.304 177.273 C 178.444 176.908,178.330 176.757,178.000 176.867 C 177.709 176.964,177.024 176.628,176.477 176.121 C 175.931 175.615,175.194 175.190,174.842 175.178 C 170.332 175.020,165.953 175.048,165.173 175.239 M165.200 175.888 C 164.650 175.987,164.029 176.232,163.820 176.434 C 163.611 176.635,163.262 176.800,163.044 176.800 C 162.825 176.800,162.996 176.536,163.424 176.213 C 163.851 175.890,164.650 175.644,165.200 175.667 L 166.200 175.709 165.200 175.888 M170.739 191.947 C 171.212 192.358,171.600 193.153,171.600 193.714 C 171.600 194.274,171.770 194.793,171.979 194.867 C 172.187 194.940,172.400 195.855,172.453 196.900 C 172.506 197.945,172.696 198.800,172.875 198.800 C 173.343 198.800,173.277 201.105,172.800 201.400 C 172.580 201.536,172.400 202.278,172.400 203.048 C 172.400 205.283,171.257 208.292,170.314 208.538 C 169.328 208.796,168.400 207.967,168.400 206.829 C 168.400 206.373,168.220 206.000,168.000 206.000 C 167.780 206.000,167.600 205.449,167.600 204.776 C 167.600 204.063,167.433 203.656,167.200 203.800 C 166.944 203.958,166.800 202.679,166.800 200.247 C 166.800 198.145,166.979 196.337,167.200 196.200 C 167.420 196.064,167.600 195.513,167.600 194.976 C 167.600 194.439,167.810 194.000,168.067 194.000 C 168.323 194.000,168.418 193.885,168.277 193.744 C 168.002 193.469,169.204 191.200,169.625 191.200 C 169.764 191.200,170.265 191.536,170.739 191.947 M173.876 200.700 C 173.775 201.085,173.693 200.770,173.693 200.000 C 173.693 199.230,173.775 198.915,173.876 199.300 C 173.976 199.685,173.976 200.315,173.876 200.700 " stroke="none" fill="#acacac" fill-rule="evenodd"></path><path id="path1" d="M336.198 200.000 C 336.198 307.690,336.244 351.745,336.300 297.900 C 336.356 244.055,336.356 155.945,336.300 102.100 C 336.244 48.255,336.198 92.310,336.198 200.000 M120.600 17.067 C 121.040 17.163,121.787 17.433,122.261 17.667 C 122.734 17.901,123.364 17.996,123.661 17.878 C 123.965 17.757,123.808 17.649,123.300 17.632 C 122.805 17.614,122.400 17.420,122.400 17.200 C 122.400 16.980,121.815 16.821,121.100 16.846 C 120.314 16.874,120.117 16.962,120.600 17.067 M138.000 23.607 C 137.067 23.912,137.085 23.931,138.272 23.884 C 138.972 23.857,139.456 23.691,139.349 23.517 C 139.241 23.343,139.118 23.218,139.076 23.240 C 139.034 23.262,138.550 23.427,138.000 23.607 M93.823 24.167 C 94.661 24.780,95.040 24.713,94.616 24.027 C 94.471 23.792,94.059 23.600,93.700 23.600 C 93.154 23.600,93.174 23.693,93.823 24.167 M141.600 25.061 C 141.930 25.170,142.587 25.446,143.061 25.676 C 143.534 25.905,144.164 25.996,144.461 25.878 C 144.771 25.754,144.628 25.650,144.124 25.632 C 143.642 25.614,143.136 25.420,143.000 25.200 C 142.864 24.980,142.358 24.814,141.876 24.832 C 141.323 24.852,141.221 24.936,141.600 25.061 M126.999 36.280 C 127.658 36.386,128.347 36.681,128.529 36.936 C 128.753 37.249,128.809 37.205,128.700 36.800 C 128.600 36.431,128.012 36.178,127.169 36.144 C 125.915 36.092,125.901 36.103,126.999 36.280 M196.700 45.082 C 197.195 45.178,197.600 45.423,197.600 45.628 C 197.600 45.833,198.095 45.975,198.700 45.946 C 199.643 45.899,199.672 45.866,198.900 45.718 C 198.405 45.622,198.000 45.377,198.000 45.172 C 198.000 44.967,197.505 44.825,196.900 44.854 C 195.957 44.901,195.928 44.934,196.700 45.082 M154.400 46.153 C 154.400 46.238,154.850 46.393,155.400 46.498 C 155.950 46.603,156.400 46.534,156.400 46.345 C 156.400 46.155,155.950 46.000,155.400 46.000 C 154.850 46.000,154.400 46.069,154.400 46.153 M200.000 46.451 C 200.000 46.643,200.525 46.800,201.167 46.800 C 201.808 46.800,202.425 46.984,202.537 47.210 C 202.649 47.436,202.695 47.395,202.640 47.120 C 202.527 46.553,200.000 45.912,200.000 46.451 M158.900 47.876 C 159.285 47.976,159.915 47.976,160.300 47.876 C 160.685 47.775,160.370 47.693,159.600 47.693 C 158.830 47.693,158.515 47.775,158.900 47.876 M208.198 200.000 C 208.198 280.630,208.244 313.615,208.300 273.300 C 208.356 232.985,208.356 167.015,208.300 126.700 C 208.244 86.385,208.198 119.370,208.198 200.000 M177.018 54.771 C 176.929 54.916,177.383 55.074,178.028 55.123 C 178.672 55.173,179.200 55.141,179.200 55.053 C 179.200 54.763,177.184 54.502,177.018 54.771 M185.633 58.143 C 186.050 58.502,188.797 58.719,188.585 58.376 C 188.457 58.169,187.703 58.000,186.910 58.000 C 186.116 58.000,185.542 58.065,185.633 58.143 M190.899 59.476 C 191.563 59.649,191.604 66.776,191.700 200.129 L 191.801 340.600 191.901 199.900 L 192.000 59.200 191.100 59.246 C 190.424 59.281,190.374 59.338,190.899 59.476 M168.300 175.093 C 169.235 175.177,170.765 175.177,171.700 175.093 C 172.635 175.009,171.870 174.940,170.000 174.940 C 168.130 174.940,167.365 175.009,168.300 175.093 M163.424 176.213 C 162.996 176.536,162.825 176.800,163.044 176.800 C 163.262 176.800,163.611 176.635,163.820 176.434 C 164.029 176.232,164.650 175.987,165.200 175.888 L 166.200 175.709 165.200 175.667 C 164.650 175.644,163.851 175.890,163.424 176.213 M176.400 176.444 C 175.887 176.813,175.898 176.844,176.474 176.660 C 176.845 176.542,177.236 176.660,177.343 176.922 C 177.449 177.185,177.551 177.085,177.568 176.700 C 177.605 175.900,177.261 175.825,176.400 176.444 M173.693 200.000 C 173.693 200.770,173.775 201.085,173.876 200.700 C 173.976 200.315,173.976 199.685,173.876 199.300 C 173.775 198.915,173.693 199.230,173.693 200.000 M186.419 211.777 C 186.147 212.105,186.017 212.604,186.131 212.887 C 186.266 213.223,186.348 213.170,186.368 212.733 C 186.386 212.367,186.625 211.986,186.900 211.888 C 187.175 211.790,187.291 211.591,187.157 211.445 C 187.023 211.300,186.691 211.449,186.419 211.777 M162.000 223.264 C 162.000 223.596,162.450 223.849,163.100 223.883 C 163.705 223.915,163.930 223.840,163.600 223.717 C 163.270 223.593,162.775 223.315,162.500 223.097 C 162.150 222.820,162.000 222.870,162.000 223.264 M168.300 225.093 C 169.235 225.177,170.765 225.177,171.700 225.093 C 172.635 225.009,171.870 224.940,170.000 224.940 C 168.130 224.940,167.365 225.009,168.300 225.093 M187.400 341.467 C 186.960 341.563,186.240 341.803,185.800 342.000 C 185.360 342.197,184.640 342.437,184.200 342.533 C 183.605 342.662,183.676 342.719,184.476 342.754 C 185.068 342.779,185.664 342.620,185.800 342.400 C 185.936 342.180,186.476 342.000,187.000 342.000 C 187.524 342.000,188.064 341.820,188.200 341.600 C 188.336 341.380,188.392 341.221,188.324 341.246 C 188.256 341.272,187.840 341.371,187.400 341.467 M179.200 344.400 C 179.200 344.620,178.630 344.800,177.933 344.800 C 176.389 344.800,176.742 345.314,178.320 345.364 C 179.120 345.390,179.460 345.198,179.498 344.700 C 179.527 344.315,179.471 344.000,179.375 344.000 C 179.279 344.000,179.200 344.180,179.200 344.400 M149.600 355.572 C 149.600 355.777,149.195 356.007,148.700 356.084 C 147.839 356.218,147.844 356.233,148.820 356.441 C 149.609 356.609,149.853 356.493,149.895 355.929 C 149.926 355.528,149.871 355.200,149.775 355.200 C 149.679 355.200,149.600 355.367,149.600 355.572 M189.773 357.568 C 189.568 357.763,189.040 358.009,188.600 358.115 L 187.800 358.307 188.600 358.347 C 189.491 358.392,190.697 357.763,190.362 357.428 C 190.243 357.310,189.979 357.373,189.773 357.568 M139.051 376.083 C 139.159 376.257,138.652 376.427,137.924 376.460 C 136.721 376.514,136.700 376.535,137.695 376.686 C 138.297 376.777,139.179 376.580,139.655 376.246 C 140.513 375.645,140.513 375.641,139.688 375.703 C 139.230 375.738,138.944 375.909,139.051 376.083 M123.400 382.009 C 122.740 382.189,121.660 382.530,121.000 382.766 L 119.800 383.197 121.000 382.970 C 121.660 382.845,122.785 382.646,123.500 382.528 C 124.215 382.409,124.800 382.152,124.800 381.956 C 124.800 381.760,124.755 381.618,124.700 381.641 C 124.645 381.663,124.060 381.829,123.400 382.009 " stroke="none" fill="#b0acac" fill-rule="evenodd"></path><path id="path2" d="M336.198 200.000 C 336.198 307.690,336.244 351.745,336.300 297.900 C 336.356 244.055,336.356 155.945,336.300 102.100 C 336.244 48.255,336.198 92.310,336.198 200.000 M120.600 17.067 C 121.040 17.163,121.787 17.433,122.261 17.667 C 122.734 17.901,123.364 17.996,123.661 17.878 C 123.965 17.757,123.808 17.649,123.300 17.632 C 122.805 17.614,122.400 17.420,122.400 17.200 C 122.400 16.980,121.815 16.821,121.100 16.846 C 120.314 16.874,120.117 16.962,120.600 17.067 M138.000 23.607 C 137.067 23.912,137.085 23.931,138.272 23.884 C 138.972 23.857,139.456 23.691,139.349 23.517 C 139.241 23.343,139.118 23.218,139.076 23.240 C 139.034 23.262,138.550 23.427,138.000 23.607 M93.823 24.167 C 94.661 24.780,95.040 24.713,94.616 24.027 C 94.471 23.792,94.059 23.600,93.700 23.600 C 93.154 23.600,93.174 23.693,93.823 24.167 M141.600 25.061 C 141.930 25.170,142.587 25.446,143.061 25.676 C 143.534 25.905,144.164 25.996,144.461 25.878 C 144.771 25.754,144.628 25.650,144.124 25.632 C 143.642 25.614,143.136 25.420,143.000 25.200 C 142.864 24.980,142.358 24.814,141.876 24.832 C 141.323 24.852,141.221 24.936,141.600 25.061 M126.999 36.280 C 127.658 36.386,128.347 36.681,128.529 36.936 C 128.753 37.249,128.809 37.205,128.700 36.800 C 128.600 36.431,128.012 36.178,127.169 36.144 C 125.915 36.092,125.901 36.103,126.999 36.280 M196.700 45.082 C 197.195 45.178,197.600 45.423,197.600 45.628 C 197.600 45.833,198.095 45.975,198.700 45.946 C 199.643 45.899,199.672 45.866,198.900 45.718 C 198.405 45.622,198.000 45.377,198.000 45.172 C 198.000 44.967,197.505 44.825,196.900 44.854 C 195.957 44.901,195.928 44.934,196.700 45.082 M154.400 46.153 C 154.400 46.238,154.850 46.393,155.400 46.498 C 155.950 46.603,156.400 46.534,156.400 46.345 C 156.400 46.155,155.950 46.000,155.400 46.000 C 154.850 46.000,154.400 46.069,154.400 46.153 M200.000 46.451 C 200.000 46.643,200.525 46.800,201.167 46.800 C 201.808 46.800,202.425 46.984,202.537 47.210 C 202.649 47.436,202.695 47.395,202.640 47.120 C 202.527 46.553,200.000 45.912,200.000 46.451 M158.900 47.876 C 159.285 47.976,159.915 47.976,160.300 47.876 C 160.685 47.775,160.370 47.693,159.600 47.693 C 158.830 47.693,158.515 47.775,158.900 47.876 M208.198 200.000 C 208.198 280.630,208.244 313.615,208.300 273.300 C 208.356 232.985,208.356 167.015,208.300 126.700 C 208.244 86.385,208.198 119.370,208.198 200.000 M177.018 54.771 C 176.929 54.916,177.383 55.074,178.028 55.123 C 178.672 55.173,179.200 55.141,179.200 55.053 C 179.200 54.763,177.184 54.502,177.018 54.771 M185.633 58.143 C 186.050 58.502,188.797 58.719,188.585 58.376 C 188.457 58.169,187.703 58.000,186.910 58.000 C 186.116 58.000,185.542 58.065,185.633 58.143 M190.899 59.476 C 191.563 59.649,191.604 66.776,191.700 200.129 L 191.801 340.600 191.901 199.900 L 192.000 59.200 191.100 59.246 C 190.424 59.281,190.374 59.338,190.899 59.476 M168.300 175.093 C 169.235 175.177,170.765 175.177,171.700 175.093 C 172.635 175.009,171.870 174.940,170.000 174.940 C 168.130 174.940,167.365 175.009,168.300 175.093 M163.424 176.213 C 162.996 176.536,162.825 176.800,163.044 176.800 C 163.262 176.800,163.611 176.635,163.820 176.434 C 164.029 176.232,164.650 175.987,165.200 175.888 L 166.200 175.709 165.200 175.667 C 164.650 175.644,163.851 175.890,163.424 176.213 M176.400 176.444 C 175.887 176.813,175.898 176.844,176.474 176.660 C 176.845 176.542,177.236 176.660,177.343 176.922 C 177.449 177.185,177.551 177.085,177.568 176.700 C 177.605 175.900,177.261 175.825,176.400 176.444 M173.693 200.000 C 173.693 200.770,173.775 201.085,173.876 200.700 C 173.976 200.315,173.976 199.685,173.876 199.300 C 173.775 198.915,173.693 199.230,173.693 200.000 M186.419 211.777 C 186.147 212.105,186.017 212.604,186.131 212.887 C 186.266 213.223,186.348 213.170,186.368 212.733 C 186.386 212.367,186.625 211.986,186.900 211.888 C 187.175 211.790,187.291 211.591,187.157 211.445 C 187.023 211.300,186.691 211.449,186.419 211.777 M162.000 223.264 C 162.000 223.596,162.450 223.849,163.100 223.883 C 163.705 223.915,163.930 223.840,163.600 223.717 C 163.270 223.593,162.775 223.315,162.500 223.097 C 162.150 222.820,162.000 222.870,162.000 223.264 M168.300 225.093 C 169.235 225.177,170.765 225.177,171.700 225.093 C 172.635 225.009,171.870 224.940,170.000 224.940 C 168.130 224.940,167.365 225.009,168.300 225.093 M187.400 341.467 C 186.960 341.563,186.240 341.803,185.800 342.000 C 185.360 342.197,184.640 342.437,184.200 342.533 C 183.605 342.662,183.676 342.719,184.476 342.754 C 185.068 342.779,185.664 342.620,185.800 342.400 C 185.936 342.180,186.476 342.000,187.000 342.000 C 187.524 342.000,188.064 341.820,188.200 341.600 C 188.336 341.380,188.392 341.221,188.324 341.246 C 188.256 341.272,187.840 341.371,187.400 341.467 M179.200 344.400 C 179.200 344.620,178.630 344.800,177.933 344.800 C 176.389 344.800,176.742 345.314,178.320 345.364 C 179.120 345.390,179.460 345.198,179.498 344.700 C 179.527 344.315,179.471 344.000,179.375 344.000 C 179.279 344.000,179.200 344.180,179.200 344.400 M149.600 355.572 C 149.600 355.777,149.195 356.007,148.700 356.084 C 147.839 356.218,147.844 356.233,148.820 356.441 C 149.609 356.609,149.853 356.493,149.895 355.929 C 149.926 355.528,149.871 355.200,149.775 355.200 C 149.679 355.200,149.600 355.367,149.600 355.572 M189.773 357.568 C 189.568 357.763,189.040 358.009,188.600 358.115 L 187.800 358.307 188.600 358.347 C 189.491 358.392,190.697 357.763,190.362 357.428 C 190.243 357.310,189.979 357.373,189.773 357.568 M139.051 376.083 C 139.159 376.257,138.652 376.427,137.924 376.460 C 136.721 376.514,136.700 376.535,137.695 376.686 C 138.297 376.777,139.179 376.580,139.655 376.246 C 140.513 375.645,140.513 375.641,139.688 375.703 C 139.230 375.738,138.944 375.909,139.051 376.083 M123.400 382.009 C 122.740 382.189,121.660 382.530,121.000 382.766 L 119.800 383.197 121.000 382.970 C 121.660 382.845,122.785 382.646,123.500 382.528 C 124.215 382.409,124.800 382.152,124.800 381.956 C 124.800 381.760,124.755 381.618,124.700 381.641 C 124.645 381.663,124.060 381.829,123.400 382.009 " stroke="none" fill="#b0acac" fill-rule="evenodd"></path><path id="path3" d="M336.198 200.000 C 336.198 307.690,336.244 351.745,336.300 297.900 C 336.356 244.055,336.356 155.945,336.300 102.100 C 336.244 48.255,336.198 92.310,336.198 200.000 M120.600 17.067 C 121.040 17.163,121.787 17.433,122.261 17.667 C 122.734 17.901,123.364 17.996,123.661 17.878 C 123.965 17.757,123.808 17.649,123.300 17.632 C 122.805 17.614,122.400 17.420,122.400 17.200 C 122.400 16.980,121.815 16.821,121.100 16.846 C 120.314 16.874,120.117 16.962,120.600 17.067 M138.000 23.607 C 137.067 23.912,137.085 23.931,138.272 23.884 C 138.972 23.857,139.456 23.691,139.349 23.517 C 139.241 23.343,139.118 23.218,139.076 23.240 C 139.034 23.262,138.550 23.427,138.000 23.607 M93.823 24.167 C 94.661 24.780,95.040 24.713,94.616 24.027 C 94.471 23.792,94.059 23.600,93.700 23.600 C 93.154 23.600,93.174 23.693,93.823 24.167 M141.600 25.061 C 141.930 25.170,142.587 25.446,143.061 25.676 C 143.534 25.905,144.164 25.996,144.461 25.878 C 144.771 25.754,144.628 25.650,144.124 25.632 C 143.642 25.614,143.136 25.420,143.000 25.200 C 142.864 24.980,142.358 24.814,141.876 24.832 C 141.323 24.852,141.221 24.936,141.600 25.061 M126.999 36.280 C 127.658 36.386,128.347 36.681,128.529 36.936 C 128.753 37.249,128.809 37.205,128.700 36.800 C 128.600 36.431,128.012 36.178,127.169 36.144 C 125.915 36.092,125.901 36.103,126.999 36.280 M196.700 45.082 C 197.195 45.178,197.600 45.423,197.600 45.628 C 197.600 45.833,198.095 45.975,198.700 45.946 C 199.643 45.899,199.672 45.866,198.900 45.718 C 198.405 45.622,198.000 45.377,198.000 45.172 C 198.000 44.967,197.505 44.825,196.900 44.854 C 195.957 44.901,195.928 44.934,196.700 45.082 M154.400 46.153 C 154.400 46.238,154.850 46.393,155.400 46.498 C 155.950 46.603,156.400 46.534,156.400 46.345 C 156.400 46.155,155.950 46.000,155.400 46.000 C 154.850 46.000,154.400 46.069,154.400 46.153 M200.000 46.451 C 200.000 46.643,200.525 46.800,201.167 46.800 C 201.808 46.800,202.425 46.984,202.537 47.210 C 202.649 47.436,202.695 47.395,202.640 47.120 C 202.527 46.553,200.000 45.912,200.000 46.451 M158.900 47.876 C 159.285 47.976,159.915 47.976,160.300 47.876 C 160.685 47.775,160.370 47.693,159.600 47.693 C 158.830 47.693,158.515 47.775,158.900 47.876 M208.198 200.000 C 208.198 280.630,208.244 313.615,208.300 273.300 C 208.356 232.985,208.356 167.015,208.300 126.700 C 208.244 86.385,208.198 119.370,208.198 200.000 M177.018 54.771 C 176.929 54.916,177.383 55.074,178.028 55.123 C 178.672 55.173,179.200 55.141,179.200 55.053 C 179.200 54.763,177.184 54.502,177.018 54.771 M185.633 58.143 C 186.050 58.502,188.797 58.719,188.585 58.376 C 188.457 58.169,187.703 58.000,186.910 58.000 C 186.116 58.000,185.542 58.065,185.633 58.143 M190.899 59.476 C 191.563 59.649,191.604 66.776,191.700 200.129 L 191.801 340.600 191.901 199.900 L 192.000 59.200 191.100 59.246 C 190.424 59.281,190.374 59.338,190.899 59.476 M168.300 175.093 C 169.235 175.177,170.765 175.177,171.700 175.093 C 172.635 175.009,171.870 174.940,170.000 174.940 C 168.130 174.940,167.365 175.009,168.300 175.093 M163.424 176.213 C 162.996 176.536,162.825 176.800,163.044 176.800 C 163.262 176.800,163.611 176.635,163.820 176.434 C 164.029 176.232,164.650 175.987,165.200 175.888 L 166.200 175.709 165.200 175.667 C 164.650 175.644,163.851 175.890,163.424 176.213 M176.400 176.444 C 175.887 176.813,175.898 176.844,176.474 176.660 C 176.845 176.542,177.236 176.660,177.343 176.922 C 177.449 177.185,177.551 177.085,177.568 176.700 C 177.605 175.900,177.261 175.825,176.400 176.444 M173.693 200.000 C 173.693 200.770,173.775 201.085,173.876 200.700 C 173.976 200.315,173.976 199.685,173.876 199.300 C 173.775 198.915,173.693 199.230,173.693 200.000 M186.419 211.777 C 186.147 212.105,186.017 212.604,186.131 212.887 C 186.266 213.223,186.348 213.170,186.368 212.733 C 186.386 212.367,186.625 211.986,186.900 211.888 C 187.175 211.790,187.291 211.591,187.157 211.445 C 187.023 211.300,186.691 211.449,186.419 211.777 M162.000 223.264 C 162.000 223.596,162.450 223.849,163.100 223.883 C 163.705 223.915,163.930 223.840,163.600 223.717 C 163.270 223.593,162.775 223.315,162.500 223.097 C 162.150 222.820,162.000 222.870,162.000 223.264 M168.300 225.093 C 169.235 225.177,170.765 225.177,171.700 225.093 C 172.635 225.009,171.870 224.940,170.000 224.940 C 168.130 224.940,167.365 225.009,168.300 225.093 M187.400 341.467 C 186.960 341.563,186.240 341.803,185.800 342.000 C 185.360 342.197,184.640 342.437,184.200 342.533 C 183.605 342.662,183.676 342.719,184.476 342.754 C 185.068 342.779,185.664 342.620,185.800 342.400 C 185.936 342.180,186.476 342.000,187.000 342.000 C 187.524 342.000,188.064 341.820,188.200 341.600 C 188.336 341.380,188.392 341.221,188.324 341.246 C 188.256 341.272,187.840 341.371,187.400 341.467 M179.200 344.400 C 179.200 344.620,178.630 344.800,177.933 344.800 C 176.389 344.800,176.742 345.314,178.320 345.364 C 179.120 345.390,179.460 345.198,179.498 344.700 C 179.527 344.315,179.471 344.000,179.375 344.000 C 179.279 344.000,179.200 344.180,179.200 344.400 M149.600 355.572 C 149.600 355.777,149.195 356.007,148.700 356.084 C 147.839 356.218,147.844 356.233,148.820 356.441 C 149.609 356.609,149.853 356.493,149.895 355.929 C 149.926 355.528,149.871 355.200,149.775 355.200 C 149.679 355.200,149.600 355.367,149.600 355.572 M189.773 357.568 C 189.568 357.763,189.040 358.009,188.600 358.115 L 187.800 358.307 188.600 358.347 C 189.491 358.392,190.697 357.763,190.362 357.428 C 190.243 357.310,189.979 357.373,189.773 357.568 M139.051 376.083 C 139.159 376.257,138.652 376.427,137.924 376.460 C 136.721 376.514,136.700 376.535,137.695 376.686 C 138.297 376.777,139.179 376.580,139.655 376.246 C 140.513 375.645,140.513 375.641,139.688 375.703 C 139.230 375.738,138.944 375.909,139.051 376.083 M123.400 382.009 C 122.740 382.189,121.660 382.530,121.000 382.766 L 119.800 383.197 121.000 382.970 C 121.660 382.845,122.785 382.646,123.500 382.528 C 124.215 382.409,124.800 382.152,124.800 381.956 C 124.800 381.760,124.755 381.618,124.700 381.641 C 124.645 381.663,124.060 381.829,123.400 382.009 " stroke="none" fill="#b0acac" fill-rule="evenodd"></path><path id="path4" d="M336.198 200.000 C 336.198 307.690,336.244 351.745,336.300 297.900 C 336.356 244.055,336.356 155.945,336.300 102.100 C 336.244 48.255,336.198 92.310,336.198 200.000 M120.600 17.067 C 121.040 17.163,121.787 17.433,122.261 17.667 C 122.734 17.901,123.364 17.996,123.661 17.878 C 123.965 17.757,123.808 17.649,123.300 17.632 C 122.805 17.614,122.400 17.420,122.400 17.200 C 122.400 16.980,121.815 16.821,121.100 16.846 C 120.314 16.874,120.117 16.962,120.600 17.067 M138.000 23.607 C 137.067 23.912,137.085 23.931,138.272 23.884 C 138.972 23.857,139.456 23.691,139.349 23.517 C 139.241 23.343,139.118 23.218,139.076 23.240 C 139.034 23.262,138.550 23.427,138.000 23.607 M93.823 24.167 C 94.661 24.780,95.040 24.713,94.616 24.027 C 94.471 23.792,94.059 23.600,93.700 23.600 C 93.154 23.600,93.174 23.693,93.823 24.167 M141.600 25.061 C 141.930 25.170,142.587 25.446,143.061 25.676 C 143.534 25.905,144.164 25.996,144.461 25.878 C 144.771 25.754,144.628 25.650,144.124 25.632 C 143.642 25.614,143.136 25.420,143.000 25.200 C 142.864 24.980,142.358 24.814,141.876 24.832 C 141.323 24.852,141.221 24.936,141.600 25.061 M126.999 36.280 C 127.658 36.386,128.347 36.681,128.529 36.936 C 128.753 37.249,128.809 37.205,128.700 36.800 C 128.600 36.431,128.012 36.178,127.169 36.144 C 125.915 36.092,125.901 36.103,126.999 36.280 M196.700 45.082 C 197.195 45.178,197.600 45.423,197.600 45.628 C 197.600 45.833,198.095 45.975,198.700 45.946 C 199.643 45.899,199.672 45.866,198.900 45.718 C 198.405 45.622,198.000 45.377,198.000 45.172 C 198.000 44.967,197.505 44.825,196.900 44.854 C 195.957 44.901,195.928 44.934,196.700 45.082 M154.400 46.153 C 154.400 46.238,154.850 46.393,155.400 46.498 C 155.950 46.603,156.400 46.534,156.400 46.345 C 156.400 46.155,155.950 46.000,155.400 46.000 C 154.850 46.000,154.400 46.069,154.400 46.153 M200.000 46.451 C 200.000 46.643,200.525 46.800,201.167 46.800 C 201.808 46.800,202.425 46.984,202.537 47.210 C 202.649 47.436,202.695 47.395,202.640 47.120 C 202.527 46.553,200.000 45.912,200.000 46.451 M158.900 47.876 C 159.285 47.976,159.915 47.976,160.300 47.876 C 160.685 47.775,160.370 47.693,159.600 47.693 C 158.830 47.693,158.515 47.775,158.900 47.876 M208.198 200.000 C 208.198 280.630,208.244 313.615,208.300 273.300 C 208.356 232.985,208.356 167.015,208.300 126.700 C 208.244 86.385,208.198 119.370,208.198 200.000 M177.018 54.771 C 176.929 54.916,177.383 55.074,178.028 55.123 C 178.672 55.173,179.200 55.141,179.200 55.053 C 179.200 54.763,177.184 54.502,177.018 54.771 M185.633 58.143 C 186.050 58.502,188.797 58.719,188.585 58.376 C 188.457 58.169,187.703 58.000,186.910 58.000 C 186.116 58.000,185.542 58.065,185.633 58.143 M190.899 59.476 C 191.563 59.649,191.604 66.776,191.700 200.129 L 191.801 340.600 191.901 199.900 L 192.000 59.200 191.100 59.246 C 190.424 59.281,190.374 59.338,190.899 59.476 M168.300 175.093 C 169.235 175.177,170.765 175.177,171.700 175.093 C 172.635 175.009,171.870 174.940,170.000 174.940 C 168.130 174.940,167.365 175.009,168.300 175.093 M163.424 176.213 C 162.996 176.536,162.825 176.800,163.044 176.800 C 163.262 176.800,163.611 176.635,163.820 176.434 C 164.029 176.232,164.650 175.987,165.200 175.888 L 166.200 175.709 165.200 175.667 C 164.650 175.644,163.851 175.890,163.424 176.213 M176.400 176.444 C 175.887 176.813,175.898 176.844,176.474 176.660 C 176.845 176.542,177.236 176.660,177.343 176.922 C 177.449 177.185,177.551 177.085,177.568 176.700 C 177.605 175.900,177.261 175.825,176.400 176.444 M173.693 200.000 C 173.693 200.770,173.775 201.085,173.876 200.700 C 173.976 200.315,173.976 199.685,173.876 199.300 C 173.775 198.915,173.693 199.230,173.693 200.000 M186.419 211.777 C 186.147 212.105,186.017 212.604,186.131 212.887 C 186.266 213.223,186.348 213.170,186.368 212.733 C 186.386 212.367,186.625 211.986,186.900 211.888 C 187.175 211.790,187.291 211.591,187.157 211.445 C 187.023 211.300,186.691 211.449,186.419 211.777 M162.000 223.264 C 162.000 223.596,162.450 223.849,163.100 223.883 C 163.705 223.915,163.930 223.840,163.600 223.717 C 163.270 223.593,162.775 223.315,162.500 223.097 C 162.150 222.820,162.000 222.870,162.000 223.264 M168.300 225.093 C 169.235 225.177,170.765 225.177,171.700 225.093 C 172.635 225.009,171.870 224.940,170.000 224.940 C 168.130 224.940,167.365 225.009,168.300 225.093 M187.400 341.467 C 186.960 341.563,186.240 341.803,185.800 342.000 C 185.360 342.197,184.640 342.437,184.200 342.533 C 183.605 342.662,183.676 342.719,184.476 342.754 C 185.068 342.779,185.664 342.620,185.800 342.400 C 185.936 342.180,186.476 342.000,187.000 342.000 C 187.524 342.000,188.064 341.820,188.200 341.600 C 188.336 341.380,188.392 341.221,188.324 341.246 C 188.256 341.272,187.840 341.371,187.400 341.467 M179.200 344.400 C 179.200 344.620,178.630 344.800,177.933 344.800 C 176.389 344.800,176.742 345.314,178.320 345.364 C 179.120 345.390,179.460 345.198,179.498 344.700 C 179.527 344.315,179.471 344.000,179.375 344.000 C 179.279 344.000,179.200 344.180,179.200 344.400 M149.600 355.572 C 149.600 355.777,149.195 356.007,148.700 356.084 C 147.839 356.218,147.844 356.233,148.820 356.441 C 149.609 356.609,149.853 356.493,149.895 355.929 C 149.926 355.528,149.871 355.200,149.775 355.200 C 149.679 355.200,149.600 355.367,149.600 355.572 M189.773 357.568 C 189.568 357.763,189.040 358.009,188.600 358.115 L 187.800 358.307 188.600 358.347 C 189.491 358.392,190.697 357.763,190.362 357.428 C 190.243 357.310,189.979 357.373,189.773 357.568 M139.051 376.083 C 139.159 376.257,138.652 376.427,137.924 376.460 C 136.721 376.514,136.700 376.535,137.695 376.686 C 138.297 376.777,139.179 376.580,139.655 376.246 C 140.513 375.645,140.513 375.641,139.688 375.703 C 139.230 375.738,138.944 375.909,139.051 376.083 M123.400 382.009 C 122.740 382.189,121.660 382.530,121.000 382.766 L 119.800 383.197 121.000 382.970 C 121.660 382.845,122.785 382.646,123.500 382.528 C 124.215 382.409,124.800 382.152,124.800 381.956 C 124.800 381.760,124.755 381.618,124.700 381.641 C 124.645 381.663,124.060 381.829,123.400 382.009 " stroke="none" fill="#b0acac" fill-rule="evenodd"></path></g></svg>