<svg id="svg" version="1.1" xmlns="http://www.w3.org/2000/svg" xmlns:xlink="http://www.w3.org/1999/xlink" width="400" height="400" viewBox="0, 0, 400,400"><g id="svgg"><path id="path0" d="M17.733 96.198 C 17.770 96.417,16.540 96.700,15.000 96.827 C 11.842 97.088,10.290 97.499,10.595 97.991 C 10.708 98.175,10.456 98.235,10.035 98.125 C 9.530 97.993,9.115 98.211,8.820 98.762 C 8.574 99.223,8.127 99.600,7.829 99.600 C 7.530 99.600,7.178 99.881,7.046 100.225 C 6.914 100.569,6.624 100.739,6.403 100.602 C 6.181 100.465,6.000 100.534,6.000 100.756 C 6.000 100.977,5.550 101.644,5.000 102.238 C 4.450 102.831,4.000 103.193,4.000 103.043 C 4.000 102.892,3.749 103.001,3.442 103.284 C 3.135 103.568,2.949 103.908,3.029 104.041 C 3.109 104.174,2.916 104.624,2.600 105.041 C 2.284 105.458,2.020 106.033,2.013 106.317 C 2.006 106.601,1.650 107.209,1.222 107.668 C -0.473 109.488,-0.581 139.384,1.099 142.000 C 1.593 142.770,1.998 143.633,1.999 143.918 C 2.001 144.669,3.933 146.488,4.413 146.192 C 4.637 146.054,4.770 146.179,4.710 146.470 C 4.649 146.762,4.838 146.951,5.130 146.890 C 5.421 146.830,5.552 146.954,5.421 147.166 C 5.290 147.377,5.502 147.736,5.892 147.963 C 6.281 148.190,6.452 148.381,6.271 148.388 C 5.363 148.421,9.001 150.983,9.972 150.993 C 10.318 150.997,10.555 151.225,10.500 151.500 C 10.442 151.791,10.809 152.000,11.376 152.000 C 11.913 152.000,12.475 152.197,12.624 152.438 C 12.773 152.679,13.491 152.807,14.219 152.722 C 14.948 152.637,15.468 152.691,15.374 152.842 C 15.088 153.304,16.359 153.600,18.631 153.600 L 20.796 153.600 20.916 225.900 C 21.044 302.628,20.969 299.941,23.025 301.848 C 23.765 302.534,24.258 303.209,24.119 303.348 C 23.980 303.487,24.627 303.600,25.557 303.600 C 26.582 303.600,27.150 303.757,27.000 304.000 C 26.837 304.263,30.796 304.400,38.576 304.400 C 46.192 304.400,50.400 304.258,50.400 304.000 C 50.400 303.780,50.897 303.600,51.504 303.600 C 52.120 303.600,53.073 303.169,53.661 302.624 C 54.240 302.087,54.852 301.772,55.021 301.924 C 55.190 302.076,55.206 301.986,55.056 301.725 C 54.906 301.463,55.012 301.103,55.292 300.925 C 56.193 300.349,56.800 298.852,56.800 297.205 C 56.800 296.322,56.963 295.600,57.163 295.600 C 57.363 295.600,57.528 294.295,57.529 292.700 C 57.530 291.105,57.682 289.830,57.866 289.868 C 58.050 289.905,58.140 288.780,58.066 287.368 C 57.974 285.604,58.078 284.800,58.397 284.800 C 58.722 284.800,58.823 283.891,58.732 281.799 C 58.652 279.977,58.757 278.799,59.000 278.800 C 59.237 278.801,59.345 277.826,59.265 276.402 C 59.167 274.667,59.277 273.945,59.665 273.798 C 60.056 273.648,60.164 272.895,60.066 270.997 C 59.960 268.951,60.053 268.400,60.503 268.400 C 60.933 268.400,61.095 267.733,61.159 265.700 C 61.206 264.215,61.378 262.952,61.541 262.894 C 61.704 262.835,61.765 261.658,61.677 260.277 C 61.553 258.322,61.659 257.649,62.159 257.234 C 62.634 256.840,62.800 255.985,62.800 253.927 C 62.800 252.032,62.938 251.238,63.235 251.421 C 63.536 251.608,63.628 250.819,63.535 248.840 C 63.428 246.590,63.512 246.032,63.933 246.195 C 64.353 246.357,64.438 245.807,64.333 243.599 C 64.236 241.554,64.335 240.798,64.700 240.799 C 65.057 240.800,65.202 239.911,65.206 237.700 C 65.210 235.551,65.331 234.784,65.600 235.200 C 65.869 235.616,65.990 234.849,65.994 232.700 C 65.997 230.904,66.168 229.600,66.400 229.600 C 66.626 229.600,66.800 228.459,66.800 226.976 C 66.800 225.533,66.952 224.447,67.137 224.561 C 67.323 224.676,67.514 223.567,67.561 222.097 C 67.609 220.627,67.830 219.205,68.052 218.937 C 68.275 218.669,68.414 217.253,68.361 215.790 C 68.304 214.236,68.441 213.021,68.690 212.866 C 69.114 212.601,69.429 210.432,69.845 204.900 C 69.965 203.305,70.229 202.000,70.432 202.000 C 70.634 202.000,70.800 200.920,70.800 199.600 C 70.800 197.950,70.956 197.198,71.300 197.194 C 71.674 197.189,71.666 197.103,71.266 196.850 C 70.841 196.580,70.868 196.460,71.399 196.256 C 73.022 195.633,328.400 195.975,328.400 196.600 C 328.400 196.930,328.580 197.200,328.800 197.200 C 329.022 197.200,329.200 198.259,329.200 199.576 C 329.200 200.883,329.380 202.064,329.600 202.200 C 329.820 202.336,330.000 203.686,330.000 205.200 C 330.000 206.714,330.180 208.064,330.400 208.200 C 330.620 208.336,330.800 209.322,330.800 210.391 C 330.800 212.626,331.115 213.700,331.670 213.357 C 331.907 213.210,332.022 214.190,331.966 215.897 C 331.917 217.425,331.983 218.849,332.114 219.062 C 332.246 219.274,332.392 220.652,332.439 222.124 C 332.487 223.596,332.678 224.800,332.863 224.800 C 333.048 224.800,333.200 225.790,333.200 227.000 C 333.200 228.210,333.352 229.200,333.537 229.200 C 333.722 229.200,333.923 230.415,333.982 231.900 C 334.042 233.385,334.101 234.825,334.112 235.100 C 334.124 235.375,334.283 235.600,334.467 235.600 C 334.650 235.600,334.800 236.669,334.800 237.976 C 334.800 239.283,334.980 240.464,335.200 240.600 C 335.420 240.736,335.600 242.097,335.600 243.624 C 335.600 245.631,335.738 246.372,336.100 246.300 C 336.457 246.229,336.614 246.976,336.648 248.915 C 336.674 250.408,336.838 251.758,337.012 251.915 C 337.186 252.072,337.181 251.930,337.000 251.600 C 336.819 251.270,336.808 251.123,336.975 251.272 C 337.142 251.422,337.337 252.772,337.408 254.272 C 337.642 259.177,338.229 262.954,338.712 262.653 C 338.870 262.555,338.939 263.641,338.865 265.067 C 338.756 267.144,338.863 267.758,339.404 268.153 C 339.941 268.546,340.050 269.152,339.939 271.124 C 339.863 272.487,339.935 273.601,340.100 273.601 C 340.265 273.600,340.400 274.860,340.400 276.400 C 340.400 278.499,340.537 279.200,340.946 279.200 C 341.512 279.200,342.329 288.743,341.832 289.548 C 341.707 289.750,341.894 290.027,342.249 290.163 C 342.774 290.365,342.862 290.888,342.727 293.005 C 342.598 295.036,342.683 295.600,343.120 295.600 C 343.541 295.600,343.643 296.090,343.539 297.600 C 343.462 298.700,343.513 299.600,343.651 299.600 C 343.790 299.600,344.127 300.140,344.400 300.800 C 344.673 301.460,345.028 302.000,345.187 302.000 C 345.347 302.000,345.909 302.375,346.437 302.832 C 347.101 303.408,347.795 303.618,348.687 303.514 C 349.493 303.420,350.052 303.558,350.176 303.882 C 350.332 304.289,352.815 304.400,361.811 304.400 C 369.333 304.400,373.163 304.263,373.000 304.000 C 372.855 303.765,373.298 303.595,374.076 303.589 C 375.007 303.581,375.747 303.224,376.567 302.389 C 377.208 301.735,377.879 301.200,378.057 301.200 C 378.234 301.200,378.272 300.660,378.140 300.000 C 377.952 299.061,378.041 298.800,378.550 298.800 C 379.148 298.800,379.200 292.949,379.200 226.200 L 379.200 153.600 381.700 153.553 C 383.075 153.527,384.335 153.527,384.500 153.553 C 384.665 153.579,384.800 153.420,384.800 153.200 C 384.800 152.980,385.340 152.800,386.000 152.800 C 386.660 152.800,387.200 152.620,387.200 152.400 C 387.200 152.180,387.547 152.000,387.971 152.000 C 388.396 152.000,389.016 151.727,389.350 151.393 C 389.684 151.059,390.102 150.808,390.279 150.836 C 391.040 150.955,392.400 150.261,392.400 149.753 C 392.400 149.449,392.552 149.200,392.739 149.200 C 393.306 149.200,394.800 147.740,394.800 147.186 C 394.800 146.901,394.902 146.768,395.026 146.893 C 395.321 147.188,397.097 145.491,396.902 145.100 C 396.820 144.935,397.053 144.800,397.419 144.800 C 397.877 144.800,398.005 144.591,397.829 144.132 C 397.688 143.765,397.718 143.360,397.896 143.232 C 400.559 141.318,401.171 108.576,398.569 107.183 C 398.034 106.897,397.642 106.379,397.698 106.031 C 397.754 105.684,397.601 105.436,397.357 105.481 C 397.109 105.526,396.962 105.130,397.022 104.581 C 397.093 103.935,396.928 103.600,396.541 103.600 C 396.218 103.600,396.040 103.459,396.147 103.287 C 396.253 103.114,395.777 102.529,395.089 101.987 C 394.401 101.444,393.564 100.685,393.230 100.300 C 392.896 99.915,392.202 99.600,391.687 99.600 C 391.173 99.600,390.851 99.440,390.972 99.245 C 391.272 98.761,390.135 97.869,389.622 98.186 C 389.390 98.330,389.299 98.208,389.414 97.909 C 389.548 97.559,389.258 97.346,388.573 97.290 C 387.999 97.242,387.331 97.081,387.090 96.932 C 386.849 96.783,385.711 96.705,384.561 96.758 C 383.177 96.822,382.357 96.677,382.135 96.327 C 381.711 95.659,17.621 95.530,17.733 96.198 M382.800 110.600 C 383.074 110.930,383.472 111.200,383.685 111.200 C 384.272 111.200,385.572 112.908,385.587 113.700 C 385.594 114.085,385.825 114.355,386.100 114.300 C 386.923 114.135,387.029 134.737,386.207 135.053 C 385.873 135.181,385.600 135.536,385.600 135.843 C 385.600 136.149,385.432 136.400,385.227 136.400 C 385.022 136.400,384.740 136.760,384.600 137.200 C 384.460 137.640,384.069 138.000,383.730 138.000 C 383.392 138.000,383.201 138.225,383.306 138.500 C 383.460 138.900,346.697 138.980,200.149 138.899 C 71.671 138.828,16.800 138.672,16.800 138.376 C 16.800 138.143,16.620 138.064,16.400 138.200 C 16.180 138.336,16.000 138.188,16.000 137.870 C 16.000 137.553,15.640 137.199,15.200 137.084 C 14.663 136.944,14.400 136.538,14.400 135.850 C 14.400 135.194,14.220 134.894,13.900 135.017 C 13.506 135.169,13.424 132.968,13.513 124.641 L 13.625 114.073 14.913 112.700 C 15.621 111.946,16.515 111.215,16.900 111.076 C 17.285 110.938,17.600 110.639,17.600 110.413 C 17.600 109.667,382.181 109.854,382.800 110.600 M323.842 156.097 L 323.884 158.600 323.611 156.000 L 323.338 153.400 323.269 155.876 C 323.231 157.238,323.380 158.464,323.600 158.600 C 323.820 158.736,324.000 159.998,324.000 161.404 C 324.000 163.329,324.158 164.048,324.639 164.318 C 325.142 164.599,325.248 165.198,325.139 167.134 C 325.042 168.840,325.153 169.651,325.500 169.784 C 325.866 169.924,326.000 171.426,326.000 175.387 C 326.000 178.729,326.153 180.800,326.400 180.800 C 326.620 180.800,326.800 181.070,326.800 181.400 C 326.800 181.932,312.444 182.000,200.000 182.000 C 73.467 182.000,73.200 181.998,73.200 181.200 C 73.200 180.760,73.335 180.400,73.500 180.401 C 73.665 180.401,73.738 179.308,73.663 177.972 C 73.554 176.044,73.666 175.440,74.202 175.048 C 74.741 174.654,74.850 174.050,74.739 172.076 C 74.663 170.713,74.690 169.599,74.800 169.600 C 74.910 169.601,75.000 168.386,75.000 166.901 C 75.000 165.322,75.166 164.228,75.400 164.267 C 75.636 164.306,75.800 163.156,75.800 161.467 C 75.800 159.777,75.964 158.628,76.200 158.668 C 76.444 158.709,76.550 157.695,76.471 156.068 L 76.342 153.400 200.071 153.497 L 323.800 153.594 323.842 156.097 M351.181 153.600 L 364.803 153.400 364.701 221.600 L 364.600 289.800 360.700 289.914 L 356.800 290.029 356.800 287.814 C 356.800 286.597,356.620 285.600,356.400 285.600 C 356.169 285.600,356.000 284.329,356.000 282.587 C 356.000 280.223,355.865 279.523,355.374 279.335 C 354.895 279.151,354.765 278.565,354.821 276.847 C 354.861 275.611,354.792 274.330,354.668 274.000 C 354.543 273.670,354.348 272.410,354.234 271.200 C 354.120 269.990,353.835 267.650,353.600 266.000 C 353.365 264.350,353.073 262.010,352.951 260.800 C 352.829 259.590,352.565 258.429,352.365 258.220 C 352.164 258.011,352.000 256.526,352.000 254.920 C 352.000 252.591,351.879 252.000,351.400 252.000 C 350.928 252.000,350.800 251.444,350.800 249.400 C 350.800 247.970,350.665 246.800,350.500 246.801 C 350.335 246.801,350.262 245.702,350.338 244.358 C 350.418 242.936,350.293 241.733,350.038 241.478 C 349.797 241.237,349.600 239.816,349.600 238.320 C 349.600 236.773,349.427 235.600,349.200 235.600 C 348.971 235.600,348.800 234.384,348.800 232.751 C 348.800 230.218,348.731 229.959,348.177 230.419 C 347.835 230.703,347.599 230.770,347.653 230.568 C 347.994 229.294,347.051 219.908,346.531 219.388 C 346.119 218.976,345.973 218.084,346.041 216.403 C 346.095 215.085,346.018 213.884,345.870 213.736 C 345.721 213.588,345.600 212.427,345.600 211.157 C 345.600 209.887,345.420 208.736,345.200 208.600 C 344.980 208.464,344.800 207.118,344.800 205.610 C 344.800 204.101,344.630 202.807,344.422 202.733 C 344.214 202.660,344.006 201.385,343.959 199.900 C 343.912 198.415,343.722 197.200,343.537 197.200 C 343.352 197.200,343.200 196.030,343.200 194.600 C 343.200 192.866,343.049 192.033,342.745 192.100 C 342.435 192.168,342.316 191.355,342.371 189.540 C 342.418 188.001,342.273 186.769,342.026 186.616 C 341.792 186.471,341.600 185.283,341.600 183.976 C 341.600 182.669,341.459 181.600,341.287 181.600 C 341.115 181.600,341.043 180.371,341.128 178.870 C 341.250 176.704,341.144 176.001,340.612 175.469 C 340.115 174.972,339.969 174.224,340.045 172.569 C 340.114 171.091,339.976 170.232,339.636 170.022 C 339.283 169.804,339.167 168.942,339.262 167.252 C 339.344 165.790,339.238 164.799,339.000 164.800 C 338.760 164.801,338.654 163.745,338.736 162.157 C 338.816 160.597,338.693 159.333,338.436 159.076 C 338.196 158.836,338.000 157.745,338.000 156.651 C 338.000 155.358,337.759 154.373,337.311 153.831 C 336.931 153.374,336.832 153.180,337.090 153.400 C 337.393 153.658,342.384 153.729,351.181 153.600 M61.816 156.500 C 61.678 158.095,61.529 160.615,61.483 162.100 C 61.431 163.779,61.230 164.800,60.951 164.800 C 60.658 164.800,60.404 166.586,60.217 169.970 C 60.014 173.644,59.779 175.199,59.408 175.342 C 59.034 175.485,58.802 177.088,58.594 180.971 C 58.433 183.977,58.132 186.400,57.919 186.400 C 57.697 186.400,57.590 187.583,57.667 189.201 C 57.764 191.246,57.665 192.002,57.300 192.001 C 56.953 192.000,56.800 192.773,56.800 194.533 C 56.800 195.927,56.687 197.180,56.548 197.319 C 56.409 197.457,56.274 198.792,56.248 200.285 C 56.218 202.009,56.040 202.971,55.762 202.921 C 55.488 202.871,55.293 203.840,55.240 205.521 C 55.194 206.994,54.986 208.260,54.778 208.333 C 54.570 208.407,54.400 209.611,54.400 211.010 C 54.400 212.408,54.220 213.664,54.000 213.800 C 53.780 213.936,53.600 215.307,53.600 216.847 C 53.600 218.612,53.452 219.556,53.200 219.400 C 52.948 219.244,52.800 220.169,52.800 221.896 C 52.800 223.405,52.603 224.837,52.362 225.078 C 52.107 225.333,51.982 226.537,52.062 227.963 C 52.155 229.606,52.058 230.356,51.767 230.243 C 51.528 230.151,51.324 230.284,51.312 230.538 C 51.301 230.792,51.242 232.208,51.183 233.685 C 51.124 235.162,50.923 236.276,50.737 236.161 C 50.552 236.047,50.400 237.223,50.400 238.776 C 50.400 240.540,50.237 241.600,49.966 241.600 C 49.685 241.600,49.579 242.506,49.666 244.168 C 49.748 245.731,49.644 246.709,49.400 246.668 C 49.176 246.630,48.953 247.745,48.894 249.200 C 48.836 250.630,48.593 252.182,48.354 252.648 C 48.115 253.115,47.983 254.512,48.060 255.753 C 48.154 257.267,48.057 257.955,47.764 257.842 C 47.293 257.661,47.024 260.446,47.009 265.667 C 47.004 267.353,46.910 268.727,46.800 268.719 C 45.942 268.659,45.813 269.058,45.934 271.399 C 46.041 273.476,45.950 274.000,45.483 274.000 C 44.918 274.000,44.885 275.276,45.361 278.688 C 45.429 279.176,45.367 279.503,45.223 279.414 C 44.447 278.934,44.077 280.293,43.756 284.800 L 43.400 289.800 39.300 289.914 L 35.200 290.028 35.200 221.814 L 35.200 153.600 48.633 153.600 L 62.066 153.600 61.816 156.500 M325.328 172.400 C 325.328 173.830,325.401 174.415,325.489 173.700 C 325.578 172.985,325.578 171.815,325.489 171.100 C 325.401 170.385,325.328 170.970,325.328 172.400 M326.689 178.900 C 326.601 179.615,326.528 179.030,326.528 177.600 C 326.528 176.170,326.601 175.585,326.689 176.300 C 326.778 177.015,326.778 178.185,326.689 178.900 M349.089 240.100 C 349.001 240.815,348.928 240.230,348.928 238.800 C 348.928 237.370,349.001 236.785,349.089 237.500 C 349.178 238.215,349.178 239.385,349.089 240.100 " stroke="none" fill="#acacac" fill-rule="evenodd"></path><path id="path1" d="M17.800 96.000 C 17.664 96.220,16.438 96.433,15.076 96.474 L 12.600 96.548 14.782 96.698 C 15.982 96.780,17.332 96.654,17.782 96.418 C 18.361 96.114,71.723 95.961,200.200 95.894 L 381.800 95.799 199.924 95.700 C 78.997 95.633,17.964 95.734,17.800 96.000 M382.101 96.000 C 382.218 96.433,382.867 96.611,384.431 96.640 L 386.600 96.680 384.608 96.514 C 383.512 96.423,382.463 96.135,382.277 95.874 C 382.042 95.545,381.988 95.583,382.101 96.000 M390.748 98.537 C 390.993 98.832,391.075 99.192,390.930 99.337 C 390.785 99.482,390.877 99.600,391.133 99.600 C 391.668 99.600,391.691 99.503,391.357 98.633 C 391.224 98.285,390.932 98.000,390.708 98.000 C 390.453 98.000,390.467 98.199,390.748 98.537 M199.900 110.300 C 321.100 110.367,382.400 110.535,382.400 110.800 C 382.400 111.020,382.602 111.200,382.849 111.200 C 383.159 111.200,383.144 111.015,382.800 110.600 C 382.358 110.068,361.623 110.011,199.851 110.100 L 17.400 110.199 199.900 110.300 M386.313 124.288 C 386.402 132.278,386.314 134.616,385.913 134.899 C 385.522 135.175,385.542 135.222,386.000 135.097 C 386.658 134.918,387.145 114.985,386.507 114.346 C 386.338 114.177,386.251 118.651,386.313 124.288 M76.476 155.676 C 76.434 157.148,76.220 158.464,76.000 158.600 C 75.780 158.736,75.633 159.962,75.674 161.324 L 75.748 163.800 75.882 161.600 C 75.955 160.390,76.202 159.033,76.430 158.584 C 76.658 158.136,76.779 156.696,76.698 155.384 L 76.551 153.000 76.476 155.676 M323.400 156.000 C 323.400 157.498,323.535 158.640,323.700 158.538 C 323.865 158.436,324.000 157.294,324.000 156.000 C 324.000 154.706,323.865 153.564,323.700 153.462 C 323.535 153.360,323.400 154.502,323.400 156.000 M364.499 221.286 L 364.400 289.571 360.500 289.702 L 356.600 289.833 360.513 289.916 C 363.339 289.977,364.478 289.861,364.615 289.500 C 364.720 289.225,364.759 258.400,364.702 221.000 L 364.598 153.000 364.499 221.286 M35.299 221.714 L 35.200 290.028 39.300 289.914 L 43.400 289.800 43.434 287.200 L 43.467 284.600 43.315 287.100 L 43.162 289.600 39.382 289.600 L 35.602 289.600 35.500 221.500 L 35.398 153.400 35.299 221.714 M74.965 164.548 C 74.849 164.849,74.813 166.064,74.884 167.248 L 75.013 169.400 75.207 166.699 C 75.401 163.981,75.352 163.539,74.965 164.548 M324.928 166.800 C 324.928 168.230,325.001 168.815,325.089 168.100 C 325.178 167.385,325.178 166.215,325.089 165.500 C 325.001 164.785,324.928 165.370,324.928 166.800 M339.328 167.600 C 339.328 169.030,339.401 169.615,339.489 168.900 C 339.578 168.185,339.578 167.015,339.489 166.300 C 339.401 165.585,339.328 166.170,339.328 167.600 M325.138 169.917 C 325.518 170.183,325.636 171.017,325.538 172.748 C 325.462 174.097,325.543 175.201,325.718 175.201 C 326.345 175.199,325.843 169.876,325.200 169.701 C 324.718 169.571,324.706 169.614,325.138 169.917 M59.654 172.700 C 59.711 175.498,59.879 175.187,60.086 171.900 C 60.152 170.855,60.069 170.000,59.903 170.000 C 59.736 170.000,59.625 171.215,59.654 172.700 M340.124 173.000 C 340.126 174.320,340.201 174.812,340.290 174.093 C 340.379 173.374,340.377 172.294,340.286 171.693 C 340.195 171.092,340.122 171.680,340.124 173.000 M73.728 177.600 C 73.728 179.030,73.801 179.615,73.889 178.900 C 73.978 178.185,73.978 177.015,73.889 176.300 C 73.801 175.585,73.728 176.170,73.728 177.600 M326.528 177.600 C 326.528 179.030,326.601 179.615,326.689 178.900 C 326.778 178.185,326.778 177.015,326.689 176.300 C 326.601 175.585,326.528 176.170,326.528 177.600 M136.500 181.900 C 171.425 181.956,228.575 181.956,263.500 181.900 C 298.425 181.844,269.850 181.798,200.000 181.798 C 130.150 181.798,101.575 181.844,136.500 181.900 M71.338 196.306 C 70.924 196.569,196.087 196.565,292.000 196.298 C 312.130 196.242,270.820 196.154,200.200 196.104 C 129.580 196.054,71.592 196.144,71.338 196.306 M56.076 200.220 C 56.034 201.551,55.821 202.857,55.601 203.121 C 55.382 203.386,55.482 203.361,55.823 203.065 C 56.289 202.662,56.407 201.939,56.298 200.164 L 56.151 197.800 56.076 200.220 M331.731 215.800 C 331.733 217.340,331.805 217.921,331.892 217.091 C 331.979 216.261,331.977 215.001,331.889 214.291 C 331.800 213.581,331.729 214.260,331.731 215.800 M346.128 216.800 C 346.128 218.230,346.201 218.815,346.289 218.100 C 346.378 217.385,346.378 216.215,346.289 215.500 C 346.201 214.785,346.128 215.370,346.128 216.800 M347.635 227.718 C 347.680 229.422,347.811 230.722,347.925 230.608 C 348.179 230.354,348.015 225.082,347.745 224.812 C 347.640 224.706,347.590 226.014,347.635 227.718 M348.928 238.800 C 348.928 240.230,349.001 240.815,349.089 240.100 C 349.178 239.385,349.178 238.215,349.089 237.500 C 349.001 236.785,348.928 237.370,348.928 238.800 M336.115 246.262 C 336.246 246.474,336.391 247.822,336.437 249.257 C 336.499 251.169,336.669 251.867,337.074 251.867 C 337.454 251.867,337.498 251.738,337.213 251.453 C 336.986 251.226,336.800 250.007,336.800 248.744 C 336.800 247.439,336.600 246.324,336.338 246.162 C 336.084 246.005,335.984 246.050,336.115 246.262 M350.279 246.716 C 350.542 246.884,350.822 248.186,350.902 249.610 L 351.046 252.200 351.123 249.300 C 351.190 246.773,351.110 246.401,350.500 246.406 C 350.026 246.410,349.955 246.511,350.279 246.716 M62.035 257.358 C 61.747 257.705,61.615 258.786,61.704 260.068 L 61.852 262.200 61.926 259.933 C 61.971 258.540,62.193 257.598,62.500 257.488 C 62.775 257.390,62.891 257.191,62.757 257.045 C 62.623 256.900,62.298 257.040,62.035 257.358 M46.460 265.467 C 46.421 267.343,46.227 268.400,45.900 268.526 C 45.625 268.632,45.760 268.702,46.200 268.682 C 46.906 268.650,46.987 268.408,46.886 266.623 C 46.680 262.981,46.521 262.549,46.460 265.467 M339.077 268.279 C 339.340 268.466,339.626 269.695,339.713 271.010 L 339.870 273.400 339.835 270.832 C 339.809 268.909,339.649 268.223,339.200 268.101 C 338.780 267.988,338.743 268.041,339.077 268.279 M60.128 270.800 C 60.128 272.230,60.201 272.815,60.289 272.100 C 60.378 271.385,60.378 270.215,60.289 269.500 C 60.201 268.785,60.128 269.370,60.128 270.800 M45.728 271.600 C 45.728 273.030,45.801 273.615,45.889 272.900 C 45.978 272.185,45.978 271.015,45.889 270.300 C 45.801 269.585,45.728 270.170,45.728 271.600 M59.364 274.151 C 59.247 274.454,59.220 275.579,59.304 276.651 L 59.456 278.600 59.528 276.333 C 59.572 274.954,59.796 273.988,60.100 273.865 C 60.492 273.707,60.489 273.656,60.087 273.632 C 59.806 273.614,59.480 273.848,59.364 274.151 M44.846 276.867 C 44.818 278.273,44.610 279.206,44.300 279.326 C 44.025 279.432,44.160 279.502,44.600 279.482 C 45.296 279.450,45.384 279.209,45.280 277.623 C 45.091 274.739,44.897 274.400,44.846 276.867 M354.924 277.000 C 354.926 278.320,355.001 278.812,355.090 278.093 C 355.179 277.374,355.177 276.294,355.086 275.693 C 354.995 275.092,354.922 275.680,354.924 277.000 M341.312 281.600 C 341.305 283.030,341.429 285.460,341.587 287.000 C 341.837 289.437,341.877 289.541,341.897 287.800 C 341.910 286.700,341.786 284.270,341.622 282.400 C 341.333 279.099,341.324 279.075,341.312 281.600 M58.072 287.020 C 58.032 288.351,57.784 289.656,57.520 289.920 C 57.155 290.285,57.153 290.400,57.512 290.400 C 58.170 290.400,58.477 288.903,58.297 286.573 C 58.147 284.632,58.143 284.639,58.072 287.020 M342.394 292.518 L 342.589 295.000 342.717 292.843 C 342.788 291.656,342.700 290.540,342.523 290.361 C 342.345 290.183,342.287 291.154,342.394 292.518 M343.314 297.400 C 343.317 298.500,343.395 298.903,343.487 298.295 C 343.579 297.686,343.577 296.786,343.482 296.295 C 343.387 295.803,343.311 296.300,343.314 297.400 " stroke="none" fill="#b0acac" fill-rule="evenodd"></path><path id="path2" d="M17.800 96.000 C 17.664 96.220,16.438 96.433,15.076 96.474 L 12.600 96.548 14.782 96.698 C 15.982 96.780,17.332 96.654,17.782 96.418 C 18.361 96.114,71.723 95.961,200.200 95.894 L 381.800 95.799 199.924 95.700 C 78.997 95.633,17.964 95.734,17.800 96.000 M382.101 96.000 C 382.218 96.433,382.867 96.611,384.431 96.640 L 386.600 96.680 384.608 96.514 C 383.512 96.423,382.463 96.135,382.277 95.874 C 382.042 95.545,381.988 95.583,382.101 96.000 M390.748 98.537 C 390.993 98.832,391.075 99.192,390.930 99.337 C 390.785 99.482,390.877 99.600,391.133 99.600 C 391.668 99.600,391.691 99.503,391.357 98.633 C 391.224 98.285,390.932 98.000,390.708 98.000 C 390.453 98.000,390.467 98.199,390.748 98.537 M199.900 110.300 C 321.100 110.367,382.400 110.535,382.400 110.800 C 382.400 111.020,382.602 111.200,382.849 111.200 C 383.159 111.200,383.144 111.015,382.800 110.600 C 382.358 110.068,361.623 110.011,199.851 110.100 L 17.400 110.199 199.900 110.300 M386.313 124.288 C 386.402 132.278,386.314 134.616,385.913 134.899 C 385.522 135.175,385.542 135.222,386.000 135.097 C 386.658 134.918,387.145 114.985,386.507 114.346 C 386.338 114.177,386.251 118.651,386.313 124.288 M76.476 155.676 C 76.434 157.148,76.220 158.464,76.000 158.600 C 75.780 158.736,75.633 159.962,75.674 161.324 L 75.748 163.800 75.882 161.600 C 75.955 160.390,76.202 159.033,76.430 158.584 C 76.658 158.136,76.779 156.696,76.698 155.384 L 76.551 153.000 76.476 155.676 M323.400 156.000 C 323.400 157.498,323.535 158.640,323.700 158.538 C 323.865 158.436,324.000 157.294,324.000 156.000 C 324.000 154.706,323.865 153.564,323.700 153.462 C 323.535 153.360,323.400 154.502,323.400 156.000 M364.499 221.286 L 364.400 289.571 360.500 289.702 L 356.600 289.833 360.513 289.916 C 363.339 289.977,364.478 289.861,364.615 289.500 C 364.720 289.225,364.759 258.400,364.702 221.000 L 364.598 153.000 364.499 221.286 M35.299 221.714 L 35.200 290.028 39.300 289.914 L 43.400 289.800 43.434 287.200 L 43.467 284.600 43.315 287.100 L 43.162 289.600 39.382 289.600 L 35.602 289.600 35.500 221.500 L 35.398 153.400 35.299 221.714 M74.965 164.548 C 74.849 164.849,74.813 166.064,74.884 167.248 L 75.013 169.400 75.207 166.699 C 75.401 163.981,75.352 163.539,74.965 164.548 M324.928 166.800 C 324.928 168.230,325.001 168.815,325.089 168.100 C 325.178 167.385,325.178 166.215,325.089 165.500 C 325.001 164.785,324.928 165.370,324.928 166.800 M339.328 167.600 C 339.328 169.030,339.401 169.615,339.489 168.900 C 339.578 168.185,339.578 167.015,339.489 166.300 C 339.401 165.585,339.328 166.170,339.328 167.600 M325.138 169.917 C 325.518 170.183,325.636 171.017,325.538 172.748 C 325.462 174.097,325.543 175.201,325.718 175.201 C 326.345 175.199,325.843 169.876,325.200 169.701 C 324.718 169.571,324.706 169.614,325.138 169.917 M59.654 172.700 C 59.711 175.498,59.879 175.187,60.086 171.900 C 60.152 170.855,60.069 170.000,59.903 170.000 C 59.736 170.000,59.625 171.215,59.654 172.700 M340.124 173.000 C 340.126 174.320,340.201 174.812,340.290 174.093 C 340.379 173.374,340.377 172.294,340.286 171.693 C 340.195 171.092,340.122 171.680,340.124 173.000 M73.728 177.600 C 73.728 179.030,73.801 179.615,73.889 178.900 C 73.978 178.185,73.978 177.015,73.889 176.300 C 73.801 175.585,73.728 176.170,73.728 177.600 M326.528 177.600 C 326.528 179.030,326.601 179.615,326.689 178.900 C 326.778 178.185,326.778 177.015,326.689 176.300 C 326.601 175.585,326.528 176.170,326.528 177.600 M136.500 181.900 C 171.425 181.956,228.575 181.956,263.500 181.900 C 298.425 181.844,269.850 181.798,200.000 181.798 C 130.150 181.798,101.575 181.844,136.500 181.900 M71.338 196.306 C 70.924 196.569,196.087 196.565,292.000 196.298 C 312.130 196.242,270.820 196.154,200.200 196.104 C 129.580 196.054,71.592 196.144,71.338 196.306 M56.076 200.220 C 56.034 201.551,55.821 202.857,55.601 203.121 C 55.382 203.386,55.482 203.361,55.823 203.065 C 56.289 202.662,56.407 201.939,56.298 200.164 L 56.151 197.800 56.076 200.220 M331.731 215.800 C 331.733 217.340,331.805 217.921,331.892 217.091 C 331.979 216.261,331.977 215.001,331.889 214.291 C 331.800 213.581,331.729 214.260,331.731 215.800 M346.128 216.800 C 346.128 218.230,346.201 218.815,346.289 218.100 C 346.378 217.385,346.378 216.215,346.289 215.500 C 346.201 214.785,346.128 215.370,346.128 216.800 M347.635 227.718 C 347.680 229.422,347.811 230.722,347.925 230.608 C 348.179 230.354,348.015 225.082,347.745 224.812 C 347.640 224.706,347.590 226.014,347.635 227.718 M348.928 238.800 C 348.928 240.230,349.001 240.815,349.089 240.100 C 349.178 239.385,349.178 238.215,349.089 237.500 C 349.001 236.785,348.928 237.370,348.928 238.800 M336.115 246.262 C 336.246 246.474,336.391 247.822,336.437 249.257 C 336.499 251.169,336.669 251.867,337.074 251.867 C 337.454 251.867,337.498 251.738,337.213 251.453 C 336.986 251.226,336.800 250.007,336.800 248.744 C 336.800 247.439,336.600 246.324,336.338 246.162 C 336.084 246.005,335.984 246.050,336.115 246.262 M350.279 246.716 C 350.542 246.884,350.822 248.186,350.902 249.610 L 351.046 252.200 351.123 249.300 C 351.190 246.773,351.110 246.401,350.500 246.406 C 350.026 246.410,349.955 246.511,350.279 246.716 M62.035 257.358 C 61.747 257.705,61.615 258.786,61.704 260.068 L 61.852 262.200 61.926 259.933 C 61.971 258.540,62.193 257.598,62.500 257.488 C 62.775 257.390,62.891 257.191,62.757 257.045 C 62.623 256.900,62.298 257.040,62.035 257.358 M46.460 265.467 C 46.421 267.343,46.227 268.400,45.900 268.526 C 45.625 268.632,45.760 268.702,46.200 268.682 C 46.906 268.650,46.987 268.408,46.886 266.623 C 46.680 262.981,46.521 262.549,46.460 265.467 M339.077 268.279 C 339.340 268.466,339.626 269.695,339.713 271.010 L 339.870 273.400 339.835 270.832 C 339.809 268.909,339.649 268.223,339.200 268.101 C 338.780 267.988,338.743 268.041,339.077 268.279 M60.128 270.800 C 60.128 272.230,60.201 272.815,60.289 272.100 C 60.378 271.385,60.378 270.215,60.289 269.500 C 60.201 268.785,60.128 269.370,60.128 270.800 M45.728 271.600 C 45.728 273.030,45.801 273.615,45.889 272.900 C 45.978 272.185,45.978 271.015,45.889 270.300 C 45.801 269.585,45.728 270.170,45.728 271.600 M59.364 274.151 C 59.247 274.454,59.220 275.579,59.304 276.651 L 59.456 278.600 59.528 276.333 C 59.572 274.954,59.796 273.988,60.100 273.865 C 60.492 273.707,60.489 273.656,60.087 273.632 C 59.806 273.614,59.480 273.848,59.364 274.151 M44.846 276.867 C 44.818 278.273,44.610 279.206,44.300 279.326 C 44.025 279.432,44.160 279.502,44.600 279.482 C 45.296 279.450,45.384 279.209,45.280 277.623 C 45.091 274.739,44.897 274.400,44.846 276.867 M354.924 277.000 C 354.926 278.320,355.001 278.812,355.090 278.093 C 355.179 277.374,355.177 276.294,355.086 275.693 C 354.995 275.092,354.922 275.680,354.924 277.000 M341.312 281.600 C 341.305 283.030,341.429 285.460,341.587 287.000 C 341.837 289.437,341.877 289.541,341.897 287.800 C 341.910 286.700,341.786 284.270,341.622 282.400 C 341.333 279.099,341.324 279.075,341.312 281.600 M58.072 287.020 C 58.032 288.351,57.784 289.656,57.520 289.920 C 57.155 290.285,57.153 290.400,57.512 290.400 C 58.170 290.400,58.477 288.903,58.297 286.573 C 58.147 284.632,58.143 284.639,58.072 287.020 M342.394 292.518 L 342.589 295.000 342.717 292.843 C 342.788 291.656,342.700 290.540,342.523 290.361 C 342.345 290.183,342.287 291.154,342.394 292.518 M343.314 297.400 C 343.317 298.500,343.395 298.903,343.487 298.295 C 343.579 297.686,343.577 296.786,343.482 296.295 C 343.387 295.803,343.311 296.300,343.314 297.400 " stroke="none" fill="#b0acac" fill-rule="evenodd"></path><path id="path3" d="M17.800 96.000 C 17.664 96.220,16.438 96.433,15.076 96.474 L 12.600 96.548 14.782 96.698 C 15.982 96.780,17.332 96.654,17.782 96.418 C 18.361 96.114,71.723 95.961,200.200 95.894 L 381.800 95.799 199.924 95.700 C 78.997 95.633,17.964 95.734,17.800 96.000 M382.101 96.000 C 382.218 96.433,382.867 96.611,384.431 96.640 L 386.600 96.680 384.608 96.514 C 383.512 96.423,382.463 96.135,382.277 95.874 C 382.042 95.545,381.988 95.583,382.101 96.000 M390.748 98.537 C 390.993 98.832,391.075 99.192,390.930 99.337 C 390.785 99.482,390.877 99.600,391.133 99.600 C 391.668 99.600,391.691 99.503,391.357 98.633 C 391.224 98.285,390.932 98.000,390.708 98.000 C 390.453 98.000,390.467 98.199,390.748 98.537 M199.900 110.300 C 321.100 110.367,382.400 110.535,382.400 110.800 C 382.400 111.020,382.602 111.200,382.849 111.200 C 383.159 111.200,383.144 111.015,382.800 110.600 C 382.358 110.068,361.623 110.011,199.851 110.100 L 17.400 110.199 199.900 110.300 M386.313 124.288 C 386.402 132.278,386.314 134.616,385.913 134.899 C 385.522 135.175,385.542 135.222,386.000 135.097 C 386.658 134.918,387.145 114.985,386.507 114.346 C 386.338 114.177,386.251 118.651,386.313 124.288 M76.476 155.676 C 76.434 157.148,76.220 158.464,76.000 158.600 C 75.780 158.736,75.633 159.962,75.674 161.324 L 75.748 163.800 75.882 161.600 C 75.955 160.390,76.202 159.033,76.430 158.584 C 76.658 158.136,76.779 156.696,76.698 155.384 L 76.551 153.000 76.476 155.676 M323.400 156.000 C 323.400 157.498,323.535 158.640,323.700 158.538 C 323.865 158.436,324.000 157.294,324.000 156.000 C 324.000 154.706,323.865 153.564,323.700 153.462 C 323.535 153.360,323.400 154.502,323.400 156.000 M364.499 221.286 L 364.400 289.571 360.500 289.702 L 356.600 289.833 360.513 289.916 C 363.339 289.977,364.478 289.861,364.615 289.500 C 364.720 289.225,364.759 258.400,364.702 221.000 L 364.598 153.000 364.499 221.286 M35.299 221.714 L 35.200 290.028 39.300 289.914 L 43.400 289.800 43.434 287.200 L 43.467 284.600 43.315 287.100 L 43.162 289.600 39.382 289.600 L 35.602 289.600 35.500 221.500 L 35.398 153.400 35.299 221.714 M74.965 164.548 C 74.849 164.849,74.813 166.064,74.884 167.248 L 75.013 169.400 75.207 166.699 C 75.401 163.981,75.352 163.539,74.965 164.548 M324.928 166.800 C 324.928 168.230,325.001 168.815,325.089 168.100 C 325.178 167.385,325.178 166.215,325.089 165.500 C 325.001 164.785,324.928 165.370,324.928 166.800 M339.328 167.600 C 339.328 169.030,339.401 169.615,339.489 168.900 C 339.578 168.185,339.578 167.015,339.489 166.300 C 339.401 165.585,339.328 166.170,339.328 167.600 M325.138 169.917 C 325.518 170.183,325.636 171.017,325.538 172.748 C 325.462 174.097,325.543 175.201,325.718 175.201 C 326.345 175.199,325.843 169.876,325.200 169.701 C 324.718 169.571,324.706 169.614,325.138 169.917 M59.654 172.700 C 59.711 175.498,59.879 175.187,60.086 171.900 C 60.152 170.855,60.069 170.000,59.903 170.000 C 59.736 170.000,59.625 171.215,59.654 172.700 M340.124 173.000 C 340.126 174.320,340.201 174.812,340.290 174.093 C 340.379 173.374,340.377 172.294,340.286 171.693 C 340.195 171.092,340.122 171.680,340.124 173.000 M73.728 177.600 C 73.728 179.030,73.801 179.615,73.889 178.900 C 73.978 178.185,73.978 177.015,73.889 176.300 C 73.801 175.585,73.728 176.170,73.728 177.600 M326.528 177.600 C 326.528 179.030,326.601 179.615,326.689 178.900 C 326.778 178.185,326.778 177.015,326.689 176.300 C 326.601 175.585,326.528 176.170,326.528 177.600 M136.500 181.900 C 171.425 181.956,228.575 181.956,263.500 181.900 C 298.425 181.844,269.850 181.798,200.000 181.798 C 130.150 181.798,101.575 181.844,136.500 181.900 M71.338 196.306 C 70.924 196.569,196.087 196.565,292.000 196.298 C 312.130 196.242,270.820 196.154,200.200 196.104 C 129.580 196.054,71.592 196.144,71.338 196.306 M56.076 200.220 C 56.034 201.551,55.821 202.857,55.601 203.121 C 55.382 203.386,55.482 203.361,55.823 203.065 C 56.289 202.662,56.407 201.939,56.298 200.164 L 56.151 197.800 56.076 200.220 M331.731 215.800 C 331.733 217.340,331.805 217.921,331.892 217.091 C 331.979 216.261,331.977 215.001,331.889 214.291 C 331.800 213.581,331.729 214.260,331.731 215.800 M346.128 216.800 C 346.128 218.230,346.201 218.815,346.289 218.100 C 346.378 217.385,346.378 216.215,346.289 215.500 C 346.201 214.785,346.128 215.370,346.128 216.800 M347.635 227.718 C 347.680 229.422,347.811 230.722,347.925 230.608 C 348.179 230.354,348.015 225.082,347.745 224.812 C 347.640 224.706,347.590 226.014,347.635 227.718 M348.928 238.800 C 348.928 240.230,349.001 240.815,349.089 240.100 C 349.178 239.385,349.178 238.215,349.089 237.500 C 349.001 236.785,348.928 237.370,348.928 238.800 M336.115 246.262 C 336.246 246.474,336.391 247.822,336.437 249.257 C 336.499 251.169,336.669 251.867,337.074 251.867 C 337.454 251.867,337.498 251.738,337.213 251.453 C 336.986 251.226,336.800 250.007,336.800 248.744 C 336.800 247.439,336.600 246.324,336.338 246.162 C 336.084 246.005,335.984 246.050,336.115 246.262 M350.279 246.716 C 350.542 246.884,350.822 248.186,350.902 249.610 L 351.046 252.200 351.123 249.300 C 351.190 246.773,351.110 246.401,350.500 246.406 C 350.026 246.410,349.955 246.511,350.279 246.716 M62.035 257.358 C 61.747 257.705,61.615 258.786,61.704 260.068 L 61.852 262.200 61.926 259.933 C 61.971 258.540,62.193 257.598,62.500 257.488 C 62.775 257.390,62.891 257.191,62.757 257.045 C 62.623 256.900,62.298 257.040,62.035 257.358 M46.460 265.467 C 46.421 267.343,46.227 268.400,45.900 268.526 C 45.625 268.632,45.760 268.702,46.200 268.682 C 46.906 268.650,46.987 268.408,46.886 266.623 C 46.680 262.981,46.521 262.549,46.460 265.467 M339.077 268.279 C 339.340 268.466,339.626 269.695,339.713 271.010 L 339.870 273.400 339.835 270.832 C 339.809 268.909,339.649 268.223,339.200 268.101 C 338.780 267.988,338.743 268.041,339.077 268.279 M60.128 270.800 C 60.128 272.230,60.201 272.815,60.289 272.100 C 60.378 271.385,60.378 270.215,60.289 269.500 C 60.201 268.785,60.128 269.370,60.128 270.800 M45.728 271.600 C 45.728 273.030,45.801 273.615,45.889 272.900 C 45.978 272.185,45.978 271.015,45.889 270.300 C 45.801 269.585,45.728 270.170,45.728 271.600 M59.364 274.151 C 59.247 274.454,59.220 275.579,59.304 276.651 L 59.456 278.600 59.528 276.333 C 59.572 274.954,59.796 273.988,60.100 273.865 C 60.492 273.707,60.489 273.656,60.087 273.632 C 59.806 273.614,59.480 273.848,59.364 274.151 M44.846 276.867 C 44.818 278.273,44.610 279.206,44.300 279.326 C 44.025 279.432,44.160 279.502,44.600 279.482 C 45.296 279.450,45.384 279.209,45.280 277.623 C 45.091 274.739,44.897 274.400,44.846 276.867 M354.924 277.000 C 354.926 278.320,355.001 278.812,355.090 278.093 C 355.179 277.374,355.177 276.294,355.086 275.693 C 354.995 275.092,354.922 275.680,354.924 277.000 M341.312 281.600 C 341.305 283.030,341.429 285.460,341.587 287.000 C 341.837 289.437,341.877 289.541,341.897 287.800 C 341.910 286.700,341.786 284.270,341.622 282.400 C 341.333 279.099,341.324 279.075,341.312 281.600 M58.072 287.020 C 58.032 288.351,57.784 289.656,57.520 289.920 C 57.155 290.285,57.153 290.400,57.512 290.400 C 58.170 290.400,58.477 288.903,58.297 286.573 C 58.147 284.632,58.143 284.639,58.072 287.020 M342.394 292.518 L 342.589 295.000 342.717 292.843 C 342.788 291.656,342.700 290.540,342.523 290.361 C 342.345 290.183,342.287 291.154,342.394 292.518 M343.314 297.400 C 343.317 298.500,343.395 298.903,343.487 298.295 C 343.579 297.686,343.577 296.786,343.482 296.295 C 343.387 295.803,343.311 296.300,343.314 297.400 " stroke="none" fill="#b0acac" fill-rule="evenodd"></path><path id="path4" d="M17.800 96.000 C 17.664 96.220,16.438 96.433,15.076 96.474 L 12.600 96.548 14.782 96.698 C 15.982 96.780,17.332 96.654,17.782 96.418 C 18.361 96.114,71.723 95.961,200.200 95.894 L 381.800 95.799 199.924 95.700 C 78.997 95.633,17.964 95.734,17.800 96.000 M382.101 96.000 C 382.218 96.433,382.867 96.611,384.431 96.640 L 386.600 96.680 384.608 96.514 C 383.512 96.423,382.463 96.135,382.277 95.874 C 382.042 95.545,381.988 95.583,382.101 96.000 M390.748 98.537 C 390.993 98.832,391.075 99.192,390.930 99.337 C 390.785 99.482,390.877 99.600,391.133 99.600 C 391.668 99.600,391.691 99.503,391.357 98.633 C 391.224 98.285,390.932 98.000,390.708 98.000 C 390.453 98.000,390.467 98.199,390.748 98.537 M199.900 110.300 C 321.100 110.367,382.400 110.535,382.400 110.800 C 382.400 111.020,382.602 111.200,382.849 111.200 C 383.159 111.200,383.144 111.015,382.800 110.600 C 382.358 110.068,361.623 110.011,199.851 110.100 L 17.400 110.199 199.900 110.300 M386.313 124.288 C 386.402 132.278,386.314 134.616,385.913 134.899 C 385.522 135.175,385.542 135.222,386.000 135.097 C 386.658 134.918,387.145 114.985,386.507 114.346 C 386.338 114.177,386.251 118.651,386.313 124.288 M76.476 155.676 C 76.434 157.148,76.220 158.464,76.000 158.600 C 75.780 158.736,75.633 159.962,75.674 161.324 L 75.748 163.800 75.882 161.600 C 75.955 160.390,76.202 159.033,76.430 158.584 C 76.658 158.136,76.779 156.696,76.698 155.384 L 76.551 153.000 76.476 155.676 M323.400 156.000 C 323.400 157.498,323.535 158.640,323.700 158.538 C 323.865 158.436,324.000 157.294,324.000 156.000 C 324.000 154.706,323.865 153.564,323.700 153.462 C 323.535 153.360,323.400 154.502,323.400 156.000 M364.499 221.286 L 364.400 289.571 360.500 289.702 L 356.600 289.833 360.513 289.916 C 363.339 289.977,364.478 289.861,364.615 289.500 C 364.720 289.225,364.759 258.400,364.702 221.000 L 364.598 153.000 364.499 221.286 M35.299 221.714 L 35.200 290.028 39.300 289.914 L 43.400 289.800 43.434 287.200 L 43.467 284.600 43.315 287.100 L 43.162 289.600 39.382 289.600 L 35.602 289.600 35.500 221.500 L 35.398 153.400 35.299 221.714 M74.965 164.548 C 74.849 164.849,74.813 166.064,74.884 167.248 L 75.013 169.400 75.207 166.699 C 75.401 163.981,75.352 163.539,74.965 164.548 M324.928 166.800 C 324.928 168.230,325.001 168.815,325.089 168.100 C 325.178 167.385,325.178 166.215,325.089 165.500 C 325.001 164.785,324.928 165.370,324.928 166.800 M339.328 167.600 C 339.328 169.030,339.401 169.615,339.489 168.900 C 339.578 168.185,339.578 167.015,339.489 166.300 C 339.401 165.585,339.328 166.170,339.328 167.600 M325.138 169.917 C 325.518 170.183,325.636 171.017,325.538 172.748 C 325.462 174.097,325.543 175.201,325.718 175.201 C 326.345 175.199,325.843 169.876,325.200 169.701 C 324.718 169.571,324.706 169.614,325.138 169.917 M59.654 172.700 C 59.711 175.498,59.879 175.187,60.086 171.900 C 60.152 170.855,60.069 170.000,59.903 170.000 C 59.736 170.000,59.625 171.215,59.654 172.700 M340.124 173.000 C 340.126 174.320,340.201 174.812,340.290 174.093 C 340.379 173.374,340.377 172.294,340.286 171.693 C 340.195 171.092,340.122 171.680,340.124 173.000 M73.728 177.600 C 73.728 179.030,73.801 179.615,73.889 178.900 C 73.978 178.185,73.978 177.015,73.889 176.300 C 73.801 175.585,73.728 176.170,73.728 177.600 M326.528 177.600 C 326.528 179.030,326.601 179.615,326.689 178.900 C 326.778 178.185,326.778 177.015,326.689 176.300 C 326.601 175.585,326.528 176.170,326.528 177.600 M136.500 181.900 C 171.425 181.956,228.575 181.956,263.500 181.900 C 298.425 181.844,269.850 181.798,200.000 181.798 C 130.150 181.798,101.575 181.844,136.500 181.900 M71.338 196.306 C 70.924 196.569,196.087 196.565,292.000 196.298 C 312.130 196.242,270.820 196.154,200.200 196.104 C 129.580 196.054,71.592 196.144,71.338 196.306 M56.076 200.220 C 56.034 201.551,55.821 202.857,55.601 203.121 C 55.382 203.386,55.482 203.361,55.823 203.065 C 56.289 202.662,56.407 201.939,56.298 200.164 L 56.151 197.800 56.076 200.220 M331.731 215.800 C 331.733 217.340,331.805 217.921,331.892 217.091 C 331.979 216.261,331.977 215.001,331.889 214.291 C 331.800 213.581,331.729 214.260,331.731 215.800 M346.128 216.800 C 346.128 218.230,346.201 218.815,346.289 218.100 C 346.378 217.385,346.378 216.215,346.289 215.500 C 346.201 214.785,346.128 215.370,346.128 216.800 M347.635 227.718 C 347.680 229.422,347.811 230.722,347.925 230.608 C 348.179 230.354,348.015 225.082,347.745 224.812 C 347.640 224.706,347.590 226.014,347.635 227.718 M348.928 238.800 C 348.928 240.230,349.001 240.815,349.089 240.100 C 349.178 239.385,349.178 238.215,349.089 237.500 C 349.001 236.785,348.928 237.370,348.928 238.800 M336.115 246.262 C 336.246 246.474,336.391 247.822,336.437 249.257 C 336.499 251.169,336.669 251.867,337.074 251.867 C 337.454 251.867,337.498 251.738,337.213 251.453 C 336.986 251.226,336.800 250.007,336.800 248.744 C 336.800 247.439,336.600 246.324,336.338 246.162 C 336.084 246.005,335.984 246.050,336.115 246.262 M350.279 246.716 C 350.542 246.884,350.822 248.186,350.902 249.610 L 351.046 252.200 351.123 249.300 C 351.190 246.773,351.110 246.401,350.500 246.406 C 350.026 246.410,349.955 246.511,350.279 246.716 M62.035 257.358 C 61.747 257.705,61.615 258.786,61.704 260.068 L 61.852 262.200 61.926 259.933 C 61.971 258.540,62.193 257.598,62.500 257.488 C 62.775 257.390,62.891 257.191,62.757 257.045 C 62.623 256.900,62.298 257.040,62.035 257.358 M46.460 265.467 C 46.421 267.343,46.227 268.400,45.900 268.526 C 45.625 268.632,45.760 268.702,46.200 268.682 C 46.906 268.650,46.987 268.408,46.886 266.623 C 46.680 262.981,46.521 262.549,46.460 265.467 M339.077 268.279 C 339.340 268.466,339.626 269.695,339.713 271.010 L 339.870 273.400 339.835 270.832 C 339.809 268.909,339.649 268.223,339.200 268.101 C 338.780 267.988,338.743 268.041,339.077 268.279 M60.128 270.800 C 60.128 272.230,60.201 272.815,60.289 272.100 C 60.378 271.385,60.378 270.215,60.289 269.500 C 60.201 268.785,60.128 269.370,60.128 270.800 M45.728 271.600 C 45.728 273.030,45.801 273.615,45.889 272.900 C 45.978 272.185,45.978 271.015,45.889 270.300 C 45.801 269.585,45.728 270.170,45.728 271.600 M59.364 274.151 C 59.247 274.454,59.220 275.579,59.304 276.651 L 59.456 278.600 59.528 276.333 C 59.572 274.954,59.796 273.988,60.100 273.865 C 60.492 273.707,60.489 273.656,60.087 273.632 C 59.806 273.614,59.480 273.848,59.364 274.151 M44.846 276.867 C 44.818 278.273,44.610 279.206,44.300 279.326 C 44.025 279.432,44.160 279.502,44.600 279.482 C 45.296 279.450,45.384 279.209,45.280 277.623 C 45.091 274.739,44.897 274.400,44.846 276.867 M354.924 277.000 C 354.926 278.320,355.001 278.812,355.090 278.093 C 355.179 277.374,355.177 276.294,355.086 275.693 C 354.995 275.092,354.922 275.680,354.924 277.000 M341.312 281.600 C 341.305 283.030,341.429 285.460,341.587 287.000 C 341.837 289.437,341.877 289.541,341.897 287.800 C 341.910 286.700,341.786 284.270,341.622 282.400 C 341.333 279.099,341.324 279.075,341.312 281.600 M58.072 287.020 C 58.032 288.351,57.784 289.656,57.520 289.920 C 57.155 290.285,57.153 290.400,57.512 290.400 C 58.170 290.400,58.477 288.903,58.297 286.573 C 58.147 284.632,58.143 284.639,58.072 287.020 M342.394 292.518 L 342.589 295.000 342.717 292.843 C 342.788 291.656,342.700 290.540,342.523 290.361 C 342.345 290.183,342.287 291.154,342.394 292.518 M343.314 297.400 C 343.317 298.500,343.395 298.903,343.487 298.295 C 343.579 297.686,343.577 296.786,343.482 296.295 C 343.387 295.803,343.311 296.300,343.314 297.400 " stroke="none" fill="#b0acac" fill-rule="evenodd"></path></g></svg>