<svg id="svg" version="1.1" xmlns="http://www.w3.org/2000/svg" xmlns:xlink="http://www.w3.org/1999/xlink" width="400" height="400" viewBox="0, 0, 400,400"><g id="svgg"><path id="path0" d="M124.500 0.282 C 124.005 0.378,123.600 0.595,123.600 0.765 C 123.600 0.935,122.828 1.471,121.884 1.957 C 120.768 2.531,120.146 3.128,120.105 3.665 C 120.071 4.118,119.791 4.784,119.482 5.145 C 119.174 5.505,118.810 6.115,118.673 6.500 C 118.537 6.885,118.284 7.200,118.113 7.200 C 117.583 7.200,117.884 16.481,118.424 16.815 C 118.687 16.978,118.780 17.309,118.630 17.552 C 118.480 17.795,118.817 18.453,119.378 19.015 C 119.940 19.577,120.400 20.208,120.400 20.418 C 120.400 20.628,120.754 20.800,121.187 20.800 C 121.759 20.800,121.905 20.983,121.718 21.469 C 121.521 21.982,121.622 22.077,122.151 21.874 C 122.565 21.715,122.743 21.769,122.595 22.008 C 122.305 22.477,123.323 23.600,124.038 23.600 C 124.310 23.600,124.414 23.719,124.269 23.865 C 124.123 24.010,124.709 24.820,125.571 25.665 C 126.432 26.509,127.016 27.211,126.869 27.225 C 126.721 27.239,127.005 27.413,127.500 27.612 C 127.995 27.811,128.400 28.269,128.400 28.630 C 128.400 29.048,128.617 29.202,129.000 29.055 C 129.330 28.929,129.600 29.008,129.600 29.231 C 129.600 29.812,131.467 31.599,132.082 31.606 C 132.450 31.610,132.468 31.697,132.144 31.906 C 131.707 32.188,132.659 33.492,133.190 33.340 C 133.306 33.307,133.348 33.464,133.284 33.689 C 133.219 33.917,133.459 33.986,133.828 33.845 C 134.299 33.664,134.424 33.759,134.265 34.175 C 134.114 34.569,134.231 34.686,134.625 34.535 C 135.036 34.377,135.136 34.501,134.962 34.955 C 134.826 35.310,134.879 35.600,135.081 35.600 C 135.579 35.600,139.600 39.505,139.600 39.989 C 139.600 40.201,139.900 40.260,140.266 40.119 C 140.668 39.965,140.832 40.025,140.679 40.272 C 140.446 40.650,142.115 42.437,142.635 42.365 C 142.762 42.348,142.972 42.438,143.100 42.567 C 143.228 42.695,143.110 42.800,142.838 42.800 C 142.491 42.800,142.522 42.979,142.943 43.400 C 143.273 43.730,143.746 44.000,143.995 44.000 C 144.244 44.000,144.336 44.180,144.200 44.400 C 144.064 44.620,144.340 44.800,144.814 44.800 C 145.338 44.800,145.757 45.113,145.884 45.600 C 145.999 46.040,146.353 46.400,146.670 46.400 C 146.988 46.400,147.136 46.580,147.000 46.800 C 146.864 47.020,146.931 47.200,147.149 47.200 C 147.368 47.200,147.660 47.560,147.800 48.000 C 147.940 48.440,148.305 48.800,148.613 48.800 C 148.920 48.800,149.367 49.165,149.606 49.611 C 149.845 50.057,150.209 50.318,150.415 50.190 C 150.628 50.059,150.676 50.258,150.526 50.649 C 150.325 51.171,150.419 51.278,150.910 51.090 C 151.367 50.914,151.493 51.012,151.337 51.420 C 151.214 51.739,151.312 52.000,151.553 52.000 C 152.208 52.000,153.600 53.301,153.600 53.913 C 153.600 54.207,153.780 54.336,154.000 54.200 C 154.220 54.064,154.400 54.138,154.400 54.364 C 154.400 54.590,154.657 54.676,154.971 54.556 C 155.401 54.391,155.482 54.567,155.301 55.268 C 155.086 56.105,155.130 56.143,155.740 55.643 C 156.332 55.157,156.386 55.170,156.166 55.743 C 156.026 56.109,156.111 56.400,156.357 56.400 C 156.601 56.400,156.800 56.664,156.800 56.987 C 156.800 57.347,157.034 57.485,157.405 57.343 C 157.858 57.169,157.942 57.297,157.741 57.855 C 157.593 58.265,157.603 58.483,157.762 58.341 C 158.109 58.030,159.917 59.669,159.702 60.100 C 159.620 60.265,159.833 60.400,160.176 60.400 C 160.519 60.400,160.800 60.580,160.800 60.800 C 160.800 61.020,160.935 61.158,161.100 61.106 C 161.265 61.055,161.887 61.505,162.482 62.106 C 163.077 62.708,163.469 63.200,163.353 63.200 C 163.238 63.200,163.413 63.470,163.743 63.800 C 164.073 64.130,164.546 64.400,164.795 64.400 C 165.044 64.400,165.136 64.580,165.000 64.800 C 164.864 65.020,165.033 65.200,165.376 65.200 C 165.733 65.200,166.000 65.542,166.000 66.000 C 166.000 66.440,166.225 66.755,166.500 66.700 C 166.775 66.645,166.948 66.847,166.884 67.149 C 166.807 67.512,166.991 67.612,167.428 67.445 C 167.899 67.264,168.024 67.359,167.865 67.775 C 167.705 68.192,167.836 68.289,168.320 68.116 C 168.694 67.982,168.873 68.014,168.717 68.186 C 168.561 68.358,168.831 68.831,169.317 69.236 C 170.176 69.953,168.218 69.974,98.700 69.987 C 51.309 69.996,27.200 70.135,27.200 70.400 C 27.200 70.620,26.480 70.800,25.600 70.800 C 24.720 70.800,24.000 70.980,24.000 71.200 C 24.000 71.420,23.730 71.600,23.400 71.600 C 23.070 71.600,22.800 71.881,22.800 72.224 C 22.800 72.578,22.609 72.729,22.357 72.574 C 21.915 72.300,18.777 73.135,18.400 73.627 C 18.034 74.104,15.650 75.200,14.977 75.200 C 14.555 75.200,14.397 75.416,14.543 75.795 C 14.675 76.139,14.566 76.350,14.286 76.295 C 14.019 76.243,13.836 76.398,13.880 76.641 C 13.929 76.909,13.554 77.004,12.921 76.883 C 12.176 76.740,11.966 76.821,12.180 77.167 C 12.526 77.727,11.336 79.200,10.538 79.200 C 10.242 79.200,10.000 79.380,10.000 79.600 C 10.000 79.820,9.775 80.001,9.500 80.003 C 9.037 80.005,8.682 80.477,6.658 83.787 C 6.250 84.454,5.755 85.060,5.558 85.133 C 5.361 85.207,5.200 85.482,5.200 85.745 C 5.200 86.008,4.840 86.483,4.400 86.800 C 3.960 87.117,3.600 87.797,3.600 88.312 C 3.600 88.834,3.423 89.138,3.200 89.000 C 2.980 88.864,2.800 89.113,2.800 89.553 C 2.800 89.993,2.620 90.464,2.400 90.600 C 2.180 90.736,2.000 91.197,2.000 91.624 C 2.000 92.051,1.775 92.403,1.500 92.406 C 1.167 92.410,1.200 92.542,1.600 92.800 C 2.000 93.058,2.033 93.190,1.700 93.194 C 1.425 93.197,1.200 93.481,1.200 93.824 C 1.200 94.167,1.056 94.358,0.880 94.249 C 0.704 94.141,0.479 94.715,0.380 95.526 C -0.102 99.473,0.213 352.138,0.700 352.300 C 0.975 352.392,1.200 352.801,1.200 353.210 C 1.200 353.618,1.380 354.064,1.600 354.200 C 1.820 354.336,2.000 354.814,2.000 355.262 C 2.000 355.710,2.321 356.554,2.714 357.138 C 3.107 357.722,3.674 358.689,3.975 359.286 C 4.275 359.884,4.673 360.278,4.860 360.163 C 5.047 360.047,5.200 360.413,5.200 360.976 C 5.200 361.614,5.424 362.000,5.792 362.000 C 6.118 362.000,6.498 362.450,6.636 363.000 C 6.774 363.550,7.047 364.000,7.243 364.000 C 7.440 364.000,7.600 364.193,7.600 364.429 C 7.600 365.113,8.557 365.881,9.159 365.680 C 9.466 365.578,9.599 365.679,9.458 365.906 C 9.319 366.132,9.485 366.424,9.828 366.555 C 10.170 366.687,10.339 366.976,10.202 367.197 C 10.065 367.419,10.278 367.603,10.676 367.606 C 11.290 367.611,11.309 367.671,10.800 368.000 C 10.338 368.299,10.325 368.389,10.742 368.394 C 11.218 368.399,12.383 369.201,14.400 370.913 C 14.730 371.194,15.492 371.671,16.093 371.975 C 16.695 372.279,17.542 372.859,17.977 373.264 C 18.830 374.060,19.399 374.246,19.000 373.600 C 18.568 372.901,19.140 373.169,19.962 374.051 C 20.505 374.634,21.072 374.841,21.765 374.709 C 22.321 374.603,22.682 374.667,22.568 374.852 C 22.454 375.037,22.909 375.078,23.580 374.944 C 24.502 374.760,24.800 374.845,24.800 375.295 C 24.800 375.712,25.096 375.832,25.795 375.699 C 26.412 375.581,26.870 375.716,26.999 376.054 C 27.173 376.508,30.829 376.582,48.604 376.493 L 70.000 376.386 70.000 384.622 C 70.000 391.431,70.105 392.962,70.604 393.461 C 70.936 393.793,71.105 394.230,70.980 394.432 C 70.855 394.635,71.044 394.800,71.400 394.800 C 71.756 394.800,71.936 394.980,71.800 395.200 C 71.664 395.420,71.722 395.600,71.928 395.600 C 72.134 395.600,72.522 396.128,72.789 396.773 C 73.068 397.446,73.492 397.863,73.784 397.751 C 74.064 397.643,74.844 398.105,75.516 398.778 L 76.738 400.000 81.519 400.000 C 86.613 400.000,88.923 399.722,88.570 399.151 C 88.450 398.958,88.633 398.800,88.976 398.800 C 89.319 398.800,89.600 398.515,89.600 398.167 C 89.600 397.818,89.823 397.608,90.096 397.699 C 90.781 397.927,91.600 397.025,91.600 396.043 C 91.600 395.595,91.960 395.035,92.400 394.800 C 92.840 394.565,93.200 394.108,93.200 393.786 C 93.200 393.464,93.380 393.200,93.600 393.200 C 93.854 393.200,94.000 390.133,94.000 384.799 L 94.000 376.399 200.100 376.499 L 306.200 376.600 306.277 384.612 C 306.353 392.600,306.645 394.612,307.794 395.053 C 308.127 395.181,308.400 395.716,308.400 396.243 C 308.400 396.769,308.591 397.200,308.824 397.200 C 309.057 397.200,309.132 397.387,308.990 397.616 C 308.823 397.886,309.097 397.941,309.771 397.772 C 310.584 397.568,310.760 397.639,310.583 398.100 C 310.108 399.339,312.753 400.000,318.191 400.000 L 323.262 400.000 324.444 398.818 C 325.146 398.115,325.871 397.729,326.230 397.867 C 326.609 398.012,326.789 397.894,326.716 397.549 C 326.652 397.247,326.825 397.045,327.100 397.100 C 327.383 397.157,327.600 396.804,327.600 396.288 C 327.600 395.787,327.960 395.117,328.400 394.800 C 328.840 394.483,329.200 393.893,329.200 393.488 C 329.200 393.084,329.384 392.867,329.610 393.006 C 329.835 393.145,329.994 393.111,329.963 392.930 C 329.931 392.748,329.927 388.952,329.953 384.493 L 330.000 376.387 351.468 376.407 C 367.381 376.422,373.010 376.307,373.224 375.962 C 373.385 375.701,374.047 375.575,374.731 375.675 C 375.466 375.783,375.921 375.684,375.876 375.427 C 375.834 375.192,376.264 374.982,376.831 374.961 C 378.542 374.895,380.048 374.401,379.793 373.988 C 379.661 373.775,380.001 373.600,380.548 373.600 C 381.095 373.600,381.785 373.375,382.081 373.100 C 382.377 372.825,382.885 372.541,383.210 372.470 C 383.534 372.398,383.860 372.173,383.933 371.970 C 384.007 371.766,384.332 371.600,384.657 371.600 C 384.982 371.600,385.149 371.441,385.029 371.246 C 384.909 371.052,385.338 370.674,385.984 370.407 C 387.079 369.953,391.600 365.907,391.600 365.380 C 391.600 364.887,392.718 364.050,393.017 364.319 C 393.188 364.474,393.208 364.390,393.060 364.132 C 392.913 363.875,393.056 363.401,393.377 363.080 C 393.699 362.758,393.855 362.388,393.724 362.257 C 393.593 362.126,393.781 361.905,394.143 361.767 C 394.504 361.628,394.800 361.274,394.800 360.980 C 394.800 360.686,395.164 360.190,395.609 359.879 C 396.080 359.549,396.321 359.059,396.186 358.708 C 396.053 358.362,396.221 358.001,396.577 357.864 C 396.920 357.733,397.200 357.349,397.200 357.013 C 397.200 356.676,397.355 356.400,397.545 356.400 C 397.734 356.400,397.803 355.950,397.698 355.400 C 397.558 354.667,397.679 354.400,398.153 354.400 C 398.570 354.400,398.800 354.057,398.800 353.433 C 398.800 352.902,399.025 352.392,399.300 352.300 C 399.841 352.120,400.314 104.045,399.786 97.299 C 399.644 95.482,399.364 94.098,399.164 94.222 C 398.845 94.419,398.615 93.569,398.753 92.700 C 398.779 92.535,398.553 92.400,398.251 92.400 C 397.921 92.400,397.601 91.769,397.449 90.819 C 397.310 89.949,396.904 89.074,396.547 88.874 C 396.189 88.674,395.978 88.267,396.077 87.969 C 396.176 87.671,395.885 87.010,395.429 86.500 C 394.973 85.990,394.285 85.219,393.900 84.786 C 393.515 84.354,393.200 83.621,393.200 83.157 C 393.200 82.586,393.014 82.386,392.620 82.537 C 392.247 82.680,392.115 82.567,392.248 82.219 C 392.379 81.878,392.187 81.702,391.727 81.740 C 391.198 81.784,391.026 81.556,391.095 80.900 C 391.148 80.404,390.968 79.995,390.695 79.989 C 389.645 79.965,387.208 77.752,387.695 77.265 C 388.048 76.912,387.907 76.800,387.107 76.800 C 386.405 76.800,385.969 76.533,385.800 76.000 C 385.660 75.560,385.211 75.200,384.802 75.200 C 384.392 75.200,383.787 74.930,383.457 74.600 C 383.127 74.270,382.574 74.000,382.229 74.000 C 381.883 74.000,381.600 73.820,381.600 73.600 C 381.600 73.380,381.139 73.200,380.576 73.200 C 380.013 73.200,379.640 73.058,379.748 72.885 C 379.855 72.712,379.460 72.530,378.871 72.481 C 378.282 72.433,377.740 72.215,377.667 71.997 C 377.593 71.778,377.088 71.600,376.543 71.600 C 375.985 71.600,375.661 71.426,375.800 71.200 C 375.949 70.958,375.404 70.800,374.424 70.800 C 373.531 70.800,372.800 70.620,372.800 70.400 C 372.800 70.135,348.804 70.000,301.613 70.000 C 239.323 70.000,230.453 69.927,230.650 69.415 C 230.773 69.094,231.217 68.721,231.637 68.588 C 232.057 68.455,232.400 68.058,232.400 67.706 C 232.400 67.355,232.514 67.180,232.653 67.319 C 232.934 67.600,235.200 65.322,235.200 64.758 C 235.200 64.561,235.492 64.400,235.849 64.400 C 236.365 64.400,236.401 64.283,236.026 63.831 C 235.635 63.361,235.713 63.304,236.477 63.501 C 237.333 63.721,237.356 63.684,236.800 62.993 C 236.470 62.582,236.405 62.369,236.655 62.519 C 236.905 62.669,237.330 62.525,237.600 62.200 C 237.870 61.875,238.295 61.726,238.545 61.869 C 238.795 62.011,238.874 61.988,238.719 61.817 C 238.379 61.439,239.346 60.400,240.038 60.400 C 240.310 60.400,240.435 60.301,240.314 60.181 C 240.025 59.892,243.311 56.516,243.700 56.703 C 243.865 56.782,244.000 56.556,244.000 56.200 C 244.000 55.808,244.184 55.667,244.468 55.842 C 244.783 56.036,244.852 55.913,244.681 55.466 C 244.511 55.024,244.631 54.800,245.036 54.800 C 245.372 54.800,245.536 54.620,245.400 54.400 C 245.264 54.180,245.423 54.000,245.754 54.000 C 246.084 54.000,246.606 53.641,246.913 53.203 C 247.220 52.764,247.591 52.524,247.736 52.669 C 247.881 52.814,248.000 52.623,248.000 52.243 C 248.000 51.863,248.180 51.664,248.400 51.800 C 248.620 51.936,248.800 51.756,248.800 51.400 C 248.800 51.044,248.980 50.864,249.200 51.000 C 249.420 51.136,249.600 50.950,249.600 50.586 C 249.600 50.223,249.958 49.831,250.396 49.717 C 250.833 49.603,251.092 49.350,250.972 49.155 C 250.851 48.960,251.044 48.800,251.400 48.800 C 251.756 48.800,251.936 48.620,251.800 48.400 C 251.664 48.180,251.863 48.000,252.243 48.000 C 252.623 48.000,252.814 47.881,252.669 47.736 C 252.524 47.591,252.764 47.220,253.203 46.913 C 253.641 46.606,254.000 46.084,254.000 45.754 C 254.000 45.423,254.180 45.264,254.400 45.400 C 254.620 45.536,254.800 45.372,254.800 45.036 C 254.800 44.631,255.024 44.511,255.466 44.681 C 255.913 44.852,256.036 44.783,255.842 44.468 C 255.664 44.180,255.818 44.000,256.243 44.000 C 256.623 44.000,256.835 43.901,256.714 43.781 C 256.425 43.492,259.711 40.116,260.100 40.303 C 260.265 40.382,260.400 40.244,260.400 39.995 C 260.400 39.337,261.451 38.390,261.817 38.719 C 261.988 38.874,262.011 38.795,261.869 38.545 C 261.726 38.295,261.875 37.870,262.200 37.600 C 262.525 37.330,262.669 36.905,262.519 36.655 C 262.369 36.405,262.582 36.470,262.993 36.800 C 263.684 37.356,263.721 37.333,263.501 36.477 C 263.304 35.713,263.361 35.635,263.831 36.026 C 264.283 36.401,264.400 36.365,264.400 35.849 C 264.400 35.492,264.561 35.200,264.758 35.200 C 265.322 35.200,267.600 32.934,267.319 32.653 C 267.180 32.514,267.367 32.400,267.733 32.400 C 268.100 32.400,268.400 32.245,268.400 32.056 C 268.400 31.866,269.210 30.841,270.200 29.778 C 271.190 28.715,272.000 27.998,272.000 28.184 C 272.000 28.370,272.360 28.090,272.801 27.561 C 274.101 26.002,276.661 23.444,277.541 22.827 C 277.990 22.512,278.286 22.139,278.199 21.998 C 277.960 21.612,279.488 20.426,279.830 20.733 C 279.994 20.880,280.008 20.790,279.860 20.532 C 279.713 20.275,279.864 19.793,280.196 19.461 C 280.528 19.129,280.800 18.654,280.800 18.405 C 280.800 18.156,280.980 18.064,281.200 18.200 C 281.420 18.336,281.600 18.107,281.600 17.690 C 281.600 17.274,281.698 16.835,281.818 16.715 C 282.158 16.375,282.237 6.799,281.900 6.800 C 281.735 6.800,281.600 6.440,281.600 6.000 C 281.600 5.560,281.375 5.245,281.100 5.300 C 280.825 5.355,280.645 5.175,280.700 4.900 C 280.755 4.625,280.642 4.400,280.449 4.400 C 280.255 4.400,279.873 3.860,279.600 3.200 C 279.327 2.540,278.810 1.994,278.451 1.987 C 277.726 1.973,276.030 0.827,276.624 0.753 C 278.155 0.560,273.754 0.086,270.080 0.047 C 265.619 0.001,263.200 0.550,263.200 1.610 C 263.200 1.825,262.795 2.007,262.300 2.015 C 261.737 2.025,261.089 2.511,260.568 3.315 C 260.110 4.022,259.536 4.559,259.292 4.508 C 259.048 4.458,258.740 4.759,258.607 5.177 C 258.333 6.042,255.416 8.800,254.775 8.800 C 254.543 8.800,254.455 8.966,254.580 9.168 C 254.791 9.509,254.133 10.139,252.075 11.567 C 251.307 12.101,250.648 13.392,250.767 14.130 C 250.796 14.311,250.638 14.347,250.415 14.209 C 250.192 14.072,249.167 14.823,248.137 15.879 C 247.107 16.936,246.121 17.757,245.947 17.705 C 245.772 17.652,245.732 17.879,245.859 18.209 C 246.010 18.602,245.901 18.739,245.545 18.607 C 245.225 18.488,244.623 18.987,244.086 19.817 C 243.584 20.595,243.044 21.152,242.886 21.056 C 242.729 20.961,242.159 21.584,241.620 22.441 C 241.080 23.298,240.495 24.000,240.320 24.000 C 240.144 24.000,240.000 24.289,240.000 24.643 C 240.000 25.001,239.773 25.199,239.487 25.089 C 239.021 24.910,237.373 25.920,237.348 26.400 C 237.333 26.695,226.400 37.630,226.400 37.350 C 226.400 37.219,226.061 37.530,225.646 38.043 C 225.231 38.555,224.980 39.205,225.089 39.487 C 225.199 39.773,225.001 40.000,224.643 40.000 C 224.289 40.000,224.000 40.144,224.000 40.320 C 224.000 40.495,223.298 41.080,222.441 41.620 C 221.584 42.159,220.961 42.729,221.056 42.886 C 221.152 43.044,220.595 43.584,219.817 44.086 C 218.987 44.623,218.488 45.225,218.607 45.545 C 218.739 45.901,218.602 46.010,218.209 45.859 C 217.879 45.732,217.652 45.772,217.705 45.947 C 217.757 46.121,216.936 47.107,215.879 48.137 C 214.823 49.167,214.072 50.192,214.209 50.415 C 214.347 50.638,214.311 50.796,214.130 50.767 C 213.392 50.648,212.101 51.307,211.567 52.075 C 210.139 54.133,209.509 54.791,209.168 54.580 C 208.966 54.455,208.800 54.543,208.800 54.775 C 208.800 55.421,206.039 58.334,205.163 58.612 C 204.737 58.747,204.483 59.010,204.598 59.197 C 204.793 59.513,204.108 60.155,202.046 61.588 C 201.581 61.912,201.200 62.413,201.200 62.701 C 201.200 63.617,200.073 63.699,199.160 62.849 C 198.675 62.397,198.098 62.139,197.878 62.276 C 197.651 62.416,197.600 62.323,197.762 62.062 C 197.933 61.785,197.787 61.600,197.400 61.600 C 197.044 61.600,196.864 61.420,197.000 61.200 C 197.136 60.980,196.967 60.800,196.624 60.800 C 196.281 60.800,196.000 60.609,196.000 60.376 C 196.000 60.143,195.792 60.082,195.537 60.239 C 195.222 60.434,195.144 60.258,195.293 59.688 C 195.517 58.832,194.687 58.175,193.954 58.628 C 193.748 58.756,193.630 58.628,193.690 58.344 C 193.751 58.061,193.393 57.644,192.895 57.417 C 192.396 57.191,192.079 56.770,192.190 56.482 C 192.300 56.194,192.213 56.068,191.995 56.203 C 191.778 56.337,191.600 56.177,191.600 55.846 C 191.600 55.516,191.077 54.936,190.437 54.558 C 189.771 54.165,189.362 53.643,189.480 53.336 C 189.601 53.020,189.412 52.800,189.019 52.800 C 188.612 52.800,188.465 52.618,188.642 52.332 C 188.836 52.017,188.713 51.948,188.266 52.119 C 187.880 52.267,187.600 52.179,187.600 51.910 C 187.600 51.654,186.610 50.486,185.400 49.314 C 184.190 48.142,183.200 46.997,183.200 46.768 C 183.200 46.540,183.021 46.464,182.802 46.599 C 182.583 46.734,182.191 46.378,181.930 45.807 C 181.662 45.218,181.231 44.856,180.934 44.970 C 180.645 45.081,180.452 44.982,180.505 44.750 C 180.557 44.519,179.973 43.986,179.206 43.565 C 178.168 42.995,178.015 42.797,178.606 42.788 C 179.340 42.777,179.346 42.744,178.697 42.366 C 178.310 42.141,177.787 42.084,177.535 42.240 C 177.252 42.415,177.186 42.347,177.362 42.062 C 177.533 41.785,177.387 41.600,177.000 41.600 C 176.644 41.600,176.464 41.420,176.600 41.200 C 176.736 40.980,176.567 40.800,176.224 40.800 C 175.881 40.800,175.645 40.575,175.700 40.300 C 175.755 40.025,175.586 39.841,175.324 39.892 C 175.063 39.942,174.724 39.582,174.572 39.092 C 174.209 37.924,171.937 35.591,171.454 35.890 C 171.246 36.019,171.184 35.950,171.315 35.737 C 171.447 35.525,170.484 34.327,169.177 33.076 C 167.870 31.825,166.800 30.663,166.800 30.495 C 166.800 30.103,164.754 28.558,164.461 28.730 C 164.339 28.801,164.101 28.486,163.933 28.030 C 163.764 27.573,163.335 27.200,162.980 27.200 C 162.624 27.200,162.410 26.975,162.503 26.700 C 162.672 26.203,160.072 24.131,159.500 24.308 C 159.335 24.358,159.245 24.175,159.300 23.900 C 159.355 23.625,159.162 23.449,158.870 23.510 C 158.579 23.570,158.453 23.438,158.591 23.215 C 158.728 22.992,158.445 22.403,157.962 21.905 C 157.478 21.407,157.212 21.270,157.371 21.600 C 157.530 21.930,157.382 21.858,157.042 21.441 C 156.703 21.024,156.520 20.529,156.636 20.341 C 156.752 20.153,156.556 20.000,156.200 20.000 C 155.844 20.000,155.635 19.865,155.734 19.700 C 155.834 19.535,155.665 19.168,155.358 18.884 C 155.051 18.601,154.800 18.470,154.800 18.594 C 154.800 18.718,153.917 17.893,152.838 16.762 C 151.759 15.631,150.681 14.826,150.443 14.973 C 150.173 15.140,150.099 15.007,150.247 14.621 C 150.378 14.279,150.286 14.000,150.043 14.000 C 149.799 14.000,149.600 13.749,149.600 13.443 C 149.600 12.893,148.512 12.204,147.870 12.346 C 147.689 12.387,147.655 12.235,147.794 12.010 C 147.933 11.784,147.756 11.600,147.400 11.600 C 147.044 11.600,146.864 11.420,147.000 11.200 C 147.136 10.980,146.967 10.800,146.624 10.800 C 146.281 10.800,146.000 10.609,146.000 10.376 C 146.000 10.143,145.792 10.082,145.537 10.239 C 145.222 10.434,145.144 10.258,145.293 9.688 C 145.517 8.832,144.687 8.175,143.954 8.628 C 143.748 8.756,143.630 8.628,143.690 8.344 C 143.751 8.061,143.393 7.644,142.895 7.417 C 142.396 7.191,142.079 6.770,142.190 6.482 C 142.300 6.194,142.213 6.068,141.995 6.203 C 141.778 6.337,141.600 6.177,141.600 5.846 C 141.600 5.516,141.077 4.936,140.437 4.558 C 139.771 4.165,139.362 3.643,139.480 3.336 C 139.601 3.020,139.412 2.800,139.019 2.800 C 138.653 2.800,138.464 2.620,138.600 2.400 C 138.736 2.180,138.559 2.000,138.207 2.000 C 137.856 2.000,137.052 1.619,136.422 1.153 C 135.752 0.658,135.068 0.434,134.776 0.615 C 134.453 0.814,134.377 0.760,134.562 0.462 C 134.844 0.006,126.690 -0.140,124.500 0.282 M364.684 94.124 C 364.541 94.498,364.961 94.672,366.142 94.732 C 367.854 94.817,371.314 96.292,370.999 96.802 C 370.901 96.960,371.221 97.064,371.710 97.033 C 372.736 96.968,373.185 97.452,373.194 98.632 C 373.197 99.110,373.632 99.696,374.213 100.007 C 374.769 100.305,375.199 100.830,375.166 101.174 C 374.921 103.791,375.238 105.517,376.000 105.716 C 376.910 105.954,377.310 341.600,376.400 341.600 C 376.180 341.600,376.000 342.326,376.000 343.213 C 376.000 344.245,375.793 344.904,375.425 345.046 C 375.109 345.167,374.948 345.521,375.068 345.833 C 375.199 346.174,375.035 346.400,374.655 346.400 C 374.259 346.400,374.111 346.623,374.255 347.000 C 374.401 347.380,374.250 347.600,373.843 347.600 C 373.284 347.600,372.996 348.310,373.153 349.300 C 373.179 349.465,373.065 349.564,372.900 349.521 C 372.320 349.368,370.791 350.061,370.991 350.386 C 371.194 350.713,369.316 351.405,368.651 351.249 C 368.459 351.204,368.391 351.400,368.500 351.684 C 368.648 352.068,368.175 352.186,366.649 352.146 C 365.522 352.116,364.500 352.251,364.377 352.445 C 364.066 352.937,35.120 352.917,34.815 352.425 C 34.687 352.217,33.731 352.002,32.691 351.948 C 31.651 351.895,30.800 351.685,30.800 351.482 C 30.800 351.280,30.490 351.233,30.112 351.378 C 29.734 351.524,29.539 351.528,29.679 351.388 C 29.987 351.080,28.574 349.600,27.971 349.600 C 27.228 349.600,26.392 348.486,26.644 347.830 C 26.804 347.412,26.661 347.200,26.219 347.200 C 25.853 347.200,25.664 347.020,25.800 346.800 C 25.936 346.580,25.747 346.400,25.381 346.400 C 24.953 346.400,24.797 346.185,24.945 345.800 C 25.071 345.470,25.041 345.200,24.877 345.200 C 24.713 345.200,24.651 344.449,24.738 343.530 C 24.854 342.315,24.720 341.731,24.248 341.386 C 23.380 340.751,23.432 105.326,24.300 105.500 C 24.756 105.591,25.036 103.298,24.830 101.156 C 24.797 100.802,25.220 100.217,25.772 99.855 C 26.359 99.470,26.683 98.961,26.555 98.626 C 26.416 98.265,26.789 97.820,27.568 97.417 C 28.245 97.066,28.811 96.919,28.825 97.090 C 28.839 97.260,29.013 96.995,29.212 96.500 C 29.454 95.899,29.911 95.600,30.587 95.600 C 31.144 95.600,31.600 95.438,31.600 95.240 C 31.600 94.366,44.079 94.278,200.000 94.044 C 290.530 93.909,364.664 93.754,364.743 93.699 C 364.821 93.645,364.795 93.836,364.684 94.124 M399.273 96.172 C 399.361 96.927,399.290 97.456,399.116 97.348 C 398.803 97.155,398.655 94.800,398.956 94.800 C 399.042 94.800,399.185 95.417,399.273 96.172 M375.919 103.847 L 375.783 105.400 375.590 103.519 C 375.484 102.484,375.545 101.785,375.726 101.966 C 375.907 102.147,375.993 102.993,375.919 103.847 M376.099 223.476 C 376.034 301.388,375.865 341.236,375.600 341.400 C 375.380 341.536,375.229 342.402,375.264 343.324 C 375.325 344.913,375.336 344.927,375.476 343.600 C 375.558 342.830,375.802 341.840,376.019 341.400 C 376.276 340.878,376.376 299.748,376.306 223.200 L 376.199 105.800 376.099 223.476 M176.500 117.100 C 95.033 117.167,53.600 117.336,53.600 117.601 C 53.600 117.820,53.330 118.000,53.000 118.000 C 52.670 118.000,52.400 118.174,52.400 118.387 C 52.400 118.601,52.100 118.660,51.734 118.519 C 51.287 118.348,51.164 118.417,51.358 118.732 C 51.532 119.013,51.398 119.200,51.024 119.200 C 50.681 119.200,50.400 119.380,50.400 119.600 C 50.400 119.820,50.124 120.000,49.787 120.000 C 49.451 120.000,49.058 120.315,48.914 120.700 C 48.771 121.085,48.306 121.878,47.880 122.462 C 47.427 123.084,47.235 123.734,47.419 124.030 C 47.629 124.370,47.545 124.465,47.166 124.319 C 46.534 124.076,46.282 322.595,46.914 323.400 C 47.086 323.620,47.504 324.160,47.843 324.600 C 48.182 325.040,48.328 325.147,48.168 324.838 C 47.976 324.469,48.035 324.374,48.338 324.562 C 48.592 324.719,48.800 325.287,48.800 325.824 C 48.800 326.425,49.031 326.800,49.400 326.800 C 49.730 326.800,50.000 326.980,50.000 327.200 C 50.000 327.420,50.348 327.600,50.773 327.600 C 51.198 327.600,51.660 327.960,51.800 328.400 C 51.962 328.911,52.405 329.200,53.027 329.200 C 53.562 329.200,54.000 329.380,54.000 329.600 C 54.000 329.866,94.984 330.000,176.151 330.000 C 305.103 330.000,300.373 330.061,301.412 328.381 C 301.558 328.144,302.121 327.782,302.663 327.576 C 303.205 327.370,303.538 327.023,303.403 326.805 C 303.263 326.578,303.423 326.511,303.779 326.647 C 304.213 326.814,304.400 326.644,304.400 326.086 C 304.400 325.646,304.681 325.178,305.025 325.046 C 305.369 324.914,305.539 324.624,305.402 324.403 C 305.265 324.181,305.343 324.000,305.576 324.000 C 305.809 324.000,306.000 323.719,306.000 323.376 C 306.000 323.033,306.179 322.864,306.398 322.999 C 306.663 323.162,306.797 289.671,306.797 223.623 C 306.797 162.578,306.653 124.000,306.425 124.000 C 306.221 124.000,305.940 123.640,305.800 123.200 C 305.660 122.760,305.327 122.400,305.058 122.400 C 304.790 122.400,304.541 122.017,304.506 121.549 C 304.446 120.752,303.162 119.200,302.564 119.200 C 302.415 119.200,301.970 118.827,301.575 118.371 C 301.000 117.708,300.698 117.626,300.067 117.964 C 299.388 118.328,299.307 118.276,299.486 117.593 C 299.600 117.157,299.627 116.845,299.547 116.899 C 299.466 116.954,244.095 117.044,176.500 117.100 M336.400 141.043 C 336.400 141.433,336.177 141.600,335.833 141.468 C 335.521 141.348,335.163 141.521,335.036 141.851 C 334.909 142.181,334.624 142.339,334.403 142.202 C 334.181 142.065,334.000 142.156,334.000 142.403 C 334.000 142.671,333.677 142.751,333.203 142.601 C 332.588 142.406,332.461 142.493,332.647 142.978 C 332.820 143.429,332.713 143.542,332.274 143.373 C 331.818 143.198,331.711 143.337,331.860 143.909 C 332.082 144.756,330.961 146.147,330.358 145.774 C 330.150 145.646,330.006 145.689,330.037 145.870 C 330.190 146.747,329.961 147.623,329.632 147.420 C 329.414 147.285,329.292 149.272,329.332 152.296 C 329.380 155.888,329.536 157.374,329.859 157.314 C 330.116 157.265,330.237 157.538,330.134 157.932 C 330.012 158.396,330.305 158.828,330.989 159.194 C 331.560 159.500,331.941 159.976,331.836 160.251 C 331.728 160.531,332.165 160.983,332.822 161.274 C 333.470 161.561,334.000 161.944,334.000 162.126 C 334.000 163.521,337.138 164.400,342.116 164.400 C 345.556 164.400,346.334 164.295,346.165 163.853 C 346.015 163.462,346.249 163.337,346.979 163.418 C 347.543 163.479,347.922 163.398,347.822 163.236 C 347.593 162.866,349.197 161.463,349.501 161.768 C 349.872 162.138,350.800 161.156,350.800 160.394 C 350.800 160.004,351.069 159.582,351.398 159.456 C 353.038 158.827,353.619 156.795,353.564 151.874 C 353.520 147.937,353.415 147.185,352.935 147.370 C 352.618 147.491,352.460 147.426,352.584 147.225 C 352.933 146.661,351.943 144.800,351.293 144.800 C 350.934 144.800,350.805 144.564,350.953 144.179 C 351.269 143.355,350.406 142.473,349.512 142.707 C 349.120 142.810,348.800 142.692,348.800 142.447 C 348.800 142.201,348.519 142.000,348.176 142.000 C 347.822 142.000,347.671 141.809,347.826 141.557 C 348.008 141.263,347.831 141.200,347.297 141.369 C 346.769 141.537,346.415 141.415,346.260 141.012 C 345.900 140.074,336.400 140.104,336.400 141.043 M282.498 223.901 L 282.600 306.600 176.702 306.499 L 70.804 306.397 70.702 223.699 L 70.600 141.000 176.498 141.101 L 282.396 141.203 282.498 223.901 M336.400 187.643 C 336.400 187.839,336.130 188.000,335.800 188.000 C 335.470 188.000,335.200 188.180,335.200 188.400 C 335.200 188.620,334.930 188.800,334.600 188.800 C 334.270 188.800,334.000 189.078,334.000 189.418 C 334.000 189.768,333.720 189.984,333.353 189.918 C 332.997 189.853,332.502 190.160,332.253 190.600 C 332.004 191.040,331.574 191.545,331.297 191.721 C 329.530 192.851,328.111 203.280,329.600 204.200 C 329.820 204.336,330.000 204.797,330.000 205.224 C 330.000 205.651,330.193 206.000,330.429 206.000 C 331.073 206.000,332.029 207.085,331.907 207.679 C 331.848 207.965,332.025 208.155,332.300 208.100 C 332.575 208.045,332.800 208.180,332.800 208.400 C 332.800 208.620,333.070 208.800,333.400 208.800 C 333.730 208.800,334.000 208.980,334.000 209.200 C 334.000 209.420,334.281 209.600,334.624 209.600 C 334.967 209.600,335.146 209.763,335.023 209.963 C 334.900 210.162,335.159 210.231,335.599 210.116 C 336.156 209.970,336.400 210.103,336.400 210.553 C 336.400 211.496,345.899 211.529,346.260 210.588 C 346.415 210.185,346.769 210.063,347.297 210.231 C 347.831 210.400,348.008 210.337,347.826 210.043 C 347.672 209.793,347.819 209.600,348.164 209.600 C 348.569 209.600,348.689 209.376,348.519 208.934 C 348.342 208.473,348.414 208.362,348.755 208.572 C 349.691 209.151,351.271 208.454,350.995 207.585 C 350.832 207.072,350.958 206.714,351.354 206.562 C 353.292 205.818,354.820 195.201,353.138 194.162 C 352.833 193.973,352.786 194.054,353.000 194.400 C 353.210 194.739,353.167 194.827,352.879 194.649 C 352.635 194.498,352.533 194.118,352.653 193.805 C 352.774 193.492,352.414 192.778,351.854 192.218 C 351.294 191.658,350.946 191.200,351.080 191.200 C 351.214 191.200,351.009 190.852,350.624 190.427 C 350.240 190.002,349.672 189.751,349.362 189.870 C 349.023 190.000,348.800 189.831,348.800 189.443 C 348.800 189.089,348.519 188.800,348.176 188.800 C 347.833 188.800,347.664 188.620,347.800 188.400 C 347.941 188.172,347.596 188.000,347.000 188.000 C 346.373 188.000,346.057 187.832,346.211 187.582 C 346.387 187.298,344.851 187.183,341.435 187.224 C 338.666 187.258,336.400 187.446,336.400 187.643 M336.600 234.400 C 336.464 234.620,335.984 234.800,335.534 234.800 C 334.970 234.800,334.786 234.987,334.945 235.400 C 335.085 235.765,334.945 236.000,334.587 236.000 C 334.264 236.000,334.000 236.180,334.000 236.400 C 334.000 236.620,333.662 236.800,333.249 236.800 C 332.454 236.800,331.452 237.718,331.832 238.099 C 332.155 238.421,330.723 240.000,330.329 239.756 C 330.148 239.644,330.000 239.923,330.000 240.376 C 330.000 240.829,329.818 241.200,329.595 241.200 C 329.325 241.200,329.195 250.890,329.205 270.222 L 329.221 299.244 330.465 300.612 C 331.150 301.364,331.883 301.872,332.095 301.741 C 332.315 301.605,332.301 301.837,332.063 302.283 C 331.609 303.130,332.640 304.400,333.782 304.400 C 334.097 304.400,334.623 304.784,334.952 305.253 C 335.305 305.756,335.797 306.010,336.154 305.873 C 336.549 305.721,336.688 305.826,336.555 306.172 C 336.161 307.199,344.461 307.019,346.828 305.948 C 347.913 305.458,348.800 304.909,348.800 304.729 C 348.800 304.548,349.141 304.400,349.557 304.400 C 350.380 304.400,350.975 303.418,350.835 302.291 C 350.784 301.886,350.972 301.629,351.273 301.691 C 351.563 301.751,351.755 301.575,351.700 301.300 C 351.645 301.025,351.825 300.845,352.100 300.900 C 352.382 300.956,352.656 300.517,352.727 299.893 C 352.797 299.284,353.022 298.890,353.227 299.017 C 353.456 299.158,353.600 288.049,353.600 270.200 C 353.600 250.937,353.465 241.236,353.200 241.400 C 352.973 241.540,352.800 241.204,352.800 240.624 C 352.800 239.857,352.593 239.600,351.976 239.600 C 351.523 239.600,351.264 239.420,351.400 239.200 C 351.536 238.980,351.436 238.800,351.177 238.800 C 350.904 238.800,350.794 238.465,350.916 238.000 C 351.052 237.480,350.928 237.200,350.563 237.200 C 350.253 237.200,350.000 237.040,350.000 236.844 C 350.000 236.649,349.685 236.514,349.300 236.544 C 348.915 236.575,348.643 236.381,348.695 236.114 C 348.754 235.815,348.537 235.726,348.130 235.882 C 347.716 236.041,347.567 235.976,347.732 235.710 C 348.027 235.232,346.926 234.675,346.368 235.019 C 346.171 235.142,346.116 234.962,346.247 234.621 C 346.530 233.884,337.053 233.667,336.600 234.400 M399.076 351.500 C 398.975 351.885,398.893 351.570,398.893 350.800 C 398.893 350.030,398.975 349.715,399.076 350.100 C 399.176 350.485,399.176 351.115,399.076 351.500 " stroke="none" fill="#acacac" fill-rule="evenodd"></path><path id="path1" d="M260.182 3.340 C 259.271 4.342,259.146 4.946,260.023 4.111 C 260.536 3.622,260.876 3.145,260.778 3.051 C 260.680 2.958,260.412 3.088,260.182 3.340 M139.824 4.187 C 140.842 4.958,141.424 4.967,140.657 4.200 C 140.327 3.870,139.830 3.600,139.552 3.600 C 139.269 3.600,139.388 3.858,139.824 4.187 M119.100 4.957 C 118.715 5.249,118.400 5.768,118.400 6.111 C 118.400 6.453,118.175 6.824,117.900 6.935 C 117.508 7.093,117.511 7.144,117.913 7.168 C 118.194 7.186,118.537 6.885,118.673 6.500 C 118.810 6.115,119.192 5.485,119.523 5.100 C 120.233 4.273,120.072 4.219,119.100 4.957 M117.626 12.135 C 117.661 14.724,117.783 16.750,117.896 16.638 C 118.153 16.380,118.022 7.889,117.756 7.623 C 117.649 7.515,117.590 9.546,117.626 12.135 M282.150 11.800 C 282.151 14.220,282.216 15.158,282.296 13.885 C 282.376 12.612,282.375 10.632,282.294 9.485 C 282.214 8.338,282.149 9.380,282.150 11.800 M145.200 9.824 C 145.200 10.167,145.380 10.336,145.600 10.200 C 145.820 10.064,146.000 10.143,146.000 10.376 C 146.000 10.609,146.298 10.800,146.661 10.800 C 147.189 10.800,147.136 10.639,146.400 10.000 C 145.290 9.037,145.200 9.024,145.200 9.824 M253.600 10.000 C 253.093 10.440,252.857 10.800,253.077 10.800 C 253.296 10.800,253.802 10.440,254.200 10.000 C 254.598 9.560,254.834 9.200,254.723 9.200 C 254.613 9.200,254.107 9.560,253.600 10.000 M250.118 13.379 C 249.735 13.815,249.773 13.981,250.306 14.185 C 250.674 14.327,250.848 14.314,250.691 14.158 C 250.535 14.002,250.607 13.632,250.852 13.337 C 251.440 12.629,250.742 12.669,250.118 13.379 M248.086 15.454 C 247.583 15.974,247.330 16.400,247.524 16.400 C 247.948 16.400,249.397 14.855,249.164 14.651 C 249.074 14.572,248.589 14.933,248.086 15.454 M239.286 24.812 C 238.991 25.284,238.568 25.513,238.287 25.351 C 238.019 25.198,237.940 25.226,238.112 25.414 C 238.520 25.863,239.664 26.027,239.399 25.599 C 239.287 25.417,239.403 25.199,239.658 25.114 C 239.912 25.029,240.047 24.742,239.959 24.476 C 239.858 24.173,239.606 24.299,239.286 24.812 M231.686 31.854 C 231.183 32.374,230.930 32.800,231.124 32.800 C 231.548 32.800,232.997 31.255,232.764 31.051 C 232.674 30.972,232.189 31.333,231.686 31.854 M262.504 36.606 C 262.671 36.790,262.401 37.383,261.904 37.923 L 261.000 38.905 261.892 38.361 C 262.988 37.693,263.326 36.918,262.683 36.549 C 262.417 36.396,262.337 36.422,262.504 36.606 M225.343 38.273 C 225.494 38.536,225.217 39.023,224.718 39.373 C 223.984 39.886,223.947 40.000,224.511 40.000 C 224.890 40.000,225.200 39.809,225.200 39.576 C 225.200 39.343,225.364 39.254,225.565 39.378 C 226.017 39.658,225.884 38.539,225.414 38.112 C 225.226 37.940,225.194 38.013,225.343 38.273 M144.800 45.190 C 144.800 45.442,144.966 45.544,145.170 45.419 C 145.373 45.293,145.625 45.466,145.729 45.803 C 145.876 46.277,145.905 46.263,145.859 45.741 C 145.793 44.988,144.800 44.471,144.800 45.190 M215.286 48.254 C 214.783 48.774,214.530 49.200,214.724 49.200 C 215.148 49.200,216.597 47.655,216.364 47.451 C 216.274 47.372,215.789 47.733,215.286 48.254 M213.300 50.198 C 212.634 50.955,212.660 51.414,213.337 50.852 C 213.632 50.607,214.002 50.535,214.158 50.691 C 214.314 50.848,214.324 50.666,214.178 50.288 C 213.868 49.478,213.929 49.484,213.300 50.198 M210.182 53.340 C 209.271 54.342,209.146 54.946,210.023 54.111 C 210.536 53.622,210.876 53.145,210.778 53.051 C 210.680 52.958,210.412 53.088,210.182 53.340 M189.824 54.187 C 190.842 54.958,191.424 54.967,190.657 54.200 C 190.327 53.870,189.830 53.600,189.552 53.600 C 189.269 53.600,189.388 53.858,189.824 54.187 M195.200 59.824 C 195.200 60.167,195.380 60.336,195.600 60.200 C 195.820 60.064,196.000 60.143,196.000 60.376 C 196.000 60.609,196.298 60.800,196.661 60.800 C 197.189 60.800,197.136 60.639,196.400 60.000 C 195.290 59.037,195.200 59.024,195.200 59.824 M203.600 60.000 C 203.093 60.440,202.857 60.800,203.077 60.800 C 203.296 60.800,203.802 60.440,204.200 60.000 C 204.598 59.560,204.834 59.200,204.723 59.200 C 204.613 59.200,204.107 59.560,203.600 60.000 M161.200 61.050 C 161.201 61.596,163.109 63.680,163.279 63.320 C 163.363 63.144,162.929 62.482,162.316 61.850 C 161.702 61.217,161.200 60.857,161.200 61.050 M237.809 61.991 C 237.415 62.425,236.909 62.668,236.685 62.529 C 236.457 62.388,236.398 62.472,236.551 62.721 C 236.912 63.304,237.695 62.981,238.312 61.992 C 238.944 60.980,238.724 60.979,237.809 61.991 M11.199 78.202 C 10.683 78.751,10.444 79.200,10.668 79.200 C 11.179 79.200,12.598 77.665,12.332 77.399 C 12.225 77.291,11.714 77.652,11.199 78.202 M387.458 77.506 C 387.357 77.670,387.977 78.310,388.837 78.928 C 389.697 79.546,390.400 79.860,390.400 79.626 C 390.400 79.392,390.263 79.200,390.096 79.200 C 389.929 79.200,389.308 78.752,388.717 78.204 C 388.126 77.656,387.560 77.342,387.458 77.506 M390.892 81.275 C 390.979 81.536,391.264 81.821,391.525 81.908 C 391.818 82.006,391.907 81.823,391.757 81.433 C 391.478 80.706,390.652 80.555,390.892 81.275 M398.800 95.976 C 398.800 96.623,398.942 97.241,399.116 97.348 C 399.290 97.456,399.361 96.927,399.273 96.172 C 399.076 94.491,398.800 94.377,398.800 95.976 M374.802 100.876 C 374.801 101.248,374.980 101.664,375.200 101.800 C 375.420 101.936,375.630 102.802,375.667 103.724 C 375.732 105.348,375.739 105.356,375.886 103.983 C 375.971 103.192,375.766 102.043,375.422 101.383 C 375.040 100.651,374.804 100.458,374.802 100.876 M23.856 105.478 C 23.715 105.618,23.645 158.758,23.699 223.567 L 23.799 341.400 23.900 223.823 C 23.974 138.516,24.123 106.171,24.443 105.973 C 24.716 105.804,24.737 105.609,24.498 105.461 C 24.286 105.329,23.996 105.337,23.856 105.478 M375.901 105.894 C 376.553 106.356,376.445 341.442,375.792 341.331 C 375.551 341.290,375.448 341.920,375.539 342.878 C 375.640 343.940,375.505 344.627,375.147 344.878 C 374.701 345.190,374.711 345.231,375.200 345.099 C 375.584 344.996,375.844 344.336,375.923 343.269 C 375.991 342.351,376.216 341.600,376.424 341.600 C 377.137 341.600,376.714 105.898,376.000 105.703 C 375.555 105.581,375.529 105.631,375.901 105.894 M114.900 117.100 C 148.725 117.156,204.075 117.156,237.900 117.100 C 271.725 117.044,244.050 116.997,176.400 116.997 C 108.750 116.997,81.075 117.044,114.900 117.100 M52.006 118.300 C 52.010 118.732,52.125 118.831,52.306 118.560 C 52.468 118.318,52.870 118.017,53.200 117.892 C 53.601 117.739,53.501 117.653,52.900 117.632 C 52.295 117.610,52.002 117.830,52.006 118.300 M46.597 223.800 C 46.597 278.360,46.643 300.621,46.700 273.268 C 46.757 245.915,46.757 201.275,46.700 174.068 C 46.643 146.861,46.597 169.240,46.597 223.800 M331.600 144.008 C 331.600 144.305,331.195 144.989,330.700 145.527 L 329.800 146.505 330.704 145.954 C 331.628 145.390,332.262 144.129,331.837 143.703 C 331.706 143.573,331.600 143.710,331.600 144.008 M332.143 161.400 C 332.473 161.730,333.071 161.999,333.471 161.998 C 333.992 161.996,333.873 161.824,333.054 161.398 C 331.607 160.643,331.386 160.643,332.143 161.400 M330.000 300.548 C 330.000 301.389,331.931 302.756,332.185 302.094 C 332.327 301.726,332.311 301.556,332.151 301.716 C 331.991 301.876,331.441 301.614,330.930 301.134 C 330.418 300.654,330.000 300.390,330.000 300.548 M108.800 306.298 C 210.876 306.570,282.706 306.571,282.538 306.300 C 282.436 306.135,234.708 306.044,176.476 306.098 C 118.244 306.152,87.790 306.242,108.800 306.298 M398.893 350.800 C 398.893 351.570,398.975 351.885,399.076 351.500 C 399.176 351.115,399.176 350.485,399.076 350.100 C 398.975 349.715,398.893 350.030,398.893 350.800 M8.800 366.029 C 8.800 366.726,9.916 367.660,10.200 367.200 C 10.338 366.977,10.170 366.687,9.828 366.555 C 9.485 366.424,9.304 366.155,9.426 365.958 C 9.548 365.761,9.457 365.600,9.224 365.600 C 8.991 365.600,8.800 365.793,8.800 366.029 M11.200 368.567 C 11.200 368.988,12.405 370.128,12.621 369.912 C 12.722 369.811,12.444 369.402,12.002 369.002 C 11.561 368.603,11.200 368.407,11.200 368.567 M375.800 375.200 C 375.664 375.420,374.978 375.627,374.276 375.660 C 373.190 375.711,373.152 375.744,374.018 375.879 C 374.578 375.966,375.568 375.760,376.218 375.421 C 376.950 375.040,377.142 374.804,376.724 374.802 C 376.352 374.801,375.936 374.980,375.800 375.200 M25.800 375.872 C 26.240 375.993,26.749 376.297,26.930 376.546 C 27.149 376.846,27.206 376.796,27.099 376.400 C 27.010 376.070,26.501 375.767,25.969 375.726 C 25.205 375.668,25.169 375.699,25.800 375.872 M38.100 376.700 C 43.985 376.762,53.615 376.762,59.500 376.700 C 65.385 376.637,60.570 376.586,48.800 376.586 C 37.030 376.586,32.215 376.637,38.100 376.700 M199.892 376.700 L 305.983 376.801 306.105 384.601 L 306.226 392.401 306.213 384.500 L 306.200 376.600 200.000 376.599 L 93.800 376.598 199.892 376.700 M340.500 376.700 C 346.385 376.762,356.015 376.762,361.900 376.700 C 367.785 376.637,362.970 376.586,351.200 376.586 C 339.430 376.586,334.615 376.637,340.500 376.700 M75.070 399.039 C 75.323 399.697,75.583 399.728,76.400 399.200 C 76.730 398.987,76.820 398.796,76.600 398.776 C 76.380 398.755,75.897 398.680,75.528 398.609 C 75.087 398.524,74.930 398.672,75.070 399.039 M324.611 398.783 C 324.481 398.993,324.065 399.066,323.687 398.945 C 323.104 398.758,323.090 398.790,323.600 399.156 C 324.410 399.739,324.673 399.708,324.945 399.000 C 325.201 398.332,324.978 398.188,324.611 398.783 " stroke="none" fill="#b0acac" fill-rule="evenodd"></path><path id="path2" d="M260.182 3.340 C 259.271 4.342,259.146 4.946,260.023 4.111 C 260.536 3.622,260.876 3.145,260.778 3.051 C 260.680 2.958,260.412 3.088,260.182 3.340 M139.824 4.187 C 140.842 4.958,141.424 4.967,140.657 4.200 C 140.327 3.870,139.830 3.600,139.552 3.600 C 139.269 3.600,139.388 3.858,139.824 4.187 M119.100 4.957 C 118.715 5.249,118.400 5.768,118.400 6.111 C 118.400 6.453,118.175 6.824,117.900 6.935 C 117.508 7.093,117.511 7.144,117.913 7.168 C 118.194 7.186,118.537 6.885,118.673 6.500 C 118.810 6.115,119.192 5.485,119.523 5.100 C 120.233 4.273,120.072 4.219,119.100 4.957 M117.626 12.135 C 117.661 14.724,117.783 16.750,117.896 16.638 C 118.153 16.380,118.022 7.889,117.756 7.623 C 117.649 7.515,117.590 9.546,117.626 12.135 M282.150 11.800 C 282.151 14.220,282.216 15.158,282.296 13.885 C 282.376 12.612,282.375 10.632,282.294 9.485 C 282.214 8.338,282.149 9.380,282.150 11.800 M145.200 9.824 C 145.200 10.167,145.380 10.336,145.600 10.200 C 145.820 10.064,146.000 10.143,146.000 10.376 C 146.000 10.609,146.298 10.800,146.661 10.800 C 147.189 10.800,147.136 10.639,146.400 10.000 C 145.290 9.037,145.200 9.024,145.200 9.824 M253.600 10.000 C 253.093 10.440,252.857 10.800,253.077 10.800 C 253.296 10.800,253.802 10.440,254.200 10.000 C 254.598 9.560,254.834 9.200,254.723 9.200 C 254.613 9.200,254.107 9.560,253.600 10.000 M250.118 13.379 C 249.735 13.815,249.773 13.981,250.306 14.185 C 250.674 14.327,250.848 14.314,250.691 14.158 C 250.535 14.002,250.607 13.632,250.852 13.337 C 251.440 12.629,250.742 12.669,250.118 13.379 M248.086 15.454 C 247.583 15.974,247.330 16.400,247.524 16.400 C 247.948 16.400,249.397 14.855,249.164 14.651 C 249.074 14.572,248.589 14.933,248.086 15.454 M239.286 24.812 C 238.991 25.284,238.568 25.513,238.287 25.351 C 238.019 25.198,237.940 25.226,238.112 25.414 C 238.520 25.863,239.664 26.027,239.399 25.599 C 239.287 25.417,239.403 25.199,239.658 25.114 C 239.912 25.029,240.047 24.742,239.959 24.476 C 239.858 24.173,239.606 24.299,239.286 24.812 M231.686 31.854 C 231.183 32.374,230.930 32.800,231.124 32.800 C 231.548 32.800,232.997 31.255,232.764 31.051 C 232.674 30.972,232.189 31.333,231.686 31.854 M262.504 36.606 C 262.671 36.790,262.401 37.383,261.904 37.923 L 261.000 38.905 261.892 38.361 C 262.988 37.693,263.326 36.918,262.683 36.549 C 262.417 36.396,262.337 36.422,262.504 36.606 M225.343 38.273 C 225.494 38.536,225.217 39.023,224.718 39.373 C 223.984 39.886,223.947 40.000,224.511 40.000 C 224.890 40.000,225.200 39.809,225.200 39.576 C 225.200 39.343,225.364 39.254,225.565 39.378 C 226.017 39.658,225.884 38.539,225.414 38.112 C 225.226 37.940,225.194 38.013,225.343 38.273 M144.800 45.190 C 144.800 45.442,144.966 45.544,145.170 45.419 C 145.373 45.293,145.625 45.466,145.729 45.803 C 145.876 46.277,145.905 46.263,145.859 45.741 C 145.793 44.988,144.800 44.471,144.800 45.190 M215.286 48.254 C 214.783 48.774,214.530 49.200,214.724 49.200 C 215.148 49.200,216.597 47.655,216.364 47.451 C 216.274 47.372,215.789 47.733,215.286 48.254 M213.300 50.198 C 212.634 50.955,212.660 51.414,213.337 50.852 C 213.632 50.607,214.002 50.535,214.158 50.691 C 214.314 50.848,214.324 50.666,214.178 50.288 C 213.868 49.478,213.929 49.484,213.300 50.198 M210.182 53.340 C 209.271 54.342,209.146 54.946,210.023 54.111 C 210.536 53.622,210.876 53.145,210.778 53.051 C 210.680 52.958,210.412 53.088,210.182 53.340 M189.824 54.187 C 190.842 54.958,191.424 54.967,190.657 54.200 C 190.327 53.870,189.830 53.600,189.552 53.600 C 189.269 53.600,189.388 53.858,189.824 54.187 M195.200 59.824 C 195.200 60.167,195.380 60.336,195.600 60.200 C 195.820 60.064,196.000 60.143,196.000 60.376 C 196.000 60.609,196.298 60.800,196.661 60.800 C 197.189 60.800,197.136 60.639,196.400 60.000 C 195.290 59.037,195.200 59.024,195.200 59.824 M203.600 60.000 C 203.093 60.440,202.857 60.800,203.077 60.800 C 203.296 60.800,203.802 60.440,204.200 60.000 C 204.598 59.560,204.834 59.200,204.723 59.200 C 204.613 59.200,204.107 59.560,203.600 60.000 M161.200 61.050 C 161.201 61.596,163.109 63.680,163.279 63.320 C 163.363 63.144,162.929 62.482,162.316 61.850 C 161.702 61.217,161.200 60.857,161.200 61.050 M237.809 61.991 C 237.415 62.425,236.909 62.668,236.685 62.529 C 236.457 62.388,236.398 62.472,236.551 62.721 C 236.912 63.304,237.695 62.981,238.312 61.992 C 238.944 60.980,238.724 60.979,237.809 61.991 M11.199 78.202 C 10.683 78.751,10.444 79.200,10.668 79.200 C 11.179 79.200,12.598 77.665,12.332 77.399 C 12.225 77.291,11.714 77.652,11.199 78.202 M387.458 77.506 C 387.357 77.670,387.977 78.310,388.837 78.928 C 389.697 79.546,390.400 79.860,390.400 79.626 C 390.400 79.392,390.263 79.200,390.096 79.200 C 389.929 79.200,389.308 78.752,388.717 78.204 C 388.126 77.656,387.560 77.342,387.458 77.506 M390.892 81.275 C 390.979 81.536,391.264 81.821,391.525 81.908 C 391.818 82.006,391.907 81.823,391.757 81.433 C 391.478 80.706,390.652 80.555,390.892 81.275 M398.800 95.976 C 398.800 96.623,398.942 97.241,399.116 97.348 C 399.290 97.456,399.361 96.927,399.273 96.172 C 399.076 94.491,398.800 94.377,398.800 95.976 M374.802 100.876 C 374.801 101.248,374.980 101.664,375.200 101.800 C 375.420 101.936,375.630 102.802,375.667 103.724 C 375.732 105.348,375.739 105.356,375.886 103.983 C 375.971 103.192,375.766 102.043,375.422 101.383 C 375.040 100.651,374.804 100.458,374.802 100.876 M23.856 105.478 C 23.715 105.618,23.645 158.758,23.699 223.567 L 23.799 341.400 23.900 223.823 C 23.974 138.516,24.123 106.171,24.443 105.973 C 24.716 105.804,24.737 105.609,24.498 105.461 C 24.286 105.329,23.996 105.337,23.856 105.478 M375.901 105.894 C 376.553 106.356,376.445 341.442,375.792 341.331 C 375.551 341.290,375.448 341.920,375.539 342.878 C 375.640 343.940,375.505 344.627,375.147 344.878 C 374.701 345.190,374.711 345.231,375.200 345.099 C 375.584 344.996,375.844 344.336,375.923 343.269 C 375.991 342.351,376.216 341.600,376.424 341.600 C 377.137 341.600,376.714 105.898,376.000 105.703 C 375.555 105.581,375.529 105.631,375.901 105.894 M114.900 117.100 C 148.725 117.156,204.075 117.156,237.900 117.100 C 271.725 117.044,244.050 116.997,176.400 116.997 C 108.750 116.997,81.075 117.044,114.900 117.100 M52.006 118.300 C 52.010 118.732,52.125 118.831,52.306 118.560 C 52.468 118.318,52.870 118.017,53.200 117.892 C 53.601 117.739,53.501 117.653,52.900 117.632 C 52.295 117.610,52.002 117.830,52.006 118.300 M46.597 223.800 C 46.597 278.360,46.643 300.621,46.700 273.268 C 46.757 245.915,46.757 201.275,46.700 174.068 C 46.643 146.861,46.597 169.240,46.597 223.800 M331.600 144.008 C 331.600 144.305,331.195 144.989,330.700 145.527 L 329.800 146.505 330.704 145.954 C 331.628 145.390,332.262 144.129,331.837 143.703 C 331.706 143.573,331.600 143.710,331.600 144.008 M332.143 161.400 C 332.473 161.730,333.071 161.999,333.471 161.998 C 333.992 161.996,333.873 161.824,333.054 161.398 C 331.607 160.643,331.386 160.643,332.143 161.400 M330.000 300.548 C 330.000 301.389,331.931 302.756,332.185 302.094 C 332.327 301.726,332.311 301.556,332.151 301.716 C 331.991 301.876,331.441 301.614,330.930 301.134 C 330.418 300.654,330.000 300.390,330.000 300.548 M108.800 306.298 C 210.876 306.570,282.706 306.571,282.538 306.300 C 282.436 306.135,234.708 306.044,176.476 306.098 C 118.244 306.152,87.790 306.242,108.800 306.298 M398.893 350.800 C 398.893 351.570,398.975 351.885,399.076 351.500 C 399.176 351.115,399.176 350.485,399.076 350.100 C 398.975 349.715,398.893 350.030,398.893 350.800 M8.800 366.029 C 8.800 366.726,9.916 367.660,10.200 367.200 C 10.338 366.977,10.170 366.687,9.828 366.555 C 9.485 366.424,9.304 366.155,9.426 365.958 C 9.548 365.761,9.457 365.600,9.224 365.600 C 8.991 365.600,8.800 365.793,8.800 366.029 M11.200 368.567 C 11.200 368.988,12.405 370.128,12.621 369.912 C 12.722 369.811,12.444 369.402,12.002 369.002 C 11.561 368.603,11.200 368.407,11.200 368.567 M375.800 375.200 C 375.664 375.420,374.978 375.627,374.276 375.660 C 373.190 375.711,373.152 375.744,374.018 375.879 C 374.578 375.966,375.568 375.760,376.218 375.421 C 376.950 375.040,377.142 374.804,376.724 374.802 C 376.352 374.801,375.936 374.980,375.800 375.200 M25.800 375.872 C 26.240 375.993,26.749 376.297,26.930 376.546 C 27.149 376.846,27.206 376.796,27.099 376.400 C 27.010 376.070,26.501 375.767,25.969 375.726 C 25.205 375.668,25.169 375.699,25.800 375.872 M38.100 376.700 C 43.985 376.762,53.615 376.762,59.500 376.700 C 65.385 376.637,60.570 376.586,48.800 376.586 C 37.030 376.586,32.215 376.637,38.100 376.700 M199.892 376.700 L 305.983 376.801 306.105 384.601 L 306.226 392.401 306.213 384.500 L 306.200 376.600 200.000 376.599 L 93.800 376.598 199.892 376.700 M340.500 376.700 C 346.385 376.762,356.015 376.762,361.900 376.700 C 367.785 376.637,362.970 376.586,351.200 376.586 C 339.430 376.586,334.615 376.637,340.500 376.700 M75.070 399.039 C 75.323 399.697,75.583 399.728,76.400 399.200 C 76.730 398.987,76.820 398.796,76.600 398.776 C 76.380 398.755,75.897 398.680,75.528 398.609 C 75.087 398.524,74.930 398.672,75.070 399.039 M324.611 398.783 C 324.481 398.993,324.065 399.066,323.687 398.945 C 323.104 398.758,323.090 398.790,323.600 399.156 C 324.410 399.739,324.673 399.708,324.945 399.000 C 325.201 398.332,324.978 398.188,324.611 398.783 " stroke="none" fill="#b0acac" fill-rule="evenodd"></path><path id="path3" d="M260.182 3.340 C 259.271 4.342,259.146 4.946,260.023 4.111 C 260.536 3.622,260.876 3.145,260.778 3.051 C 260.680 2.958,260.412 3.088,260.182 3.340 M139.824 4.187 C 140.842 4.958,141.424 4.967,140.657 4.200 C 140.327 3.870,139.830 3.600,139.552 3.600 C 139.269 3.600,139.388 3.858,139.824 4.187 M119.100 4.957 C 118.715 5.249,118.400 5.768,118.400 6.111 C 118.400 6.453,118.175 6.824,117.900 6.935 C 117.508 7.093,117.511 7.144,117.913 7.168 C 118.194 7.186,118.537 6.885,118.673 6.500 C 118.810 6.115,119.192 5.485,119.523 5.100 C 120.233 4.273,120.072 4.219,119.100 4.957 M117.626 12.135 C 117.661 14.724,117.783 16.750,117.896 16.638 C 118.153 16.380,118.022 7.889,117.756 7.623 C 117.649 7.515,117.590 9.546,117.626 12.135 M282.150 11.800 C 282.151 14.220,282.216 15.158,282.296 13.885 C 282.376 12.612,282.375 10.632,282.294 9.485 C 282.214 8.338,282.149 9.380,282.150 11.800 M145.200 9.824 C 145.200 10.167,145.380 10.336,145.600 10.200 C 145.820 10.064,146.000 10.143,146.000 10.376 C 146.000 10.609,146.298 10.800,146.661 10.800 C 147.189 10.800,147.136 10.639,146.400 10.000 C 145.290 9.037,145.200 9.024,145.200 9.824 M253.600 10.000 C 253.093 10.440,252.857 10.800,253.077 10.800 C 253.296 10.800,253.802 10.440,254.200 10.000 C 254.598 9.560,254.834 9.200,254.723 9.200 C 254.613 9.200,254.107 9.560,253.600 10.000 M250.118 13.379 C 249.735 13.815,249.773 13.981,250.306 14.185 C 250.674 14.327,250.848 14.314,250.691 14.158 C 250.535 14.002,250.607 13.632,250.852 13.337 C 251.440 12.629,250.742 12.669,250.118 13.379 M248.086 15.454 C 247.583 15.974,247.330 16.400,247.524 16.400 C 247.948 16.400,249.397 14.855,249.164 14.651 C 249.074 14.572,248.589 14.933,248.086 15.454 M239.286 24.812 C 238.991 25.284,238.568 25.513,238.287 25.351 C 238.019 25.198,237.940 25.226,238.112 25.414 C 238.520 25.863,239.664 26.027,239.399 25.599 C 239.287 25.417,239.403 25.199,239.658 25.114 C 239.912 25.029,240.047 24.742,239.959 24.476 C 239.858 24.173,239.606 24.299,239.286 24.812 M231.686 31.854 C 231.183 32.374,230.930 32.800,231.124 32.800 C 231.548 32.800,232.997 31.255,232.764 31.051 C 232.674 30.972,232.189 31.333,231.686 31.854 M262.504 36.606 C 262.671 36.790,262.401 37.383,261.904 37.923 L 261.000 38.905 261.892 38.361 C 262.988 37.693,263.326 36.918,262.683 36.549 C 262.417 36.396,262.337 36.422,262.504 36.606 M225.343 38.273 C 225.494 38.536,225.217 39.023,224.718 39.373 C 223.984 39.886,223.947 40.000,224.511 40.000 C 224.890 40.000,225.200 39.809,225.200 39.576 C 225.200 39.343,225.364 39.254,225.565 39.378 C 226.017 39.658,225.884 38.539,225.414 38.112 C 225.226 37.940,225.194 38.013,225.343 38.273 M144.800 45.190 C 144.800 45.442,144.966 45.544,145.170 45.419 C 145.373 45.293,145.625 45.466,145.729 45.803 C 145.876 46.277,145.905 46.263,145.859 45.741 C 145.793 44.988,144.800 44.471,144.800 45.190 M215.286 48.254 C 214.783 48.774,214.530 49.200,214.724 49.200 C 215.148 49.200,216.597 47.655,216.364 47.451 C 216.274 47.372,215.789 47.733,215.286 48.254 M213.300 50.198 C 212.634 50.955,212.660 51.414,213.337 50.852 C 213.632 50.607,214.002 50.535,214.158 50.691 C 214.314 50.848,214.324 50.666,214.178 50.288 C 213.868 49.478,213.929 49.484,213.300 50.198 M210.182 53.340 C 209.271 54.342,209.146 54.946,210.023 54.111 C 210.536 53.622,210.876 53.145,210.778 53.051 C 210.680 52.958,210.412 53.088,210.182 53.340 M189.824 54.187 C 190.842 54.958,191.424 54.967,190.657 54.200 C 190.327 53.870,189.830 53.600,189.552 53.600 C 189.269 53.600,189.388 53.858,189.824 54.187 M195.200 59.824 C 195.200 60.167,195.380 60.336,195.600 60.200 C 195.820 60.064,196.000 60.143,196.000 60.376 C 196.000 60.609,196.298 60.800,196.661 60.800 C 197.189 60.800,197.136 60.639,196.400 60.000 C 195.290 59.037,195.200 59.024,195.200 59.824 M203.600 60.000 C 203.093 60.440,202.857 60.800,203.077 60.800 C 203.296 60.800,203.802 60.440,204.200 60.000 C 204.598 59.560,204.834 59.200,204.723 59.200 C 204.613 59.200,204.107 59.560,203.600 60.000 M161.200 61.050 C 161.201 61.596,163.109 63.680,163.279 63.320 C 163.363 63.144,162.929 62.482,162.316 61.850 C 161.702 61.217,161.200 60.857,161.200 61.050 M237.809 61.991 C 237.415 62.425,236.909 62.668,236.685 62.529 C 236.457 62.388,236.398 62.472,236.551 62.721 C 236.912 63.304,237.695 62.981,238.312 61.992 C 238.944 60.980,238.724 60.979,237.809 61.991 M11.199 78.202 C 10.683 78.751,10.444 79.200,10.668 79.200 C 11.179 79.200,12.598 77.665,12.332 77.399 C 12.225 77.291,11.714 77.652,11.199 78.202 M387.458 77.506 C 387.357 77.670,387.977 78.310,388.837 78.928 C 389.697 79.546,390.400 79.860,390.400 79.626 C 390.400 79.392,390.263 79.200,390.096 79.200 C 389.929 79.200,389.308 78.752,388.717 78.204 C 388.126 77.656,387.560 77.342,387.458 77.506 M390.892 81.275 C 390.979 81.536,391.264 81.821,391.525 81.908 C 391.818 82.006,391.907 81.823,391.757 81.433 C 391.478 80.706,390.652 80.555,390.892 81.275 M398.800 95.976 C 398.800 96.623,398.942 97.241,399.116 97.348 C 399.290 97.456,399.361 96.927,399.273 96.172 C 399.076 94.491,398.800 94.377,398.800 95.976 M374.802 100.876 C 374.801 101.248,374.980 101.664,375.200 101.800 C 375.420 101.936,375.630 102.802,375.667 103.724 C 375.732 105.348,375.739 105.356,375.886 103.983 C 375.971 103.192,375.766 102.043,375.422 101.383 C 375.040 100.651,374.804 100.458,374.802 100.876 M23.856 105.478 C 23.715 105.618,23.645 158.758,23.699 223.567 L 23.799 341.400 23.900 223.823 C 23.974 138.516,24.123 106.171,24.443 105.973 C 24.716 105.804,24.737 105.609,24.498 105.461 C 24.286 105.329,23.996 105.337,23.856 105.478 M375.901 105.894 C 376.553 106.356,376.445 341.442,375.792 341.331 C 375.551 341.290,375.448 341.920,375.539 342.878 C 375.640 343.940,375.505 344.627,375.147 344.878 C 374.701 345.190,374.711 345.231,375.200 345.099 C 375.584 344.996,375.844 344.336,375.923 343.269 C 375.991 342.351,376.216 341.600,376.424 341.600 C 377.137 341.600,376.714 105.898,376.000 105.703 C 375.555 105.581,375.529 105.631,375.901 105.894 M114.900 117.100 C 148.725 117.156,204.075 117.156,237.900 117.100 C 271.725 117.044,244.050 116.997,176.400 116.997 C 108.750 116.997,81.075 117.044,114.900 117.100 M52.006 118.300 C 52.010 118.732,52.125 118.831,52.306 118.560 C 52.468 118.318,52.870 118.017,53.200 117.892 C 53.601 117.739,53.501 117.653,52.900 117.632 C 52.295 117.610,52.002 117.830,52.006 118.300 M46.597 223.800 C 46.597 278.360,46.643 300.621,46.700 273.268 C 46.757 245.915,46.757 201.275,46.700 174.068 C 46.643 146.861,46.597 169.240,46.597 223.800 M331.600 144.008 C 331.600 144.305,331.195 144.989,330.700 145.527 L 329.800 146.505 330.704 145.954 C 331.628 145.390,332.262 144.129,331.837 143.703 C 331.706 143.573,331.600 143.710,331.600 144.008 M332.143 161.400 C 332.473 161.730,333.071 161.999,333.471 161.998 C 333.992 161.996,333.873 161.824,333.054 161.398 C 331.607 160.643,331.386 160.643,332.143 161.400 M330.000 300.548 C 330.000 301.389,331.931 302.756,332.185 302.094 C 332.327 301.726,332.311 301.556,332.151 301.716 C 331.991 301.876,331.441 301.614,330.930 301.134 C 330.418 300.654,330.000 300.390,330.000 300.548 M108.800 306.298 C 210.876 306.570,282.706 306.571,282.538 306.300 C 282.436 306.135,234.708 306.044,176.476 306.098 C 118.244 306.152,87.790 306.242,108.800 306.298 M398.893 350.800 C 398.893 351.570,398.975 351.885,399.076 351.500 C 399.176 351.115,399.176 350.485,399.076 350.100 C 398.975 349.715,398.893 350.030,398.893 350.800 M8.800 366.029 C 8.800 366.726,9.916 367.660,10.200 367.200 C 10.338 366.977,10.170 366.687,9.828 366.555 C 9.485 366.424,9.304 366.155,9.426 365.958 C 9.548 365.761,9.457 365.600,9.224 365.600 C 8.991 365.600,8.800 365.793,8.800 366.029 M11.200 368.567 C 11.200 368.988,12.405 370.128,12.621 369.912 C 12.722 369.811,12.444 369.402,12.002 369.002 C 11.561 368.603,11.200 368.407,11.200 368.567 M375.800 375.200 C 375.664 375.420,374.978 375.627,374.276 375.660 C 373.190 375.711,373.152 375.744,374.018 375.879 C 374.578 375.966,375.568 375.760,376.218 375.421 C 376.950 375.040,377.142 374.804,376.724 374.802 C 376.352 374.801,375.936 374.980,375.800 375.200 M25.800 375.872 C 26.240 375.993,26.749 376.297,26.930 376.546 C 27.149 376.846,27.206 376.796,27.099 376.400 C 27.010 376.070,26.501 375.767,25.969 375.726 C 25.205 375.668,25.169 375.699,25.800 375.872 M38.100 376.700 C 43.985 376.762,53.615 376.762,59.500 376.700 C 65.385 376.637,60.570 376.586,48.800 376.586 C 37.030 376.586,32.215 376.637,38.100 376.700 M199.892 376.700 L 305.983 376.801 306.105 384.601 L 306.226 392.401 306.213 384.500 L 306.200 376.600 200.000 376.599 L 93.800 376.598 199.892 376.700 M340.500 376.700 C 346.385 376.762,356.015 376.762,361.900 376.700 C 367.785 376.637,362.970 376.586,351.200 376.586 C 339.430 376.586,334.615 376.637,340.500 376.700 M75.070 399.039 C 75.323 399.697,75.583 399.728,76.400 399.200 C 76.730 398.987,76.820 398.796,76.600 398.776 C 76.380 398.755,75.897 398.680,75.528 398.609 C 75.087 398.524,74.930 398.672,75.070 399.039 M324.611 398.783 C 324.481 398.993,324.065 399.066,323.687 398.945 C 323.104 398.758,323.090 398.790,323.600 399.156 C 324.410 399.739,324.673 399.708,324.945 399.000 C 325.201 398.332,324.978 398.188,324.611 398.783 " stroke="none" fill="#b0acac" fill-rule="evenodd"></path><path id="path4" d="M260.182 3.340 C 259.271 4.342,259.146 4.946,260.023 4.111 C 260.536 3.622,260.876 3.145,260.778 3.051 C 260.680 2.958,260.412 3.088,260.182 3.340 M139.824 4.187 C 140.842 4.958,141.424 4.967,140.657 4.200 C 140.327 3.870,139.830 3.600,139.552 3.600 C 139.269 3.600,139.388 3.858,139.824 4.187 M119.100 4.957 C 118.715 5.249,118.400 5.768,118.400 6.111 C 118.400 6.453,118.175 6.824,117.900 6.935 C 117.508 7.093,117.511 7.144,117.913 7.168 C 118.194 7.186,118.537 6.885,118.673 6.500 C 118.810 6.115,119.192 5.485,119.523 5.100 C 120.233 4.273,120.072 4.219,119.100 4.957 M117.626 12.135 C 117.661 14.724,117.783 16.750,117.896 16.638 C 118.153 16.380,118.022 7.889,117.756 7.623 C 117.649 7.515,117.590 9.546,117.626 12.135 M282.150 11.800 C 282.151 14.220,282.216 15.158,282.296 13.885 C 282.376 12.612,282.375 10.632,282.294 9.485 C 282.214 8.338,282.149 9.380,282.150 11.800 M145.200 9.824 C 145.200 10.167,145.380 10.336,145.600 10.200 C 145.820 10.064,146.000 10.143,146.000 10.376 C 146.000 10.609,146.298 10.800,146.661 10.800 C 147.189 10.800,147.136 10.639,146.400 10.000 C 145.290 9.037,145.200 9.024,145.200 9.824 M253.600 10.000 C 253.093 10.440,252.857 10.800,253.077 10.800 C 253.296 10.800,253.802 10.440,254.200 10.000 C 254.598 9.560,254.834 9.200,254.723 9.200 C 254.613 9.200,254.107 9.560,253.600 10.000 M250.118 13.379 C 249.735 13.815,249.773 13.981,250.306 14.185 C 250.674 14.327,250.848 14.314,250.691 14.158 C 250.535 14.002,250.607 13.632,250.852 13.337 C 251.440 12.629,250.742 12.669,250.118 13.379 M248.086 15.454 C 247.583 15.974,247.330 16.400,247.524 16.400 C 247.948 16.400,249.397 14.855,249.164 14.651 C 249.074 14.572,248.589 14.933,248.086 15.454 M239.286 24.812 C 238.991 25.284,238.568 25.513,238.287 25.351 C 238.019 25.198,237.940 25.226,238.112 25.414 C 238.520 25.863,239.664 26.027,239.399 25.599 C 239.287 25.417,239.403 25.199,239.658 25.114 C 239.912 25.029,240.047 24.742,239.959 24.476 C 239.858 24.173,239.606 24.299,239.286 24.812 M231.686 31.854 C 231.183 32.374,230.930 32.800,231.124 32.800 C 231.548 32.800,232.997 31.255,232.764 31.051 C 232.674 30.972,232.189 31.333,231.686 31.854 M262.504 36.606 C 262.671 36.790,262.401 37.383,261.904 37.923 L 261.000 38.905 261.892 38.361 C 262.988 37.693,263.326 36.918,262.683 36.549 C 262.417 36.396,262.337 36.422,262.504 36.606 M225.343 38.273 C 225.494 38.536,225.217 39.023,224.718 39.373 C 223.984 39.886,223.947 40.000,224.511 40.000 C 224.890 40.000,225.200 39.809,225.200 39.576 C 225.200 39.343,225.364 39.254,225.565 39.378 C 226.017 39.658,225.884 38.539,225.414 38.112 C 225.226 37.940,225.194 38.013,225.343 38.273 M144.800 45.190 C 144.800 45.442,144.966 45.544,145.170 45.419 C 145.373 45.293,145.625 45.466,145.729 45.803 C 145.876 46.277,145.905 46.263,145.859 45.741 C 145.793 44.988,144.800 44.471,144.800 45.190 M215.286 48.254 C 214.783 48.774,214.530 49.200,214.724 49.200 C 215.148 49.200,216.597 47.655,216.364 47.451 C 216.274 47.372,215.789 47.733,215.286 48.254 M213.300 50.198 C 212.634 50.955,212.660 51.414,213.337 50.852 C 213.632 50.607,214.002 50.535,214.158 50.691 C 214.314 50.848,214.324 50.666,214.178 50.288 C 213.868 49.478,213.929 49.484,213.300 50.198 M210.182 53.340 C 209.271 54.342,209.146 54.946,210.023 54.111 C 210.536 53.622,210.876 53.145,210.778 53.051 C 210.680 52.958,210.412 53.088,210.182 53.340 M189.824 54.187 C 190.842 54.958,191.424 54.967,190.657 54.200 C 190.327 53.870,189.830 53.600,189.552 53.600 C 189.269 53.600,189.388 53.858,189.824 54.187 M195.200 59.824 C 195.200 60.167,195.380 60.336,195.600 60.200 C 195.820 60.064,196.000 60.143,196.000 60.376 C 196.000 60.609,196.298 60.800,196.661 60.800 C 197.189 60.800,197.136 60.639,196.400 60.000 C 195.290 59.037,195.200 59.024,195.200 59.824 M203.600 60.000 C 203.093 60.440,202.857 60.800,203.077 60.800 C 203.296 60.800,203.802 60.440,204.200 60.000 C 204.598 59.560,204.834 59.200,204.723 59.200 C 204.613 59.200,204.107 59.560,203.600 60.000 M161.200 61.050 C 161.201 61.596,163.109 63.680,163.279 63.320 C 163.363 63.144,162.929 62.482,162.316 61.850 C 161.702 61.217,161.200 60.857,161.200 61.050 M237.809 61.991 C 237.415 62.425,236.909 62.668,236.685 62.529 C 236.457 62.388,236.398 62.472,236.551 62.721 C 236.912 63.304,237.695 62.981,238.312 61.992 C 238.944 60.980,238.724 60.979,237.809 61.991 M11.199 78.202 C 10.683 78.751,10.444 79.200,10.668 79.200 C 11.179 79.200,12.598 77.665,12.332 77.399 C 12.225 77.291,11.714 77.652,11.199 78.202 M387.458 77.506 C 387.357 77.670,387.977 78.310,388.837 78.928 C 389.697 79.546,390.400 79.860,390.400 79.626 C 390.400 79.392,390.263 79.200,390.096 79.200 C 389.929 79.200,389.308 78.752,388.717 78.204 C 388.126 77.656,387.560 77.342,387.458 77.506 M390.892 81.275 C 390.979 81.536,391.264 81.821,391.525 81.908 C 391.818 82.006,391.907 81.823,391.757 81.433 C 391.478 80.706,390.652 80.555,390.892 81.275 M398.800 95.976 C 398.800 96.623,398.942 97.241,399.116 97.348 C 399.290 97.456,399.361 96.927,399.273 96.172 C 399.076 94.491,398.800 94.377,398.800 95.976 M374.802 100.876 C 374.801 101.248,374.980 101.664,375.200 101.800 C 375.420 101.936,375.630 102.802,375.667 103.724 C 375.732 105.348,375.739 105.356,375.886 103.983 C 375.971 103.192,375.766 102.043,375.422 101.383 C 375.040 100.651,374.804 100.458,374.802 100.876 M23.856 105.478 C 23.715 105.618,23.645 158.758,23.699 223.567 L 23.799 341.400 23.900 223.823 C 23.974 138.516,24.123 106.171,24.443 105.973 C 24.716 105.804,24.737 105.609,24.498 105.461 C 24.286 105.329,23.996 105.337,23.856 105.478 M375.901 105.894 C 376.553 106.356,376.445 341.442,375.792 341.331 C 375.551 341.290,375.448 341.920,375.539 342.878 C 375.640 343.940,375.505 344.627,375.147 344.878 C 374.701 345.190,374.711 345.231,375.200 345.099 C 375.584 344.996,375.844 344.336,375.923 343.269 C 375.991 342.351,376.216 341.600,376.424 341.600 C 377.137 341.600,376.714 105.898,376.000 105.703 C 375.555 105.581,375.529 105.631,375.901 105.894 M114.900 117.100 C 148.725 117.156,204.075 117.156,237.900 117.100 C 271.725 117.044,244.050 116.997,176.400 116.997 C 108.750 116.997,81.075 117.044,114.900 117.100 M52.006 118.300 C 52.010 118.732,52.125 118.831,52.306 118.560 C 52.468 118.318,52.870 118.017,53.200 117.892 C 53.601 117.739,53.501 117.653,52.900 117.632 C 52.295 117.610,52.002 117.830,52.006 118.300 M46.597 223.800 C 46.597 278.360,46.643 300.621,46.700 273.268 C 46.757 245.915,46.757 201.275,46.700 174.068 C 46.643 146.861,46.597 169.240,46.597 223.800 M331.600 144.008 C 331.600 144.305,331.195 144.989,330.700 145.527 L 329.800 146.505 330.704 145.954 C 331.628 145.390,332.262 144.129,331.837 143.703 C 331.706 143.573,331.600 143.710,331.600 144.008 M332.143 161.400 C 332.473 161.730,333.071 161.999,333.471 161.998 C 333.992 161.996,333.873 161.824,333.054 161.398 C 331.607 160.643,331.386 160.643,332.143 161.400 M330.000 300.548 C 330.000 301.389,331.931 302.756,332.185 302.094 C 332.327 301.726,332.311 301.556,332.151 301.716 C 331.991 301.876,331.441 301.614,330.930 301.134 C 330.418 300.654,330.000 300.390,330.000 300.548 M108.800 306.298 C 210.876 306.570,282.706 306.571,282.538 306.300 C 282.436 306.135,234.708 306.044,176.476 306.098 C 118.244 306.152,87.790 306.242,108.800 306.298 M398.893 350.800 C 398.893 351.570,398.975 351.885,399.076 351.500 C 399.176 351.115,399.176 350.485,399.076 350.100 C 398.975 349.715,398.893 350.030,398.893 350.800 M8.800 366.029 C 8.800 366.726,9.916 367.660,10.200 367.200 C 10.338 366.977,10.170 366.687,9.828 366.555 C 9.485 366.424,9.304 366.155,9.426 365.958 C 9.548 365.761,9.457 365.600,9.224 365.600 C 8.991 365.600,8.800 365.793,8.800 366.029 M11.200 368.567 C 11.200 368.988,12.405 370.128,12.621 369.912 C 12.722 369.811,12.444 369.402,12.002 369.002 C 11.561 368.603,11.200 368.407,11.200 368.567 M375.800 375.200 C 375.664 375.420,374.978 375.627,374.276 375.660 C 373.190 375.711,373.152 375.744,374.018 375.879 C 374.578 375.966,375.568 375.760,376.218 375.421 C 376.950 375.040,377.142 374.804,376.724 374.802 C 376.352 374.801,375.936 374.980,375.800 375.200 M25.800 375.872 C 26.240 375.993,26.749 376.297,26.930 376.546 C 27.149 376.846,27.206 376.796,27.099 376.400 C 27.010 376.070,26.501 375.767,25.969 375.726 C 25.205 375.668,25.169 375.699,25.800 375.872 M38.100 376.700 C 43.985 376.762,53.615 376.762,59.500 376.700 C 65.385 376.637,60.570 376.586,48.800 376.586 C 37.030 376.586,32.215 376.637,38.100 376.700 M199.892 376.700 L 305.983 376.801 306.105 384.601 L 306.226 392.401 306.213 384.500 L 306.200 376.600 200.000 376.599 L 93.800 376.598 199.892 376.700 M340.500 376.700 C 346.385 376.762,356.015 376.762,361.900 376.700 C 367.785 376.637,362.970 376.586,351.200 376.586 C 339.430 376.586,334.615 376.637,340.500 376.700 M75.070 399.039 C 75.323 399.697,75.583 399.728,76.400 399.200 C 76.730 398.987,76.820 398.796,76.600 398.776 C 76.380 398.755,75.897 398.680,75.528 398.609 C 75.087 398.524,74.930 398.672,75.070 399.039 M324.611 398.783 C 324.481 398.993,324.065 399.066,323.687 398.945 C 323.104 398.758,323.090 398.790,323.600 399.156 C 324.410 399.739,324.673 399.708,324.945 399.000 C 325.201 398.332,324.978 398.188,324.611 398.783 " stroke="none" fill="#b0acac" fill-rule="evenodd"></path></g></svg>