<svg id="svg" version="1.1" xmlns="http://www.w3.org/2000/svg" xmlns:xlink="http://www.w3.org/1999/xlink" width="400" height="400" viewBox="0, 0, 400,400"><g id="svgg"><path id="path0" d="M7.219 0.380 C 6.900 0.582,6.495 0.658,6.319 0.550 C 6.144 0.442,6.000 0.531,6.000 0.749 C 6.000 0.968,5.631 1.263,5.180 1.406 C 4.121 1.742,1.742 4.121,1.406 5.180 C 1.263 5.631,1.008 6.000,0.840 6.000 C 0.271 6.000,0.269 6.716,0.133 199.447 C 0.000 389.238,0.009 391.919,0.775 393.647 C 1.466 395.208,4.400 398.615,4.400 397.858 C 4.400 397.693,4.867 398.063,5.439 398.679 L 6.477 399.800 198.939 399.910 C 385.031 400.016,394.049 399.982,392.779 399.179 C 392.461 398.977,392.389 398.809,392.620 398.806 C 392.851 398.803,393.256 399.016,393.520 399.280 C 393.893 399.653,394.000 399.653,394.000 399.280 C 394.000 399.016,394.283 398.800,394.629 398.800 C 395.450 398.800,396.520 397.718,396.205 397.208 C 396.057 396.969,396.235 396.915,396.649 397.074 C 397.184 397.279,397.279 397.184,397.074 396.649 C 396.915 396.235,396.969 396.057,397.208 396.205 C 397.718 396.520,398.800 395.450,398.800 394.629 C 398.800 394.283,399.016 394.000,399.280 394.000 C 399.653 394.000,399.653 393.893,399.280 393.520 C 399.016 393.256,398.803 392.851,398.806 392.620 C 398.809 392.389,398.977 392.461,399.179 392.779 C 399.982 394.049,400.016 385.031,399.910 198.939 L 399.800 6.477 398.679 5.439 C 398.063 4.867,397.693 4.400,397.858 4.400 C 398.615 4.400,395.208 1.467,393.649 0.776 C 391.709 -0.084,8.572 -0.476,7.219 0.380 M375.000 200.000 L 375.000 375.000 200.000 375.000 L 25.000 375.000 24.898 200.400 C 24.841 104.370,24.881 25.575,24.985 25.300 C 25.137 24.900,60.367 24.819,200.088 24.900 L 375.000 25.000 375.000 200.000 M57.800 50.000 C 58.015 50.348,57.204 50.590,56.300 50.447 C 56.135 50.421,56.000 50.568,56.000 50.773 C 56.000 50.978,55.631 51.263,55.180 51.406 C 54.729 51.549,53.754 52.273,53.013 53.013 C 52.273 53.754,51.549 54.729,51.406 55.180 C 51.263 55.631,50.978 56.000,50.773 56.000 C 50.568 56.000,50.421 56.135,50.447 56.300 C 50.590 57.204,50.348 58.015,50.000 57.800 C 49.734 57.635,49.600 105.129,49.600 199.976 C 49.600 283.093,49.748 342.400,49.957 342.400 C 50.153 342.400,50.587 343.075,50.921 343.900 C 51.468 345.251,54.400 348.586,54.400 347.858 C 54.400 347.693,54.826 348.018,55.346 348.579 C 55.866 349.141,56.575 349.600,56.922 349.600 C 57.269 349.600,57.664 349.780,57.800 350.000 C 58.253 350.734,341.923 350.534,342.657 349.800 C 343.078 349.379,343.109 349.200,342.762 349.200 C 342.490 349.200,342.382 349.084,342.524 348.943 C 342.665 348.802,343.055 348.914,343.390 349.192 C 343.807 349.538,344.000 349.556,344.000 349.249 C 344.000 349.002,344.283 348.800,344.629 348.800 C 345.450 348.800,346.520 347.718,346.205 347.208 C 346.057 346.969,346.235 346.915,346.649 347.074 C 347.184 347.279,347.279 347.184,347.074 346.649 C 346.915 346.235,346.969 346.057,347.208 346.205 C 347.718 346.520,348.800 345.450,348.800 344.629 C 348.800 344.283,349.002 344.000,349.249 344.000 C 349.556 344.000,349.538 343.807,349.192 343.390 C 348.914 343.055,348.802 342.665,348.943 342.524 C 349.084 342.382,349.200 342.490,349.200 342.762 C 349.200 343.109,349.379 343.078,349.800 342.657 C 350.534 341.923,350.734 58.253,350.000 57.800 C 349.780 57.664,349.600 57.269,349.600 56.922 C 349.600 56.575,349.141 55.866,348.579 55.346 C 348.018 54.826,347.693 54.400,347.858 54.400 C 348.586 54.400,345.251 51.468,343.900 50.921 C 343.075 50.587,342.400 50.153,342.400 49.957 C 342.400 49.748,283.093 49.600,199.976 49.600 C 105.129 49.600,57.635 49.734,57.800 50.000 M187.200 131.000 L 187.200 187.200 131.000 187.200 L 74.800 187.200 74.800 131.267 C 74.800 100.503,74.920 75.213,75.067 75.067 C 75.213 74.920,100.503 74.800,131.267 74.800 L 187.200 74.800 187.200 131.000 M325.101 131.100 L 325.203 187.200 269.001 187.200 L 212.800 187.200 212.800 130.999 L 212.800 74.797 268.900 74.899 L 325.000 75.000 325.101 131.100 M187.200 269.001 L 187.200 325.203 131.100 325.101 L 75.000 325.000 74.899 268.900 L 74.797 212.800 130.999 212.800 L 187.200 212.800 187.200 269.001 M325.101 268.900 L 325.000 325.000 268.900 325.101 L 212.800 325.203 212.800 269.001 L 212.800 212.800 269.001 212.800 L 325.203 212.800 325.101 268.900 " stroke="none" fill="#acacac" fill-rule="evenodd"></path><path id="path1" d="M24.985 25.300 C 24.881 25.575,24.841 104.370,24.898 200.400 L 25.000 375.000 200.000 375.000 L 375.000 375.000 375.000 200.000 L 375.000 25.000 200.088 24.900 C 60.367 24.819,25.137 24.900,24.985 25.300 M374.800 200.000 L 374.800 374.800 200.000 374.800 L 25.200 374.800 25.200 200.000 L 25.200 25.200 200.000 25.200 L 374.800 25.200 374.800 200.000 M74.985 75.300 C 74.880 75.575,74.841 100.910,74.899 131.600 L 75.003 187.400 75.101 131.301 L 75.200 75.203 131.300 75.100 L 187.400 74.997 131.287 74.899 C 86.693 74.820,75.136 74.903,74.985 75.300 M268.699 75.099 L 324.797 75.203 324.901 131.101 L 325.004 187.000 325.002 131.000 L 325.000 75.000 268.800 74.998 L 212.600 74.996 268.699 75.099 M74.998 268.800 L 75.000 325.000 131.000 325.002 L 187.000 325.004 131.101 324.901 L 75.203 324.797 75.099 268.699 L 74.996 212.600 74.998 268.800 M324.899 268.699 L 324.800 324.797 268.700 324.900 L 212.600 325.003 268.713 325.101 C 313.307 325.180,324.864 325.097,325.015 324.700 C 325.120 324.425,325.159 299.090,325.101 268.400 L 324.997 212.600 324.899 268.699 " stroke="none" fill="#b0acac" fill-rule="evenodd"></path><path id="path2" d="M24.985 25.300 C 24.881 25.575,24.841 104.370,24.898 200.400 L 25.000 375.000 200.000 375.000 L 375.000 375.000 375.000 200.000 L 375.000 25.000 200.088 24.900 C 60.367 24.819,25.137 24.900,24.985 25.300 M374.800 200.000 L 374.800 374.800 200.000 374.800 L 25.200 374.800 25.200 200.000 L 25.200 25.200 200.000 25.200 L 374.800 25.200 374.800 200.000 M74.985 75.300 C 74.880 75.575,74.841 100.910,74.899 131.600 L 75.003 187.400 75.101 131.301 L 75.200 75.203 131.300 75.100 L 187.400 74.997 131.287 74.899 C 86.693 74.820,75.136 74.903,74.985 75.300 M268.699 75.099 L 324.797 75.203 324.901 131.101 L 325.004 187.000 325.002 131.000 L 325.000 75.000 268.800 74.998 L 212.600 74.996 268.699 75.099 M74.998 268.800 L 75.000 325.000 131.000 325.002 L 187.000 325.004 131.101 324.901 L 75.203 324.797 75.099 268.699 L 74.996 212.600 74.998 268.800 M324.899 268.699 L 324.800 324.797 268.700 324.900 L 212.600 325.003 268.713 325.101 C 313.307 325.180,324.864 325.097,325.015 324.700 C 325.120 324.425,325.159 299.090,325.101 268.400 L 324.997 212.600 324.899 268.699 " stroke="none" fill="#b0acac" fill-rule="evenodd"></path><path id="path3" d="M24.985 25.300 C 24.881 25.575,24.841 104.370,24.898 200.400 L 25.000 375.000 200.000 375.000 L 375.000 375.000 375.000 200.000 L 375.000 25.000 200.088 24.900 C 60.367 24.819,25.137 24.900,24.985 25.300 M374.800 200.000 L 374.800 374.800 200.000 374.800 L 25.200 374.800 25.200 200.000 L 25.200 25.200 200.000 25.200 L 374.800 25.200 374.800 200.000 M74.985 75.300 C 74.880 75.575,74.841 100.910,74.899 131.600 L 75.003 187.400 75.101 131.301 L 75.200 75.203 131.300 75.100 L 187.400 74.997 131.287 74.899 C 86.693 74.820,75.136 74.903,74.985 75.300 M268.699 75.099 L 324.797 75.203 324.901 131.101 L 325.004 187.000 325.002 131.000 L 325.000 75.000 268.800 74.998 L 212.600 74.996 268.699 75.099 M74.998 268.800 L 75.000 325.000 131.000 325.002 L 187.000 325.004 131.101 324.901 L 75.203 324.797 75.099 268.699 L 74.996 212.600 74.998 268.800 M324.899 268.699 L 324.800 324.797 268.700 324.900 L 212.600 325.003 268.713 325.101 C 313.307 325.180,324.864 325.097,325.015 324.700 C 325.120 324.425,325.159 299.090,325.101 268.400 L 324.997 212.600 324.899 268.699 " stroke="none" fill="#b0acac" fill-rule="evenodd"></path><path id="path4" d="M24.985 25.300 C 24.881 25.575,24.841 104.370,24.898 200.400 L 25.000 375.000 200.000 375.000 L 375.000 375.000 375.000 200.000 L 375.000 25.000 200.088 24.900 C 60.367 24.819,25.137 24.900,24.985 25.300 M374.800 200.000 L 374.800 374.800 200.000 374.800 L 25.200 374.800 25.200 200.000 L 25.200 25.200 200.000 25.200 L 374.800 25.200 374.800 200.000 M74.985 75.300 C 74.880 75.575,74.841 100.910,74.899 131.600 L 75.003 187.400 75.101 131.301 L 75.200 75.203 131.300 75.100 L 187.400 74.997 131.287 74.899 C 86.693 74.820,75.136 74.903,74.985 75.300 M268.699 75.099 L 324.797 75.203 324.901 131.101 L 325.004 187.000 325.002 131.000 L 325.000 75.000 268.800 74.998 L 212.600 74.996 268.699 75.099 M74.998 268.800 L 75.000 325.000 131.000 325.002 L 187.000 325.004 131.101 324.901 L 75.203 324.797 75.099 268.699 L 74.996 212.600 74.998 268.800 M324.899 268.699 L 324.800 324.797 268.700 324.900 L 212.600 325.003 268.713 325.101 C 313.307 325.180,324.864 325.097,325.015 324.700 C 325.120 324.425,325.159 299.090,325.101 268.400 L 324.997 212.600 324.899 268.699 " stroke="none" fill="#b0acac" fill-rule="evenodd"></path></g></svg>