<svg width="15" height="15" viewBox="0 0 10 10" fill="none" xmlns="http://www.w3.org/2000/svg">
<path d="M10 6.96428V9.46428C10.0002 9.53469 9.98644 9.60443 9.95958 9.6695C9.93272 9.73458 9.89327 9.7937 9.84349 9.84349C9.7937 9.89327 9.73458 9.93272 9.6695 9.95958C9.60443 9.98644 9.53469 10.0002 9.46428 10H6.96428C6.48683 10 6.24799 9.42187 6.58482 9.08482L7.39286 8.27678L5 5.88393L2.60647 8.27902L3.41518 9.08482C3.75201 9.42187 3.51317 10 3.03572 10H0.535716C0.465315 10.0002 0.395574 9.98644 0.330498 9.95958C0.265422 9.93272 0.206296 9.89327 0.156515 9.84349C0.106734 9.7937 0.0672802 9.73458 0.0404207 9.6695C0.0135611 9.60443 -0.000174982 9.53469 1.68268e-06 9.46428V6.96428C1.68268e-06 6.48661 0.577903 6.24777 0.91518 6.58482L1.72299 7.39286L4.11741 5L1.72277 2.60491L0.91518 3.41518C0.578126 3.75223 1.68268e-06 3.51339 1.68268e-06 3.03572V0.535716C-0.000174982 0.465315 0.0135611 0.395574 0.0404207 0.330498C0.0672802 0.265422 0.106734 0.206296 0.156515 0.156515C0.206296 0.106734 0.265422 0.0672803 0.330498 0.0404207C0.395574 0.0135611 0.465315 -0.000174982 0.535716 1.68267e-06H3.03572C3.51317 1.68267e-06 3.75201 0.578126 3.41518 0.91518L2.60714 1.72322L5 4.11607L7.39353 1.72098L6.58482 0.91518C6.24799 0.578126 6.48683 1.68267e-06 6.96428 1.68267e-06H9.46428C9.53469 -0.000174982 9.60443 0.0135611 9.6695 0.0404207C9.73458 0.0672803 9.7937 0.106734 9.84349 0.156515C9.89327 0.206296 9.93272 0.265422 9.95958 0.330498C9.98644 0.395574 10.0002 0.465315 10 0.535716V3.03572C10 3.51339 9.4221 3.75223 9.08482 3.41518L8.27701 2.60714L5.88259 5L8.27723 7.39509L9.08482 6.58705C9.42187 6.24777 10 6.48661 10 6.96428Z" fill="white"/>
</svg>