<svg width="15" height="15" viewBox="0 0 10 10" fill="none" xmlns="http://www.w3.org/2000/svg">
<path d="M0 3.30357V0.535714C0 0.238839 0.238839 0 0.535714 0H3.30357C3.45089 0 3.57143 0.120536 3.57143 0.267857V1.16071C3.57143 1.30804 3.45089 1.42857 3.30357 1.42857H1.42857V3.30357C1.42857 3.45089 1.30804 3.57143 1.16071 3.57143H0.267857C0.120536 3.57143 0 3.45089 0 3.30357ZM6.42857 0.267857V1.16071C6.42857 1.30804 6.54911 1.42857 6.69643 1.42857H8.57143V3.30357C8.57143 3.45089 8.69196 3.57143 8.83929 3.57143H9.73214C9.87946 3.57143 10 3.45089 10 3.30357V0.535714C10 0.238839 9.76116 0 9.46429 0H6.69643C6.54911 0 6.42857 0.120536 6.42857 0.267857ZM9.73214 6.42857H8.83929C8.69196 6.42857 8.57143 6.54911 8.57143 6.69643V8.57143H6.69643C6.54911 8.57143 6.42857 8.69196 6.42857 8.83929V9.73214C6.42857 9.87946 6.54911 10 6.69643 10H9.46429C9.76116 10 10 9.76116 10 9.46429V6.69643C10 6.54911 9.87946 6.42857 9.73214 6.42857ZM3.57143 9.73214V8.83929C3.57143 8.69196 3.45089 8.57143 3.30357 8.57143H1.42857V6.69643C1.42857 6.54911 1.30804 6.42857 1.16071 6.42857H0.267857C0.120536 6.42857 0 6.54911 0 6.69643V9.46429C0 9.76116 0.238839 10 0.535714 10H3.30357C3.45089 10 3.57143 9.87946 3.57143 9.73214Z" fill="white"/>
</svg>
